<?xml version="1.0" encoding="UTF-8" standalone="no"?><!DOCTYPE svg PUBLIC "-//W3C//DTD SVG 1.1//EN" "http://www.w3.org/Graphics/SVG/1.1/DTD/svg11.dtd"><!-- Generated by graphviz version 2.35.0 (20140103.1005) --><!-- Title: FlowChart Pages: 1 --><svg width="600pt" height="332pt" viewBox="0.00 0.00 600 332.36" xmlns="http://www.w3.org/2000/svg" xmlns:xlink="http://www.w3.org/1999/xlink"><defs><linearGradient id="g-terminatorm5096cww7jsjor" x1="0%" x2="100%" y1="0%" y2="0%" spreadMethod="pad"><stop offset="0%" stop-color="#ff8787" stop-opacity="1"/><stop offset="100%" stop-color="#ffb9b9" stop-opacity="1"/></linearGradient><linearGradient id="g-decisionm5096cww7jsjor" x1="0%" x2="100%" y1="0%" y2="0%" spreadMethod="pad"><stop offset="0%" stop-color="#ffd287" stop-opacity="1"/><stop offset="100%" stop-color="#ffffb9" stop-opacity="1"/></linearGradient><linearGradient id="g-processm5096cww7jsjor" x1="0%" x2="100%" y1="0%" y2="0%" spreadMethod="pad"><stop offset="0%" stop-color="#99ff99" stop-opacity="1"/><stop offset="100%" stop-color="#cbffcb" stop-opacity="1"/></linearGradient><linearGradient id="g-defaultm5096cww7jsjor" x1="0%" x2="100%" y1="0%" y2="0%" spreadMethod="pad"><stop offset="0%" stop-color="#99ff99" stop-opacity="1"/><stop offset="100%" stop-color="#cbffcb" stop-opacity="1"/></linearGradient><linearGradient id="g-modulem5096cww7jsjor" x1="0%" x2="100%" y1="0%" y2="0%" spreadMethod="pad"><stop offset="0%" stop-color="#77c1e4" stop-opacity="1"/><stop offset="100%" stop-color="#a9f3ff" stop-opacity="1"/></linearGradient><linearGradient id="g-dataiom5096cww7jsjor" x1="0%" x2="100%" y1="0%" y2="0%" spreadMethod="pad"><stop offset="0%" stop-color="#bebebe" stop-opacity="1"/><stop offset="100%" stop-color="#f0f0f0" stop-opacity="1"/></linearGradient><linearGradient id="g-preparationm5096cww7jsjor" x1="0%" x2="100%" y1="0%" y2="0%" spreadMethod="pad"><stop offset="0%" stop-color="#bebebe" stop-opacity="1"/><stop offset="100%" stop-color="#f0f0f0" stop-opacity="1"/></linearGradient><linearGradient id="g-commentm5096cww7jsjor" x1="0%" x2="100%" y1="0%" y2="0%" spreadMethod="pad"><stop offset="0%" stop-color="#f5f588" stop-opacity="1"/><stop offset="100%" stop-color="#ffffba" stop-opacity="1"/></linearGradient><linearGradient id="g-manualm5096cww7jsjor" x1="0%" x2="100%" y1="0%" y2="0%" spreadMethod="pad"><stop offset="0%" stop-color="#9e78ff" stop-opacity="1"/><stop offset="100%" stop-color="#d0aaff" stop-opacity="1"/></linearGradient><filter id="dropshadowm5096cww7jsjor" height="150%" width="150%"><feGaussianBlur in="SourceAlpha" stdDeviation="3"/><feOffset dx="2" dy="2" result="offsetblur"/><feComponentTransfer/><feMerge><feMergeNode/><feMergeNode in="SourceGraphic"/></feMerge></filter></defs><g id="flowm5096cww7jsjor" class="graph" transform="scale(0.533154 0.533154) rotate(0) translate(4 610)"><title>FlowChart</title><!-- terminator_block_1 --><g id="node1" class="node"><title>terminator_block_1</title><ellipse fill="url(#g-terminatorm5096cww7jsjor)" stroke="black" cx="870" cy="-588" rx="62.0979" ry="18"/><text xml:space="preserve" text-anchor="start" x="825" y="-585.5" font-family="Open Sans" font-size="10.00">function Check-CS()</text></g><!-- ifs_block_2 --><g id="node2" class="node"><title>ifs_block_2</title><polygon fill="url(#g-decisionm5096cww7jsjor)" stroke="black" points="870,-538 631.611,-520 870,-502 1108.39,-520 870,-538"/><text xml:space="preserve" text-anchor="start" x="734.5" y="-517.5" font-family="Open Sans" font-size="10.00">Check-AsmtString("&lt;ConnectedStandbyDisabledBlock />")</text></g><!-- terminator_block_1&#45;&gt;ifs_block_2 --><g id="edge1" class="edge"><title>terminator_block_1->ifs_block_2</title><path fill="none" stroke="black" d="M870,-569.659C870,-563.193 870,-555.682 870,-548.525"/><polygon fill="black" stroke="black" points="873.5,-548.454 870,-538.454 866.5,-548.454 873.5,-548.454"/></g><!-- process_block_3 --><g id="node3" class="node"><title>process_block_3</title><polygon fill="url(#g-processm5096cww7jsjor)" stroke="black" points="949,-460 203,-460 203,-424 949,-424 949,-460"/><text xml:space="preserve" text-anchor="start" x="436" y="-445" font-family="Open Sans" font-size="10.00">powercfg.exe /availablesleepstates >> $logpath\power.txt</text><text xml:space="preserve" text-anchor="start" x="210" y="-434" font-family="Open Sans" font-size="10.00">$csSupport = Select-String -Path $logpath\power.txt -Pattern "This standby state is disabled when connected standby is supported." -SimpleMatch -quiet</text></g><!-- ifs_block_2&#45;&gt;process_block_3 --><g id="edge2" class="edge"><title>ifs_block_2->process_block_3</title><path fill="none" stroke="black" d="M818.789,-505.762C772.654,-493.836 704.223,-476.146 651.759,-462.584"/><polygon fill="black" stroke="black" points="652.383,-459.13 641.825,-460.016 650.631,-465.907 652.383,-459.13"/><text xml:space="preserve" text-anchor="start" x="741" y="-479.5" font-family="Open Sans" font-weight="bold" font-size="10.00"> True </text><polyline fill="none" stroke="Black" points="771,-475.5 704.454,-475.5 "/></g><!-- process_block_8 --><g id="node8" class="node"><title>process_block_8</title><polygon fill="url(#g-processm5096cww7jsjor)" stroke="black" points="897,-110 843,-110 843,-74 897,-74 897,-110"/><text xml:space="preserve" text-anchor="start" x="860" y="-89.5" font-family="Open Sans" font-size="10.00">else</text></g><!-- ifs_block_2&#45;&gt;process_block_8 --><g id="edge9" class="edge"><title>ifs_block_2->process_block_8</title><path fill="none" stroke="black" d="M921.663,-505.882C951.826,-494.777 984,-475.35 984,-443 984,-443 984,-443 984,-159 984,-122.731 940.248,-106.07 906.953,-98.6415"/><polygon fill="black" stroke="black" points="907.513,-95.1838 897.016,-96.6212 906.119,-102.043 907.513,-95.1838"/><text xml:space="preserve" text-anchor="start" x="984" y="-294.5" font-family="Open Sans" font-weight="bold" font-size="10.00"> False </text><polyline fill="none" stroke="Black" points="1015,-290.5 984,-290.5 "/></g><!-- ifs_block_4 --><g id="node4" class="node"><title>ifs_block_4</title><polygon fill="url(#g-decisionm5096cww7jsjor)" stroke="black" points="576,-392 518.836,-374 576,-356 633.164,-374 576,-392"/><text xml:space="preserve" text-anchor="start" x="549.5" y="-371.5" font-family="Open Sans" font-size="10.00">$csSupport</text></g><!-- process_block_3&#45;&gt;ifs_block_4 --><g id="edge3" class="edge"><title>process_block_3->ifs_block_4</title><path fill="none" stroke="black" d="M576,-423.659C576,-417.193 576,-409.682 576,-402.525"/><polygon fill="black" stroke="black" points="579.5,-402.454 576,-392.454 572.5,-402.454 579.5,-402.454"/></g><!-- process_block_5 --><g id="node5" class="node"><title>process_block_5</title><polygon fill="url(#g-processm5096cww7jsjor)" stroke="black" points="700.25,-314 -0.25,-314 -0.25,-278 700.25,-278 700.25,-314"/><text xml:space="preserve" text-anchor="start" x="6.5" y="-299" font-family="Open Sans" font-size="10.00">Log-Txt "   -> CRITERIA MET: Assessment requires Connected Standby and Connected Standby is AVAILABLE on this system. Assessment will run"</text><text xml:space="preserve" text-anchor="start" x="320.5" y="-288" font-family="Open Sans" font-size="10.00">return $true</text></g><!-- ifs_block_4&#45;&gt;process_block_5 --><g id="edge4" class="edge"><title>ifs_block_4->process_block_5</title><path fill="none" stroke="black" d="M549.633,-364.133C515.787,-352.751 456.029,-332.656 410.688,-317.408"/><polygon fill="black" stroke="black" points="411.551,-314.006 400.957,-314.136 409.319,-320.641 411.551,-314.006"/><text xml:space="preserve" text-anchor="start" x="477" y="-333.5" font-family="Open Sans" font-weight="bold" font-size="10.00"> True </text><polyline fill="none" stroke="Black" points="507,-329.5 446.767,-329.5 "/></g><!-- process_block_6 --><g id="node6" class="node"><title>process_block_6</title><polygon fill="url(#g-processm5096cww7jsjor)" stroke="black" points="585,-246 531,-246 531,-210 585,-210 585,-246"/><text xml:space="preserve" text-anchor="start" x="548" y="-225.5" font-family="Open Sans" font-size="10.00">else</text></g><!-- ifs_block_4&#45;&gt;process_block_6 --><g id="edge6" class="edge"><title>ifs_block_4->process_block_6</title><path fill="none" stroke="black" d="M606.628,-365.558C655.532,-352.191 742.677,-321.406 711,-278 684.662,-241.91 631.38,-231.8 595.185,-229.287"/><polygon fill="black" stroke="black" points="595.179,-225.782 585.008,-228.748 594.809,-232.772 595.179,-225.782"/><text xml:space="preserve" text-anchor="start" x="718" y="-294.5" font-family="Open Sans" font-weight="bold" font-size="10.00"> False </text><polyline fill="none" stroke="Black" points="749,-290.5 716.905,-290.5 "/></g><!-- process_block_5&#45;&gt;process_block_6 --><g id="edge5" class="edge"><title>process_block_5->process_block_6</title><path fill="none" stroke="black" d="M403.836,-277.918C440.707,-266.218 488.639,-251.009 521.201,-240.677"/><polygon fill="black" stroke="black" points="522.31,-243.997 530.783,-237.636 520.193,-237.324 522.31,-243.997"/></g><!-- process_block_7 --><g id="node7" class="node"><title>process_block_7</title><polygon fill="url(#g-processm5096cww7jsjor)" stroke="black" points="948.25,-178 167.75,-178 167.75,-142 948.25,-142 948.25,-178"/><text xml:space="preserve" text-anchor="start" x="174.5" y="-163" font-family="Open Sans" font-size="10.00">Log-Txt "   -> MISSING CRITERIA: Assessment requires Connected Standby and Connected Standby is NOT available on this system. Assessments will be skipped"</text><text xml:space="preserve" text-anchor="start" x="527" y="-152" font-family="Open Sans" font-size="10.00">return $false</text></g><!-- process_block_6&#45;&gt;process_block_7 --><g id="edge7" class="edge"><title>process_block_6->process_block_7</title><path fill="none" stroke="black" d="M558,-209.659C558,-203.193 558,-195.682 558,-188.525"/><polygon fill="black" stroke="black" points="561.5,-188.454 558,-178.454 554.5,-188.454 561.5,-188.454"/></g><!-- process_block_7&#45;&gt;process_block_8 --><g id="edge8" class="edge"><title>process_block_7->process_block_8</title><path fill="none" stroke="black" d="M638.754,-141.918C701.329,-128.68 785.144,-110.95 832.774,-100.875"/><polygon fill="black" stroke="black" points="833.592,-104.279 842.652,-98.7852 832.144,-97.4307 833.592,-104.279"/></g><!-- terminator_block_9 --><g id="node9" class="node"><title>terminator_block_9</title><ellipse fill="url(#g-terminatorm5096cww7jsjor)" stroke="black" cx="870" cy="-21" rx="228.093" ry="21.4286"/><text xml:space="preserve" text-anchor="start" x="716.5" y="-24" font-family="Open Sans" font-size="10.00">Log-Txt "   -> Assessment does NOT require Connected Standby"</text><text xml:space="preserve" text-anchor="start" x="840.5" y="-13" font-family="Open Sans" font-size="10.00">return $true</text></g><!-- process_block_8&#45;&gt;terminator_block_9 --><g id="edge10" class="edge"><title>process_block_8->terminator_block_9</title><path fill="none" stroke="black" d="M870,-73.9438C870,-67.4338 870,-59.7993 870,-52.4177"/><polygon fill="black" stroke="black" points="873.5,-52.2941 870,-42.2942 866.5,-52.2942 873.5,-52.2941"/></g></g></svg>