<?xml version="1.0" encoding="UTF-8" standalone="no"?><!DOCTYPE svg PUBLIC "-//W3C//DTD SVG 1.1//EN" "http://www.w3.org/Graphics/SVG/1.1/DTD/svg11.dtd"><!-- Generated by graphviz version 2.35.0 (20140103.1005) --><!-- Title: FlowChart Pages: 1 --><svg width="600pt" height="175pt" viewBox="0.00 0.00 600 175.47" xmlns="http://www.w3.org/2000/svg" xmlns:xlink="http://www.w3.org/1999/xlink"><defs><linearGradient id="g-terminatorqa70do3zbyb9" x1="0%" x2="100%" y1="0%" y2="0%" spreadMethod="pad"><stop offset="0%" stop-color="#ff8787" stop-opacity="1"/><stop offset="100%" stop-color="#ffb9b9" stop-opacity="1"/></linearGradient><linearGradient id="g-decisionqa70do3zbyb9" x1="0%" x2="100%" y1="0%" y2="0%" spreadMethod="pad"><stop offset="0%" stop-color="#ffd287" stop-opacity="1"/><stop offset="100%" stop-color="#ffffb9" stop-opacity="1"/></linearGradient><linearGradient id="g-processqa70do3zbyb9" x1="0%" x2="100%" y1="0%" y2="0%" spreadMethod="pad"><stop offset="0%" stop-color="#99ff99" stop-opacity="1"/><stop offset="100%" stop-color="#cbffcb" stop-opacity="1"/></linearGradient><linearGradient id="g-defaultqa70do3zbyb9" x1="0%" x2="100%" y1="0%" y2="0%" spreadMethod="pad"><stop offset="0%" stop-color="#99ff99" stop-opacity="1"/><stop offset="100%" stop-color="#cbffcb" stop-opacity="1"/></linearGradient><linearGradient id="g-moduleqa70do3zbyb9" x1="0%" x2="100%" y1="0%" y2="0%" spreadMethod="pad"><stop offset="0%" stop-color="#77c1e4" stop-opacity="1"/><stop offset="100%" stop-color="#a9f3ff" stop-opacity="1"/></linearGradient><linearGradient id="g-dataioqa70do3zbyb9" x1="0%" x2="100%" y1="0%" y2="0%" spreadMethod="pad"><stop offset="0%" stop-color="#bebebe" stop-opacity="1"/><stop offset="100%" stop-color="#f0f0f0" stop-opacity="1"/></linearGradient><linearGradient id="g-preparationqa70do3zbyb9" x1="0%" x2="100%" y1="0%" y2="0%" spreadMethod="pad"><stop offset="0%" stop-color="#bebebe" stop-opacity="1"/><stop offset="100%" stop-color="#f0f0f0" stop-opacity="1"/></linearGradient><linearGradient id="g-commentqa70do3zbyb9" x1="0%" x2="100%" y1="0%" y2="0%" spreadMethod="pad"><stop offset="0%" stop-color="#f5f588" stop-opacity="1"/><stop offset="100%" stop-color="#ffffba" stop-opacity="1"/></linearGradient><linearGradient id="g-manualqa70do3zbyb9" x1="0%" x2="100%" y1="0%" y2="0%" spreadMethod="pad"><stop offset="0%" stop-color="#9e78ff" stop-opacity="1"/><stop offset="100%" stop-color="#d0aaff" stop-opacity="1"/></linearGradient><filter id="dropshadowqa70do3zbyb9" height="150%" width="150%"><feGaussianBlur in="SourceAlpha" stdDeviation="3"/><feOffset dx="2" dy="2" result="offsetblur"/><feComponentTransfer/><feMerge><feMergeNode/><feMergeNode in="SourceGraphic"/></feMerge></filter></defs><g id="flowqa70do3zbyb9" class="graph" transform="scale(0.40978 0.40978) rotate(0) translate(4 412)"><title>FlowChart</title><!-- terminator_block_1 --><g id="node1" class="node"><title>terminator_block_1</title><ellipse fill="url(#g-terminatorqa70do3zbyb9)" stroke="black" cx="722" cy="-390" rx="67.9285" ry="18"/><text xml:space="preserve" text-anchor="start" x="672" y="-387.5" font-family="Open Sans" font-size="10.00">function Check-Arch()</text></g><!-- process_block_2 --><g id="node2" class="node"><title>process_block_2</title><polygon fill="url(#g-processqa70do3zbyb9)" stroke="black" points="835,-340 609,-340 609,-304 835,-304 835,-340"/><text xml:space="preserve" text-anchor="start" x="616" y="-319.5" font-family="Open Sans" font-size="10.00">$proArch = $env:PROCESSOR_ARCHITECTURE</text></g><!-- terminator_block_1&#45;&gt;process_block_2 --><g id="edge1" class="edge"><title>terminator_block_1->process_block_2</title><path fill="none" stroke="black" d="M722,-371.659C722,-365.193 722,-357.682 722,-350.525"/><polygon fill="black" stroke="black" points="725.5,-350.454 722,-340.454 718.5,-350.454 725.5,-350.454"/></g><!-- ifs_block_3 --><g id="node3" class="node"><title>ifs_block_3</title><polygon fill="url(#g-decisionqa70do3zbyb9)" stroke="black" points="722,-272 -0.40862,-254 722,-236 1444.41,-254 722,-272"/><text xml:space="preserve" text-anchor="start" x="296" y="-251.5" font-family="Open Sans" font-size="10.00">(($proArch -eq "AMD64") -and (Check-AsmtString "&lt;x64 />")) -or (($proArch -eq "x86") -and (Check-AsmtString "&lt;x86 />")) -or (($proArch -eq "ARM") -and (Check-AsmtString "&lt;ARM />"))</text></g><!-- process_block_2&#45;&gt;ifs_block_3 --><g id="edge2" class="edge"><title>process_block_2->ifs_block_3</title><path fill="none" stroke="black" d="M722,-303.659C722,-297.193 722,-289.682 722,-282.525"/><polygon fill="black" stroke="black" points="725.5,-282.454 722,-272.454 718.5,-282.454 725.5,-282.454"/></g><!-- process_block_4 --><g id="node4" class="node"><title>process_block_4</title><polygon fill="url(#g-processqa70do3zbyb9)" stroke="black" points="756.25,-194 205.75,-194 205.75,-158 756.25,-158 756.25,-194"/><text xml:space="preserve" text-anchor="start" x="212.5" y="-179" font-family="Open Sans" font-size="10.00">Log-Txt "   -> CRITERIA MET: Found a match in job.xml for $env:PROCESSOR_ARCHITECTURE. Assessment will run"</text><text xml:space="preserve" text-anchor="start" x="451.5" y="-168" font-family="Open Sans" font-size="10.00">return $true</text></g><!-- ifs_block_3&#45;&gt;process_block_4 --><g id="edge3" class="edge"><title>ifs_block_3->process_block_4</title><path fill="none" stroke="black" d="M671.772,-237.16C634.814,-225.506 584.299,-209.576 544.535,-197.036"/><polygon fill="black" stroke="black" points="545.521,-193.677 534.932,-194.007 543.416,-200.353 545.521,-193.677"/><text xml:space="preserve" text-anchor="start" x="616" y="-213.5" font-family="Open Sans" font-weight="bold" font-size="10.00"> True </text><polyline fill="none" stroke="Black" points="646,-209.5 584.222,-209.5 "/></g><!-- process_block_5 --><g id="node5" class="node"><title>process_block_5</title><polygon fill="url(#g-processqa70do3zbyb9)" stroke="black" points="742,-126 688,-126 688,-90 742,-90 742,-126"/><text xml:space="preserve" text-anchor="start" x="705" y="-105.5" font-family="Open Sans" font-size="10.00">else</text></g><!-- ifs_block_3&#45;&gt;process_block_5 --><g id="edge5" class="edge"><title>ifs_block_3->process_block_5</title><path fill="none" stroke="black" d="M739.615,-236.222C749.763,-225.293 761.557,-210.11 767,-194 772.121,-178.842 773.342,-172.69 767,-158 762.907,-148.519 755.977,-140.023 748.488,-132.873"/><polygon fill="black" stroke="black" points="750.714,-130.17 740.897,-126.186 746.087,-135.422 750.714,-130.17"/><text xml:space="preserve" text-anchor="start" x="772" y="-174.5" font-family="Open Sans" font-weight="bold" font-size="10.00"> False </text><polyline fill="none" stroke="Black" points="803,-170.5 770.842,-170.5 "/></g><!-- process_block_4&#45;&gt;process_block_5 --><g id="edge4" class="edge"><title>process_block_4->process_block_5</title><path fill="none" stroke="black" d="M541.565,-157.918C584.764,-145.733 641.46,-129.742 678.064,-119.418"/><polygon fill="black" stroke="black" points="679.154,-122.747 687.828,-116.664 677.253,-116.01 679.154,-122.747"/></g><!-- terminator_block_6 --><g id="node6" class="node"><title>terminator_block_6</title><ellipse fill="url(#g-terminatorqa70do3zbyb9)" stroke="black" cx="715" cy="-29" rx="389.424" ry="28.9828"/><text xml:space="preserve" text-anchor="start" x="547.5" y="-37.5" font-family="Open Sans" font-size="10.00">Log-Txt "...Didn't find $env:PROCESSOR_ARCHITECTURE in $pathToFile"</text><text xml:space="preserve" text-anchor="start" x="447.5" y="-26.5" font-family="Open Sans" font-size="10.00">Log-Txt "   -> MISSING CRITERIA: IGNORE Run command. Assessment isn't meant for this processor architecture"</text><text xml:space="preserve" text-anchor="start" x="684" y="-15.5" font-family="Open Sans" font-size="10.00">return $false</text></g><!-- process_block_5&#45;&gt;terminator_block_6 --><g id="edge6" class="edge"><title>process_block_5->terminator_block_6</title><path fill="none" stroke="black" d="M715,-89.9112C715,-83.5145 715,-75.9615 715,-68.413"/><polygon fill="black" stroke="black" points="718.5,-68.2313 715,-58.2313 711.5,-68.2314 718.5,-68.2313"/></g></g></svg>