<?xml version="1.0" encoding="UTF-8" standalone="no"?><!DOCTYPE svg PUBLIC "-//W3C//DTD SVG 1.1//EN" "http://www.w3.org/Graphics/SVG/1.1/DTD/svg11.dtd"><!-- Generated by graphviz version 2.35.0 (20140103.1005) --><!-- Title: FlowChart Pages: 1 --><svg width="600pt" height="383pt" viewBox="0.00 0.00 600 382.8" xmlns="http://www.w3.org/2000/svg" xmlns:xlink="http://www.w3.org/1999/xlink"><defs><linearGradient id="g-terminatoro37upvcvsiqkt9" x1="0%" x2="100%" y1="0%" y2="0%" spreadMethod="pad"><stop offset="0%" stop-color="#ff8787" stop-opacity="1"/><stop offset="100%" stop-color="#ffb9b9" stop-opacity="1"/></linearGradient><linearGradient id="g-decisiono37upvcvsiqkt9" x1="0%" x2="100%" y1="0%" y2="0%" spreadMethod="pad"><stop offset="0%" stop-color="#ffd287" stop-opacity="1"/><stop offset="100%" stop-color="#ffffb9" stop-opacity="1"/></linearGradient><linearGradient id="g-processo37upvcvsiqkt9" x1="0%" x2="100%" y1="0%" y2="0%" spreadMethod="pad"><stop offset="0%" stop-color="#99ff99" stop-opacity="1"/><stop offset="100%" stop-color="#cbffcb" stop-opacity="1"/></linearGradient><linearGradient id="g-defaulto37upvcvsiqkt9" x1="0%" x2="100%" y1="0%" y2="0%" spreadMethod="pad"><stop offset="0%" stop-color="#99ff99" stop-opacity="1"/><stop offset="100%" stop-color="#cbffcb" stop-opacity="1"/></linearGradient><linearGradient id="g-moduleo37upvcvsiqkt9" x1="0%" x2="100%" y1="0%" y2="0%" spreadMethod="pad"><stop offset="0%" stop-color="#77c1e4" stop-opacity="1"/><stop offset="100%" stop-color="#a9f3ff" stop-opacity="1"/></linearGradient><linearGradient id="g-dataioo37upvcvsiqkt9" x1="0%" x2="100%" y1="0%" y2="0%" spreadMethod="pad"><stop offset="0%" stop-color="#bebebe" stop-opacity="1"/><stop offset="100%" stop-color="#f0f0f0" stop-opacity="1"/></linearGradient><linearGradient id="g-preparationo37upvcvsiqkt9" x1="0%" x2="100%" y1="0%" y2="0%" spreadMethod="pad"><stop offset="0%" stop-color="#bebebe" stop-opacity="1"/><stop offset="100%" stop-color="#f0f0f0" stop-opacity="1"/></linearGradient><linearGradient id="g-commento37upvcvsiqkt9" x1="0%" x2="100%" y1="0%" y2="0%" spreadMethod="pad"><stop offset="0%" stop-color="#f5f588" stop-opacity="1"/><stop offset="100%" stop-color="#ffffba" stop-opacity="1"/></linearGradient><linearGradient id="g-manualo37upvcvsiqkt9" x1="0%" x2="100%" y1="0%" y2="0%" spreadMethod="pad"><stop offset="0%" stop-color="#9e78ff" stop-opacity="1"/><stop offset="100%" stop-color="#d0aaff" stop-opacity="1"/></linearGradient><filter id="dropshadowo37upvcvsiqkt9" height="150%" width="150%"><feGaussianBlur in="SourceAlpha" stdDeviation="3"/><feOffset dx="2" dy="2" result="offsetblur"/><feComponentTransfer/><feMerge><feMergeNode/><feMergeNode in="SourceGraphic"/></feMerge></filter></defs><g id="flowo37upvcvsiqkt9" class="graph" transform="scale(0.615305 0.615305) rotate(0) translate(4 610)"><title>FlowChart</title><!-- terminator_block_1 --><g id="node1" class="node"><title>terminator_block_1</title><ellipse fill="url(#g-terminatoro37upvcvsiqkt9)" stroke="black" cx="755" cy="-588" rx="84.2684" ry="18"/><text xml:space="preserve" text-anchor="start" x="691.5" y="-585.5" font-family="Open Sans" font-size="10.00">function Check-Hibernate()</text></g><!-- ifs_block_2 --><g id="node2" class="node"><title>ifs_block_2</title><polygon fill="url(#g-decisiono37upvcvsiqkt9)" stroke="black" points="755,-538 550.809,-520 755,-502 959.191,-520 755,-538"/><text xml:space="preserve" text-anchor="start" x="640" y="-517.5" font-family="Open Sans" font-size="10.00">Check-AsmtString("&lt;HibernateDisabledBlock />")</text></g><!-- terminator_block_1&#45;&gt;ifs_block_2 --><g id="edge1" class="edge"><title>terminator_block_1->ifs_block_2</title><path fill="none" stroke="black" d="M755,-569.659C755,-563.193 755,-555.682 755,-548.525"/><polygon fill="black" stroke="black" points="758.5,-548.454 755,-538.454 751.5,-548.454 758.5,-548.454"/></g><!-- process_block_3 --><g id="node3" class="node"><title>process_block_3</title><polygon fill="url(#g-processo37upvcvsiqkt9)" stroke="black" points="805.25,-460 282.75,-460 282.75,-424 805.25,-424 805.25,-460"/><text xml:space="preserve" text-anchor="start" x="289.5" y="-439.5" font-family="Open Sans" font-size="10.00">$systemSupport = Get-ItemProperty -Path "HKLM:\System\ControlSet001\Control\Session Manager\power"</text></g><!-- ifs_block_2&#45;&gt;process_block_3 --><g id="edge2" class="edge"><title>ifs_block_2->process_block_3</title><path fill="none" stroke="black" d="M716.789,-505.237C684.521,-493.614 637.837,-476.799 601.127,-463.576"/><polygon fill="black" stroke="black" points="602.136,-460.22 591.542,-460.124 599.764,-466.806 602.136,-460.22"/><text xml:space="preserve" text-anchor="start" x="663" y="-479.5" font-family="Open Sans" font-weight="bold" font-size="10.00"> True </text><polyline fill="none" stroke="Black" points="693,-475.5 633.925,-475.5 "/></g><!-- process_block_8 --><g id="node8" class="node"><title>process_block_8</title><polygon fill="url(#g-processo37upvcvsiqkt9)" stroke="black" points="754,-110 700,-110 700,-74 754,-74 754,-110"/><text xml:space="preserve" text-anchor="start" x="717" y="-89.5" font-family="Open Sans" font-size="10.00">else</text></g><!-- ifs_block_2&#45;&gt;process_block_8 --><g id="edge9" class="edge"><title>ifs_block_2->process_block_8</title><path fill="none" stroke="black" d="M789.484,-504.821C813.41,-492.436 841,-471.892 841,-443 841,-443 841,-443 841,-159 841,-122.731 797.248,-106.07 763.953,-98.6415"/><polygon fill="black" stroke="black" points="764.513,-95.1838 754.016,-96.6212 763.119,-102.043 764.513,-95.1838"/><text xml:space="preserve" text-anchor="start" x="841" y="-294.5" font-family="Open Sans" font-weight="bold" font-size="10.00"> False </text><polyline fill="none" stroke="Black" points="872,-290.5 841,-290.5 "/></g><!-- ifs_block_4 --><g id="node4" class="node"><title>ifs_block_4</title><polygon fill="url(#g-decisiono37upvcvsiqkt9)" stroke="black" points="544,-392 391.98,-374 544,-356 696.02,-374 544,-392"/><text xml:space="preserve" text-anchor="start" x="460.5" y="-371.5" font-family="Open Sans" font-size="10.00">$systemSupport.HiberbootEnabled</text></g><!-- process_block_3&#45;&gt;ifs_block_4 --><g id="edge3" class="edge"><title>process_block_3->ifs_block_4</title><path fill="none" stroke="black" d="M544,-423.659C544,-417.193 544,-409.682 544,-402.525"/><polygon fill="black" stroke="black" points="547.5,-402.454 544,-392.454 540.5,-402.454 547.5,-402.454"/></g><!-- process_block_5 --><g id="node5" class="node"><title>process_block_5</title><polygon fill="url(#g-processo37upvcvsiqkt9)" stroke="black" points="608,-314 0,-314 0,-278 608,-278 608,-314"/><text xml:space="preserve" text-anchor="start" x="7" y="-299" font-family="Open Sans" font-size="10.00">Log-Txt "   -> CRITERIA MET: Assessment requires Hiberboot and Hiberboot is ENABLED on this system. Assessment will run"</text><text xml:space="preserve" text-anchor="start" x="274.5" y="-288" font-family="Open Sans" font-size="10.00">return $true</text></g><!-- ifs_block_4&#45;&gt;process_block_5 --><g id="edge4" class="edge"><title>ifs_block_4->process_block_5</title><path fill="none" stroke="black" d="M504.906,-360.62C467.736,-348.85 411.182,-330.941 367.536,-317.12"/><polygon fill="black" stroke="black" points="368.459,-313.741 357.869,-314.058 366.346,-320.414 368.459,-313.741"/><text xml:space="preserve" text-anchor="start" x="439" y="-333.5" font-family="Open Sans" font-weight="bold" font-size="10.00"> True </text><polyline fill="none" stroke="Black" points="469,-329.5 406.707,-329.5 "/></g><!-- process_block_6 --><g id="node6" class="node"><title>process_block_6</title><polygon fill="url(#g-processo37upvcvsiqkt9)" stroke="black" points="443,-246 389,-246 389,-210 443,-210 443,-246"/><text xml:space="preserve" text-anchor="start" x="406" y="-225.5" font-family="Open Sans" font-size="10.00">else</text></g><!-- ifs_block_4&#45;&gt;process_block_6 --><g id="edge6" class="edge"><title>ifs_block_4->process_block_6</title><path fill="none" stroke="black" d="M569.117,-358.846C598.842,-340.291 641.618,-306.728 619,-278 598.762,-252.296 506.175,-238.481 453.301,-232.567"/><polygon fill="black" stroke="black" points="453.607,-229.08 443.289,-231.488 452.857,-236.039 453.607,-229.08"/><text xml:space="preserve" text-anchor="start" x="626" y="-294.5" font-family="Open Sans" font-weight="bold" font-size="10.00"> False </text><polyline fill="none" stroke="Black" points="657,-290.5 624.881,-290.5 "/></g><!-- process_block_5&#45;&gt;process_block_6 --><g id="edge5" class="edge"><title>process_block_5->process_block_6</title><path fill="none" stroke="black" d="M333.134,-277.832C347.546,-269.339 365.07,-259.012 380.284,-250.047"/><polygon fill="black" stroke="black" points="382.095,-253.042 388.934,-244.95 378.541,-247.011 382.095,-253.042"/></g><!-- process_block_7 --><g id="node7" class="node"><title>process_block_7</title><polygon fill="url(#g-processo37upvcvsiqkt9)" stroke="black" points="805.5,-178 26.5,-178 26.5,-142 805.5,-142 805.5,-178"/><text xml:space="preserve" text-anchor="start" x="33" y="-163" font-family="Open Sans" font-size="10.00">Log-Txt "   -> MISSING CRITERIA: Assessment requires Hiberboot and Hiberboot is NOT enabled on this system. Hibernate-based assessments will be skipped"   </text><text xml:space="preserve" text-anchor="start" x="385" y="-152" font-family="Open Sans" font-size="10.00">return $false</text></g><!-- process_block_6&#45;&gt;process_block_7 --><g id="edge7" class="edge"><title>process_block_6->process_block_7</title><path fill="none" stroke="black" d="M416,-209.659C416,-203.193 416,-195.682 416,-188.525"/><polygon fill="black" stroke="black" points="419.5,-188.454 416,-178.454 412.5,-188.454 419.5,-188.454"/></g><!-- process_block_7&#45;&gt;process_block_8 --><g id="edge8" class="edge"><title>process_block_7->process_block_8</title><path fill="none" stroke="black" d="M496.495,-141.918C558.869,-128.68 642.416,-110.95 689.893,-100.875"/><polygon fill="black" stroke="black" points="690.684,-104.285 699.739,-98.7852 689.23,-97.4375 690.684,-104.285"/></g><!-- terminator_block_9 --><g id="node9" class="node"><title>terminator_block_9</title><ellipse fill="url(#g-terminatoro37upvcvsiqkt9)" stroke="black" cx="727" cy="-21" rx="219.366" ry="21.4286"/><text xml:space="preserve" text-anchor="start" x="579.5" y="-24" font-family="Open Sans" font-size="10.00">Log-Txt "   -> Assessment does NOT require Hibernate to run"</text><text xml:space="preserve" text-anchor="start" x="697.5" y="-13" font-family="Open Sans" font-size="10.00">return $true</text></g><!-- process_block_8&#45;&gt;terminator_block_9 --><g id="edge10" class="edge"><title>process_block_8->terminator_block_9</title><path fill="none" stroke="black" d="M727,-73.9438C727,-67.4338 727,-59.7993 727,-52.4177"/><polygon fill="black" stroke="black" points="730.5,-52.2941 727,-42.2942 723.5,-52.2942 730.5,-52.2941"/></g></g></svg>