<?xml version="1.0" encoding="UTF-8" standalone="no"?><!DOCTYPE svg PUBLIC "-//W3C//DTD SVG 1.1//EN" "http://www.w3.org/Graphics/SVG/1.1/DTD/svg11.dtd"><!-- Generated by graphviz version 2.35.0 (20140103.1005) --><!-- Title: FlowChart Pages: 1 --><svg width="600pt" height="212pt" viewBox="0.00 0.00 600 211.6" xmlns="http://www.w3.org/2000/svg" xmlns:xlink="http://www.w3.org/1999/xlink"><defs><linearGradient id="g-terminatorbqh13y3lb7f1or" x1="0%" x2="100%" y1="0%" y2="0%" spreadMethod="pad"><stop offset="0%" stop-color="#ff8787" stop-opacity="1"/><stop offset="100%" stop-color="#ffb9b9" stop-opacity="1"/></linearGradient><linearGradient id="g-decisionbqh13y3lb7f1or" x1="0%" x2="100%" y1="0%" y2="0%" spreadMethod="pad"><stop offset="0%" stop-color="#ffd287" stop-opacity="1"/><stop offset="100%" stop-color="#ffffb9" stop-opacity="1"/></linearGradient><linearGradient id="g-processbqh13y3lb7f1or" x1="0%" x2="100%" y1="0%" y2="0%" spreadMethod="pad"><stop offset="0%" stop-color="#99ff99" stop-opacity="1"/><stop offset="100%" stop-color="#cbffcb" stop-opacity="1"/></linearGradient><linearGradient id="g-defaultbqh13y3lb7f1or" x1="0%" x2="100%" y1="0%" y2="0%" spreadMethod="pad"><stop offset="0%" stop-color="#99ff99" stop-opacity="1"/><stop offset="100%" stop-color="#cbffcb" stop-opacity="1"/></linearGradient><linearGradient id="g-modulebqh13y3lb7f1or" x1="0%" x2="100%" y1="0%" y2="0%" spreadMethod="pad"><stop offset="0%" stop-color="#77c1e4" stop-opacity="1"/><stop offset="100%" stop-color="#a9f3ff" stop-opacity="1"/></linearGradient><linearGradient id="g-dataiobqh13y3lb7f1or" x1="0%" x2="100%" y1="0%" y2="0%" spreadMethod="pad"><stop offset="0%" stop-color="#bebebe" stop-opacity="1"/><stop offset="100%" stop-color="#f0f0f0" stop-opacity="1"/></linearGradient><linearGradient id="g-preparationbqh13y3lb7f1or" x1="0%" x2="100%" y1="0%" y2="0%" spreadMethod="pad"><stop offset="0%" stop-color="#bebebe" stop-opacity="1"/><stop offset="100%" stop-color="#f0f0f0" stop-opacity="1"/></linearGradient><linearGradient id="g-commentbqh13y3lb7f1or" x1="0%" x2="100%" y1="0%" y2="0%" spreadMethod="pad"><stop offset="0%" stop-color="#f5f588" stop-opacity="1"/><stop offset="100%" stop-color="#ffffba" stop-opacity="1"/></linearGradient><linearGradient id="g-manualbqh13y3lb7f1or" x1="0%" x2="100%" y1="0%" y2="0%" spreadMethod="pad"><stop offset="0%" stop-color="#9e78ff" stop-opacity="1"/><stop offset="100%" stop-color="#d0aaff" stop-opacity="1"/></linearGradient><filter id="dropshadowbqh13y3lb7f1or" height="150%" width="150%"><feGaussianBlur in="SourceAlpha" stdDeviation="3"/><feOffset dx="2" dy="2" result="offsetblur"/><feComponentTransfer/><feMerge><feMergeNode/><feMergeNode in="SourceGraphic"/></feMerge></filter></defs><g id="flowbqh13y3lb7f1or" class="graph" transform="scale(0.516493 0.516493) rotate(0) translate(4 396)"><title>FlowChart</title><!-- terminator_block_1 --><g id="node1" class="node"><title>terminator_block_1</title><ellipse fill="url(#g-terminatorbqh13y3lb7f1or)" stroke="black" cx="579" cy="-374" rx="91.3645" ry="18"/><text xml:space="preserve" text-anchor="start" x="509.5" y="-371.5" font-family="Open Sans" font-size="10.00">function Check-AsmtVersion()</text></g><!-- process_block_2 --><g id="node2" class="node"><title>process_block_2</title><polygon fill="url(#g-processbqh13y3lb7f1or)" stroke="black" points="731.25,-324 426.75,-324 426.75,-288 731.25,-288 731.25,-324"/><text xml:space="preserve" text-anchor="start" x="433.5" y="-303.5" font-family="Open Sans" font-size="10.00">$OSBuidNum = System.Environment OSVersion.Version.Build</text></g><!-- terminator_block_1&#45;&gt;process_block_2 --><g id="edge1" class="edge"><title>terminator_block_1->process_block_2</title><path fill="none" stroke="black" d="M579,-355.659C579,-349.193 579,-341.682 579,-334.525"/><polygon fill="black" stroke="black" points="582.5,-334.454 579,-324.454 575.5,-334.454 582.5,-334.454"/></g><!-- ifs_block_3 --><g id="node3" class="node"><title>ifs_block_3</title><polygon fill="url(#g-decisionbqh13y3lb7f1or)" stroke="black" points="579,-256 86.7441,-238 579,-220 1071.26,-238 579,-256"/><text xml:space="preserve" text-anchor="start" x="291" y="-235.5" font-family="Open Sans" font-size="10.00">($asmtPath.Contains("8.1") -and $OSBuidNum -ge "9600") -or (!($asmtPath.Contains("8.1")) -and $OSBuidNum -ge "9200")</text></g><!-- process_block_2&#45;&gt;ifs_block_3 --><g id="edge2" class="edge"><title>process_block_2->ifs_block_3</title><path fill="none" stroke="black" d="M579,-287.659C579,-281.193 579,-273.682 579,-266.525"/><polygon fill="black" stroke="black" points="582.5,-266.454 579,-256.454 575.5,-266.454 582.5,-266.454"/></g><!-- process_block_4 --><g id="node4" class="node"><title>process_block_4</title><polygon fill="url(#g-processbqh13y3lb7f1or)" stroke="black" points="599.5,-178 158.5,-178 158.5,-142 599.5,-142 599.5,-178"/><text xml:space="preserve" text-anchor="start" x="165" y="-163" font-family="Open Sans" font-size="10.00">Log-Txt "   -> CRITERIA MET: Test OS meets OS Version requirement. Assessment will run"</text><text xml:space="preserve" text-anchor="start" x="349.5" y="-152" font-family="Open Sans" font-size="10.00">return $true</text></g><!-- ifs_block_3&#45;&gt;process_block_4 --><g id="edge3" class="edge"><title>ifs_block_3->process_block_4</title><path fill="none" stroke="black" d="M538.044,-221.437C507.88,-209.974 466.549,-194.269 433.581,-181.741"/><polygon fill="black" stroke="black" points="434.672,-178.411 424.081,-178.131 432.185,-184.955 434.672,-178.411"/><text xml:space="preserve" text-anchor="start" x="491" y="-197.5" font-family="Open Sans" font-weight="bold" font-size="10.00"> True </text><polyline fill="none" stroke="Black" points="521,-193.5 466.342,-193.5 "/></g><!-- process_block_5 --><g id="node5" class="node"><title>process_block_5</title><polygon fill="url(#g-processbqh13y3lb7f1or)" stroke="black" points="599,-110 545,-110 545,-74 599,-74 599,-110"/><text xml:space="preserve" text-anchor="start" x="562" y="-89.5" font-family="Open Sans" font-size="10.00">else</text></g><!-- ifs_block_3&#45;&gt;process_block_5 --><g id="edge5" class="edge"><title>ifs_block_3->process_block_5</title><path fill="none" stroke="black" d="M591.617,-220.144C604.245,-201.121 620.529,-169.273 611,-142 608.01,-133.442 602.831,-125.261 597.206,-118.12"/><polygon fill="black" stroke="black" points="599.652,-115.594 590.502,-110.253 594.324,-120.134 599.652,-115.594"/><text xml:space="preserve" text-anchor="start" x="613" y="-158.5" font-family="Open Sans" font-weight="bold" font-size="10.00"> False </text><polyline fill="none" stroke="Black" points="644,-154.5 613.688,-154.5 "/></g><!-- process_block_4&#45;&gt;process_block_5 --><g id="edge4" class="edge"><title>process_block_4->process_block_5</title><path fill="none" stroke="black" d="M428.953,-141.918C462.168,-130.559 505.057,-115.893 535.176,-105.592"/><polygon fill="black" stroke="black" points="536.54,-108.825 544.869,-102.278 534.275,-102.202 536.54,-108.825"/></g><!-- terminator_block_6 --><g id="node6" class="node"><title>terminator_block_6</title><ellipse fill="url(#g-terminatorbqh13y3lb7f1or)" stroke="black" cx="572" cy="-21" rx="572.074" ry="21.4286"/><text xml:space="preserve" text-anchor="start" x="175.5" y="-24" font-family="Open Sans" font-size="10.00">Log-Txt "   -> MISSING CRITERIA: Assessment requires a different OS Build Number than found on target. Assessment isn't meant for this OS version and will NOT run"</text><text xml:space="preserve" text-anchor="start" x="541" y="-13" font-family="Open Sans" font-size="10.00">return $false</text></g><!-- process_block_5&#45;&gt;terminator_block_6 --><g id="edge6" class="edge"><title>process_block_5->terminator_block_6</title><path fill="none" stroke="black" d="M572,-73.9438C572,-67.4338 572,-59.7993 572,-52.4177"/><polygon fill="black" stroke="black" points="575.5,-52.2941 572,-42.2942 568.5,-52.2942 575.5,-52.2941"/></g></g></svg>