<?xml version="1.0" encoding="UTF-8" standalone="no"?><!DOCTYPE svg PUBLIC "-//W3C//DTD SVG 1.1//EN" "http://www.w3.org/Graphics/SVG/1.1/DTD/svg11.dtd"><!-- Generated by graphviz version 2.35.0 (20140103.1005) --><!-- Title: FlowChart Pages: 1 --><svg width="600pt" height="656pt" viewBox="0.00 0.00 600 656.3" xmlns="http://www.w3.org/2000/svg" xmlns:xlink="http://www.w3.org/1999/xlink"><defs><linearGradient id="g-terminator927u0tjgs3jtt9" x1="0%" x2="100%" y1="0%" y2="0%" spreadMethod="pad"><stop offset="0%" stop-color="#ff8787" stop-opacity="1"/><stop offset="100%" stop-color="#ffb9b9" stop-opacity="1"/></linearGradient><linearGradient id="g-decision927u0tjgs3jtt9" x1="0%" x2="100%" y1="0%" y2="0%" spreadMethod="pad"><stop offset="0%" stop-color="#ffd287" stop-opacity="1"/><stop offset="100%" stop-color="#ffffb9" stop-opacity="1"/></linearGradient><linearGradient id="g-process927u0tjgs3jtt9" x1="0%" x2="100%" y1="0%" y2="0%" spreadMethod="pad"><stop offset="0%" stop-color="#99ff99" stop-opacity="1"/><stop offset="100%" stop-color="#cbffcb" stop-opacity="1"/></linearGradient><linearGradient id="g-default927u0tjgs3jtt9" x1="0%" x2="100%" y1="0%" y2="0%" spreadMethod="pad"><stop offset="0%" stop-color="#99ff99" stop-opacity="1"/><stop offset="100%" stop-color="#cbffcb" stop-opacity="1"/></linearGradient><linearGradient id="g-module927u0tjgs3jtt9" x1="0%" x2="100%" y1="0%" y2="0%" spreadMethod="pad"><stop offset="0%" stop-color="#77c1e4" stop-opacity="1"/><stop offset="100%" stop-color="#a9f3ff" stop-opacity="1"/></linearGradient><linearGradient id="g-dataio927u0tjgs3jtt9" x1="0%" x2="100%" y1="0%" y2="0%" spreadMethod="pad"><stop offset="0%" stop-color="#bebebe" stop-opacity="1"/><stop offset="100%" stop-color="#f0f0f0" stop-opacity="1"/></linearGradient><linearGradient id="g-preparation927u0tjgs3jtt9" x1="0%" x2="100%" y1="0%" y2="0%" spreadMethod="pad"><stop offset="0%" stop-color="#bebebe" stop-opacity="1"/><stop offset="100%" stop-color="#f0f0f0" stop-opacity="1"/></linearGradient><linearGradient id="g-comment927u0tjgs3jtt9" x1="0%" x2="100%" y1="0%" y2="0%" spreadMethod="pad"><stop offset="0%" stop-color="#f5f588" stop-opacity="1"/><stop offset="100%" stop-color="#ffffba" stop-opacity="1"/></linearGradient><linearGradient id="g-manual927u0tjgs3jtt9" x1="0%" x2="100%" y1="0%" y2="0%" spreadMethod="pad"><stop offset="0%" stop-color="#9e78ff" stop-opacity="1"/><stop offset="100%" stop-color="#d0aaff" stop-opacity="1"/></linearGradient><filter id="dropshadow927u0tjgs3jtt9" height="150%" width="150%"><feGaussianBlur in="SourceAlpha" stdDeviation="3"/><feOffset dx="2" dy="2" result="offsetblur"/><feComponentTransfer/><feMerge><feMergeNode/><feMergeNode in="SourceGraphic"/></feMerge></filter></defs><g id="flow927u0tjgs3jtt9" class="graph" transform="scale(0.433042 0.433042) rotate(0) translate(4 1500)"><title>FlowChart</title><!-- terminator_block_1 --><g id="node1" class="node"><title>terminator_block_1</title><ellipse fill="url(#g-terminator927u0tjgs3jtt9)" stroke="black" cx="1116" cy="-1478" rx="90.4808" ry="18"/><text xml:space="preserve" text-anchor="start" x="1047" y="-1475.5" font-family="Open Sans" font-size="10.00">function Check-AsmtResults()</text></g><!-- process_block_2 --><g id="node2" class="node"><title>process_block_2</title><polygon fill="url(#g-process927u0tjgs3jtt9)" stroke="black" points="1298.25,-1428 933.75,-1428 933.75,-1374 1298.25,-1374 1298.25,-1428"/><text xml:space="preserve" text-anchor="start" x="1093.5" y="-1414" font-family="Open Sans" font-size="10.00">Log-Txt "</text><text xml:space="preserve" text-anchor="start" x="1134.5" y="-1414" font-family="Open Sans" font-style="italic" font-size="10.00">"</text><text xml:space="preserve" text-anchor="start" x="965.5" y="-1404" font-family="Open Sans" font-style="italic" font-size="10.00">Log-Txt "...Checking Assessment results via Exit Code in results file"</text><text xml:space="preserve" text-anchor="start" x="1090" y="-1394" font-family="Open Sans" font-style="italic" font-size="10.00">Log-Txt "</text><text xml:space="preserve" text-anchor="start" x="1129" y="-1394" font-family="Open Sans" font-style="italic" font-size="10.00">"   </text><text xml:space="preserve" text-anchor="start" x="940.5" y="-1384" font-family="Open Sans" font-style="italic" font-size="10.00">$jobString = Select-String $pathToFile -pattern ".\results" -SimpleMatch -quiet</text></g><!-- terminator_block_1&#45;&gt;process_block_2 --><g id="edge1" class="edge"><title>terminator_block_1->process_block_2</title><path fill="none" stroke="black" d="M1116,-1459.98C1116,-1453.5 1116,-1445.85 1116,-1438.26"/><polygon fill="black" stroke="black" points="1119.5,-1438.08 1116,-1428.08 1112.5,-1438.08 1119.5,-1438.08"/></g><!-- ifs_block_3 --><g id="node3" class="node"><title>ifs_block_3</title><polygon fill="url(#g-decision927u0tjgs3jtt9)" stroke="black" points="1116,-1342 1063.08,-1324 1116,-1306 1168.92,-1324 1116,-1342"/><text xml:space="preserve" text-anchor="start" x="1092" y="-1321.5" font-family="Open Sans" font-size="10.00">$jobString</text></g><!-- process_block_2&#45;&gt;ifs_block_3 --><g id="edge2" class="edge"><title>process_block_2->ifs_block_3</title><path fill="none" stroke="black" d="M1116,-1373.77C1116,-1366.89 1116,-1359.46 1116,-1352.52"/><polygon fill="black" stroke="black" points="1119.5,-1352.17 1116,-1342.17 1112.5,-1352.17 1119.5,-1352.17"/></g><!-- process_block_4 --><g id="node4" class="node"><title>process_block_4</title><polygon fill="url(#g-process927u0tjgs3jtt9)" stroke="black" points="1105.5,-1264 910.5,-1264 910.5,-1228 1105.5,-1228 1105.5,-1264"/><text xml:space="preserve" text-anchor="start" x="917" y="-1243.5" font-family="Open Sans" font-size="10.00">$resultsPath = $asmtPath + "\results"</text></g><!-- ifs_block_3&#45;&gt;process_block_4 --><g id="edge3" class="edge"><title>ifs_block_3->process_block_4</title><path fill="none" stroke="black" d="M1099.6,-1311.46C1083.97,-1300.46 1060.01,-1283.6 1040.51,-1269.88"/><polygon fill="black" stroke="black" points="1042.38,-1266.91 1032.19,-1264.02 1038.35,-1272.64 1042.38,-1266.91"/><text xml:space="preserve" text-anchor="start" x="1069" y="-1283.5" font-family="Open Sans" font-weight="bold" font-size="10.00"> True </text><polyline fill="none" stroke="Black" points="1099,-1279.5 1053.81,-1279.5 "/></g><!-- ifs_block_5 --><g id="node5" class="node"><title>ifs_block_5</title><polygon fill="url(#g-decision927u0tjgs3jtt9)" stroke="black" points="1109,-1196 851.638,-1178 1109,-1160 1366.36,-1178 1109,-1196"/><text xml:space="preserve" text-anchor="start" x="962.5" y="-1175.5" font-family="Open Sans" font-size="10.00">(Test-Path $resultsPath) -and (Test-Path $logpath\Temp\job*</text></g><!-- ifs_block_3&#45;&gt;ifs_block_5 --><g id="edge5" class="edge"><title>ifs_block_3->ifs_block_5</title><path fill="none" stroke="black" d="M1116.72,-1306.16C1117.36,-1287.15 1117.94,-1255.31 1116,-1228 1115.49,-1220.86 1114.57,-1213.18 1113.57,-1206.06"/><polygon fill="black" stroke="black" points="1117.03,-1205.53 1112.06,-1196.17 1110.1,-1206.58 1117.03,-1205.53"/><text xml:space="preserve" text-anchor="start" x="1118" y="-1244.5" font-family="Open Sans" font-weight="bold" font-size="10.00"> False </text><polyline fill="none" stroke="Black" points="1149,-1240.5 1116.73,-1240.5 "/></g><!-- process_block_4&#45;&gt;ifs_block_5 --><g id="edge4" class="edge"><title>process_block_4->ifs_block_5</title><path fill="none" stroke="black" d="M1034.27,-1227.83C1047.22,-1219.37 1062.95,-1209.09 1076.63,-1200.15"/><polygon fill="black" stroke="black" points="1078.82,-1202.9 1085.28,-1194.5 1074.99,-1197.04 1078.82,-1202.9"/></g><!-- process_block_6 --><g id="node6" class="node"><title>process_block_6</title><polygon fill="url(#g-process927u0tjgs3jtt9)" stroke="black" points="1088,-1118 1034,-1118 1034,-1082 1088,-1082 1088,-1118"/><text xml:space="preserve" text-anchor="start" x="1059.5" y="-1097.5" font-family="Open Sans" font-size="10.00">)</text></g><!-- ifs_block_5&#45;&gt;process_block_6 --><g id="edge6" class="edge"><title>ifs_block_5->process_block_6</title><path fill="none" stroke="black" d="M1096.72,-1160.62C1093.15,-1155.68 1089.32,-1150.18 1086,-1145 1082.39,-1139.37 1078.72,-1133.2 1075.34,-1127.3"/><polygon fill="black" stroke="black" points="1078.27,-1125.38 1070.32,-1118.39 1072.17,-1128.82 1078.27,-1125.38"/><text xml:space="preserve" text-anchor="start" x="1086" y="-1137.5" font-family="Open Sans" font-weight="bold" font-size="10.00"> False </text><polyline fill="none" stroke="Black" points="1117,-1133.5 1079.25,-1133.5 "/></g><!-- process_block_7 --><g id="node7" class="node"><title>process_block_7</title><polygon fill="url(#g-process927u0tjgs3jtt9)" stroke="black" points="1303.5,-1050 912.5,-1050 912.5,-1014 1303.5,-1014 1303.5,-1050"/><text xml:space="preserve" text-anchor="start" x="919" y="-1035" font-family="Open Sans" font-size="10.00">Log-Txt "...Didn't find $resultsPath. Trying to find results at $logpath\temp\job</text><text xml:space="preserve" text-anchor="start" x="1293" y="-1035" font-family="Open Sans" font-style="italic" font-size="10.00">"</text><text xml:space="preserve" text-anchor="start" x="1011" y="-1025" font-family="Open Sans" font-style="italic" font-size="10.00">$resultsPath = $logpath + "\Temp"            </text></g><!-- ifs_block_5&#45;&gt;process_block_7 --><g id="edge8" class="edge"><title>ifs_block_5->process_block_7</title><path fill="none" stroke="black" d="M1114.64,-1160.24C1116.03,-1155.38 1117.31,-1150.03 1118,-1145 1121.98,-1116.12 1117.92,-1082.82 1113.84,-1060.08"/><polygon fill="black" stroke="black" points="1117.25,-1059.3 1111.93,-1050.13 1110.37,-1060.62 1117.25,-1059.3"/><text xml:space="preserve" text-anchor="start" x="1120" y="-1098.5" font-family="Open Sans" font-weight="bold" font-size="10.00"> True </text><polyline fill="none" stroke="Black" points="1150,-1094.5 1118.51,-1094.5 "/></g><!-- process_block_6&#45;&gt;process_block_7 --><g id="edge7" class="edge"><title>process_block_6->process_block_7</title><path fill="none" stroke="black" d="M1073.35,-1081.66C1078.27,-1074.74 1084.05,-1066.63 1089.46,-1059.03"/><polygon fill="black" stroke="black" points="1092.62,-1060.63 1095.57,-1050.45 1086.92,-1056.57 1092.62,-1060.63"/></g><!-- process_block_8 --><g id="node8" class="node"><title>process_block_8</title><polygon fill="url(#g-process927u0tjgs3jtt9)" stroke="black" points="1214.25,-982 1001.75,-982 1001.75,-946 1214.25,-946 1214.25,-982"/><text xml:space="preserve" text-anchor="start" x="1008.5" y="-961.5" font-family="Open Sans" font-size="10.00">Log-Txt "...Checking for valid results path"</text></g><!-- process_block_7&#45;&gt;process_block_8 --><g id="edge9" class="edge"><title>process_block_7->process_block_8</title><path fill="none" stroke="black" d="M1108,-1013.66C1108,-1007.19 1108,-999.682 1108,-992.525"/><polygon fill="black" stroke="black" points="1111.5,-992.454 1108,-982.454 1104.5,-992.454 1111.5,-992.454"/></g><!-- ifs_block_9 --><g id="node9" class="node"><title>ifs_block_9</title><polygon fill="url(#g-decision927u0tjgs3jtt9)" stroke="black" points="1108,-914 1043.85,-896 1108,-878 1172.15,-896 1108,-914"/><text xml:space="preserve" text-anchor="start" x="1077.5" y="-893.5" font-family="Open Sans" font-size="10.00">$resultsPath</text></g><!-- process_block_8&#45;&gt;ifs_block_9 --><g id="edge10" class="edge"><title>process_block_8->ifs_block_9</title><path fill="none" stroke="black" d="M1108,-945.659C1108,-939.193 1108,-931.682 1108,-924.525"/><polygon fill="black" stroke="black" points="1111.5,-924.454 1108,-914.454 1104.5,-924.454 1111.5,-924.454"/></g><!-- process_block_10 --><g id="node10" class="node"><title>process_block_10</title><polygon fill="url(#g-process927u0tjgs3jtt9)" stroke="black" points="1023,-836 611,-836 611,-792 1023,-792 1023,-836"/><text xml:space="preserve" text-anchor="start" x="700.5" y="-822" font-family="Open Sans" font-size="10.00">Log-Txt "   -> Results path found at $resultsPath"</text><text xml:space="preserve" text-anchor="start" x="699.5" y="-812" font-family="Open Sans" font-size="10.00">Remove-Item -Path $solomonPath</text><text xml:space="preserve" text-anchor="start" x="862.5" y="-812" font-family="Open Sans" font-style="italic" font-size="10.00"> -Force -Recurse</text><text xml:space="preserve" text-anchor="start" x="618" y="-802" font-family="Open Sans" font-style="italic" font-size="10.00">Copy-Item -Path $resultsPath\JobResults</text><text xml:space="preserve" text-anchor="start" x="800" y="-802" font-family="Open Sans" font-size="10.00"> -Destination $solomonPath -Recurse -Force*</text></g><!-- ifs_block_9&#45;&gt;process_block_10 --><g id="edge11" class="edge"><title>ifs_block_9->process_block_10</title><path fill="none" stroke="black" d="M1077.13,-886.514C1036.05,-875.22 961.761,-854.797 903.059,-838.659"/><polygon fill="black" stroke="black" points="903.979,-835.282 893.409,-836.006 902.123,-842.032 903.979,-835.282"/><text xml:space="preserve" text-anchor="start" x="989" y="-855.5" font-family="Open Sans" font-weight="bold" font-size="10.00"> True </text><polyline fill="none" stroke="Black" points="1019,-851.5 949.246,-851.5 "/></g><!-- terminator_block_21 --><g id="node21" class="node"><title>terminator_block_21</title><ellipse fill="url(#g-terminator927u0tjgs3jtt9)" stroke="black" cx="1205" cy="-814" rx="158.409" ry="18"/><text xml:space="preserve" text-anchor="start" x="1078" y="-811.5" font-family="Open Sans" font-size="10.00">Log-Txt "    -> No results path found at: $resultsPath"</text></g><!-- ifs_block_9&#45;&gt;terminator_block_21 --><g id="edge23" class="edge"><title>ifs_block_9->terminator_block_21</title><path fill="none" stroke="black" d="M1123.58,-882.147C1137.76,-870.456 1159.04,-852.907 1176.29,-838.682"/><polygon fill="black" stroke="black" points="1178.89,-841.069 1184.38,-832.006 1174.44,-835.668 1178.89,-841.069"/><text xml:space="preserve" text-anchor="start" x="1160" y="-855.5" font-family="Open Sans" font-weight="bold" font-size="10.00"> False </text><polyline fill="none" stroke="Black" points="1191,-851.5 1161.02,-851.5 "/></g><!-- ifs_block_11 --><g id="node11" class="node"><title>ifs_block_11</title><polygon fill="url(#g-decision927u0tjgs3jtt9)" stroke="black" points="817,-760 691.44,-742 817,-724 942.56,-742 817,-760"/><text xml:space="preserve" text-anchor="start" x="749.5" y="-739.5" font-family="Open Sans" font-size="10.00">Test-Path $resultsPath\job*</text></g><!-- process_block_10&#45;&gt;ifs_block_11 --><g id="edge12" class="edge"><title>process_block_10->ifs_block_11</title><path fill="none" stroke="black" d="M817,-791.998C817,-785.179 817,-777.512 817,-770.303"/><polygon fill="black" stroke="black" points="820.5,-770.222 817,-760.222 813.5,-770.222 820.5,-770.222"/></g><!-- process_block_12 --><g id="node12" class="node"><title>process_block_12</title><polygon fill="url(#g-process927u0tjgs3jtt9)" stroke="black" points="740,-682 300,-682 300,-588 740,-588 740,-682"/><text xml:space="preserve" text-anchor="start" x="412.5" y="-668" font-family="Open Sans" font-size="10.00">$results = gci $resultsPath\job</text><text xml:space="preserve" text-anchor="start" x="559.5" y="-668" font-family="Open Sans" font-style="italic" font-size="10.00"> | select -last 1</text><text xml:space="preserve" text-anchor="start" x="412.5" y="-658" font-family="Open Sans" font-style="italic" font-size="10.00">Log-Txt "...Checking results located at: $results"</text><text xml:space="preserve" text-anchor="start" x="354" y="-648" font-family="Open Sans" font-style="italic" font-size="10.00">$resultsFullString = Select-String $results\job</text><text xml:space="preserve" text-anchor="start" x="556" y="-648" font-family="Open Sans" font-size="10.00">.xml -pattern "&lt;ExitCode>" </text><text xml:space="preserve" text-anchor="start" x="311" y="-638" font-family="Open Sans" font-size="10.00">$errorAndWarning = Get-ChildItem -path $resultsPath -Recurse errors</text><text xml:space="preserve" text-anchor="start" x="644" y="-638" font-family="Open Sans" font-style="italic" font-size="10.00">.xml | Get-Content</text><text xml:space="preserve" text-anchor="start" x="307" y="-628" font-family="Open Sans" font-style="italic" font-size="10.00">$passFile = "PASS_" + $env:COMPUTERNAME + "_" + (get-date).tostring("yyyyMMddHH") + ".txt"</text><text xml:space="preserve" text-anchor="start" x="311" y="-618" font-family="Open Sans" font-style="italic" font-size="10.00">$failFile = "FAIL_" + $env:COMPUTERNAME + "_" + (get-date).tostring("yyyyMMddHH") + ".txt"</text><text xml:space="preserve" text-anchor="start" x="459.5" y="-608" font-family="Open Sans" font-style="italic" font-size="10.00">$failFileSimple = "FAIL.txt"</text><text xml:space="preserve" text-anchor="start" x="440" y="-598" font-family="Open Sans" font-style="italic" font-size="10.00">foreach ($line in $resultsFullString)</text></g><!-- ifs_block_11&#45;&gt;process_block_12 --><g id="edge13" class="edge"><title>ifs_block_11->process_block_12</title><path fill="none" stroke="black" d="M782.64,-728.853C752.133,-718.067 705.444,-701.561 659.846,-685.44"/><polygon fill="black" stroke="black" points="660.733,-682.042 650.139,-682.009 658.4,-688.642 660.733,-682.042"/><text xml:space="preserve" text-anchor="start" x="721" y="-701.5" font-family="Open Sans" font-weight="bold" font-size="10.00"> True </text><polyline fill="none" stroke="Black" points="751,-697.5 693.979,-697.5 "/></g><!-- terminator_block_20 --><g id="node20" class="node"><title>terminator_block_20</title><ellipse fill="url(#g-terminator927u0tjgs3jtt9)" stroke="black" cx="917" cy="-635" rx="153.461" ry="18"/><text xml:space="preserve" text-anchor="start" x="794.5" y="-633.5" font-family="Open Sans" font-size="10.00">Log-Txt "    -> Didn't find the path $resultsPath\job</text><text xml:space="preserve" text-anchor="start" x="1035.5" y="-633.5" font-family="Open Sans" font-style="italic" font-size="10.00">"</text></g><!-- ifs_block_11&#45;&gt;terminator_block_20 --><g id="edge22" class="edge"><title>ifs_block_11->terminator_block_20</title><path fill="none" stroke="black" d="M831.328,-725.956C847.609,-708.86 874.422,-680.707 893.718,-660.447"/><polygon fill="black" stroke="black" points="896.345,-662.763 900.707,-653.107 891.276,-657.935 896.345,-662.763"/><text xml:space="preserve" text-anchor="start" x="859" y="-701.5" font-family="Open Sans" font-weight="bold" font-size="10.00"> False </text><polyline fill="none" stroke="Black" points="890,-697.5 859.307,-697.5 "/></g><!-- ifs_block_13 --><g id="node13" class="node"><title>ifs_block_13</title><polygon fill="url(#g-decision927u0tjgs3jtt9)" stroke="black" points="520,-556 402.927,-538 520,-520 637.073,-538 520,-556"/><text xml:space="preserve" text-anchor="start" x="457.5" y="-535.5" font-family="Open Sans" font-size="10.00">$line -match "&lt;ExitCode>"</text></g><!-- process_block_12&#45;&gt;ifs_block_13 --><g id="edge14" class="edge"><title>process_block_12->ifs_block_13</title><path fill="none" stroke="black" d="M520,-587.891C520,-580.446 520,-572.954 520,-566.15"/><polygon fill="black" stroke="black" points="523.5,-566.128 520,-556.128 516.5,-566.128 523.5,-566.128"/></g><!-- process_block_14 --><g id="node14" class="node"><title>process_block_14</title><polygon fill="url(#g-process927u0tjgs3jtt9)" stroke="black" points="408.25,-478 179.75,-478 179.75,-442 408.25,-442 408.25,-478"/><text xml:space="preserve" text-anchor="start" x="186.5" y="-457.5" font-family="Open Sans" font-size="10.00">Log-Txt "   -> Line contains &lt;exitcode>, $line"</text></g><!-- ifs_block_13&#45;&gt;process_block_14 --><g id="edge15" class="edge"><title>ifs_block_13->process_block_14</title><path fill="none" stroke="black" d="M485.183,-525.292C450.377,-513.587 396.161,-495.355 354.34,-481.291"/><polygon fill="black" stroke="black" points="355.402,-477.956 344.808,-478.086 353.171,-484.591 355.402,-477.956"/><text xml:space="preserve" text-anchor="start" x="421" y="-497.5" font-family="Open Sans" font-weight="bold" font-size="10.00"> True </text><polyline fill="none" stroke="Black" points="451,-493.5 391.86,-493.5 "/></g><!-- terminator_block_19 --><g id="node19" class="node"><title>terminator_block_19</title><ellipse fill="url(#g-terminator927u0tjgs3jtt9)" stroke="black" cx="596" cy="-460" rx="164.239" ry="18"/><text xml:space="preserve" text-anchor="start" x="464" y="-457.5" font-family="Open Sans" font-size="10.00">Log-Txt "    ->Didn't find exit code in this line of results"</text></g><!-- ifs_block_13&#45;&gt;terminator_block_19 --><g id="edge21" class="edge"><title>ifs_block_13->terminator_block_19</title><path fill="none" stroke="black" d="M535.015,-521.985C545.476,-511.524 559.659,-497.341 571.714,-485.286"/><polygon fill="black" stroke="black" points="574.298,-487.652 578.894,-478.106 569.348,-482.702 574.298,-487.652"/><text xml:space="preserve" text-anchor="start" x="563" y="-497.5" font-family="Open Sans" font-weight="bold" font-size="10.00"> False </text><polyline fill="none" stroke="Black" points="594,-493.5 563.559,-493.5 "/></g><!-- ifs_block_15 --><g id="node15" class="node"><title>ifs_block_15</title><polygon fill="url(#g-decision927u0tjgs3jtt9)" stroke="black" points="294,-410 128.5,-392 294,-374 459.5,-392 294,-410"/><text xml:space="preserve" text-anchor="start" x="202.5" y="-389.5" font-family="Open Sans" font-size="10.00">$line -match "&lt;ExitCode>0&lt;/ExitCode"</text></g><!-- process_block_14&#45;&gt;ifs_block_15 --><g id="edge16" class="edge"><title>process_block_14->ifs_block_15</title><path fill="none" stroke="black" d="M294,-441.659C294,-435.193 294,-427.682 294,-420.525"/><polygon fill="black" stroke="black" points="297.5,-420.454 294,-410.454 290.5,-420.454 297.5,-420.454"/></g><!-- process_block_16 --><g id="node16" class="node"><title>process_block_16</title><polygon fill="url(#g-process927u0tjgs3jtt9)" stroke="black" points="296.25,-331.5 -0.25,-331.5 -0.25,-262.5 296.25,-262.5 296.25,-331.5"/><text xml:space="preserve" text-anchor="start" x="6.5" y="-316.5" font-family="Open Sans" font-size="10.00">Log-Txt "...PASS Result: Results at location $results is PASS"</text><text xml:space="preserve" text-anchor="start" x="41.5" y="-305.5" font-family="Open Sans" font-size="10.00">Log-Txt "   -> Writing $resultsPath\$passFile"</text><text xml:space="preserve" text-anchor="start" x="51" y="-294.5" font-family="Open Sans" font-size="10.00">Log-Txt "   -> Writing $logpath\$passFile"</text><text xml:space="preserve" text-anchor="start" x="32" y="-283.5" font-family="Open Sans" font-size="10.00">$line | Out-File $resultsPath\$passFile -Append </text><text xml:space="preserve" text-anchor="start" x="43" y="-272.5" font-family="Open Sans" font-size="10.00">$line | Out-File $logpath\$passFile -Append</text></g><!-- ifs_block_15&#45;&gt;process_block_16 --><g id="edge17" class="edge"><title>ifs_block_15->process_block_16</title><path fill="none" stroke="black" d="M271.188,-376.469C254.549,-365.87 231.169,-350.977 209.242,-337.01"/><polygon fill="black" stroke="black" points="210.921,-333.93 200.606,-331.509 207.16,-339.834 210.921,-333.93"/><text xml:space="preserve" text-anchor="start" x="243" y="-351.5" font-family="Open Sans" font-weight="bold" font-size="10.00"> True </text><polyline fill="none" stroke="Black" points="273,-347.5 225.832,-347.5 "/></g><!-- ifs_block_17 --><g id="node17" class="node"><title>ifs_block_17</title><polygon fill="url(#g-decision927u0tjgs3jtt9)" stroke="black" points="287,-230 108.52,-212 287,-194 465.48,-212 287,-230"/><text xml:space="preserve" text-anchor="start" x="187.5" y="-209.5" font-family="Open Sans" font-size="10.00">$line -notmatch "&lt;ExitCode>0&lt;/ExitCode"</text></g><!-- ifs_block_15&#45;&gt;ifs_block_17 --><g id="edge19" class="edge"><title>ifs_block_15->ifs_block_17</title><path fill="none" stroke="black" d="M298.82,-374.155C305.205,-349.382 314.802,-301.758 307,-262 305.467,-254.19 302.682,-246.054 299.667,-238.709"/><polygon fill="black" stroke="black" points="302.748,-237.022 295.51,-229.285 296.344,-239.847 302.748,-237.022"/><text xml:space="preserve" text-anchor="start" x="310" y="-295.5" font-family="Open Sans" font-weight="bold" font-size="10.00"> False </text><polyline fill="none" stroke="Black" points="341,-291.5 309.884,-291.5 "/></g><!-- process_block_16&#45;&gt;ifs_block_17 --><g id="edge18" class="edge"><title>process_block_16->ifs_block_17</title><path fill="none" stroke="black" d="M204.136,-262.48C220.983,-252.42 238.919,-241.71 253.78,-232.837"/><polygon fill="black" stroke="black" points="255.806,-235.703 262.598,-227.571 252.218,-229.693 255.806,-235.703"/></g><!-- terminator_block_18 --><g id="node18" class="node"><title>terminator_block_18</title><ellipse fill="url(#g-terminator927u0tjgs3jtt9)" stroke="black" cx="287" cy="-76" rx="207.274" ry="75.8212"/><text xml:space="preserve" text-anchor="start" x="148.5" y="-117.5" font-family="Open Sans" font-size="10.00">Log-Txt "...FAIL Result: Results at location $results is FAIL"</text><text xml:space="preserve" text-anchor="start" x="169" y="-106.5" font-family="Open Sans" font-size="10.00">Log-Txt "   -> Didn't find &lt;ExitCode>0&lt;/ExitCode>"</text><text xml:space="preserve" text-anchor="start" x="224.5" y="-95.5" font-family="Open Sans" font-size="10.00">Log-Txt "   -> Found: $line"</text><text xml:space="preserve" text-anchor="start" x="184" y="-84.5" font-family="Open Sans" font-size="10.00">Log-Txt "   -> Writing $resultsPath\$failFile"</text><text xml:space="preserve" text-anchor="start" x="193.5" y="-73.5" font-family="Open Sans" font-size="10.00">Log-Txt "   -> Writing $logpath\$failFile"</text><text xml:space="preserve" text-anchor="start" x="176" y="-62.5" font-family="Open Sans" font-size="10.00">$line | Out-File $resultsPath\$failFile -Append</text><text xml:space="preserve" text-anchor="start" x="185.5" y="-51.5" font-family="Open Sans" font-size="10.00">$line | Out-File $logpath\$failFile -Append</text><text xml:space="preserve" text-anchor="start" x="160" y="-40.5" font-family="Open Sans" font-size="10.00">$line | Out-File $resultsPath\$failFileSimple -Append</text><text xml:space="preserve" text-anchor="start" x="169.5" y="-29.5" font-family="Open Sans" font-size="10.00">$line | Out-File $logpath\$failFileSimple -Append</text></g><!-- ifs_block_17&#45;&gt;terminator_block_18 --><g id="edge20" class="edge"><title>ifs_block_17->terminator_block_18</title><path fill="none" stroke="black" d="M287,-193.756C287,-185.141 287,-174.012 287,-162.054"/><polygon fill="black" stroke="black" points="290.5,-161.851 287,-151.851 283.5,-161.851 290.5,-161.851"/><text xml:space="preserve" text-anchor="start" x="287" y="-171.5" font-family="Open Sans" font-weight="bold" font-size="10.00"> True </text><polyline fill="none" stroke="Black" points="317,-167.5 287,-167.5 "/></g></g></svg>