<?xml version="1.0" encoding="UTF-8" standalone="no"?><!DOCTYPE svg PUBLIC "-//W3C//DTD SVG 1.1//EN" "http://www.w3.org/Graphics/SVG/1.1/DTD/svg11.dtd"><!-- Generated by graphviz version 2.35.0 (20140103.1005) --><!-- Title: FlowChart Pages: 1 --><svg width="600pt" height="314pt" viewBox="0.00 0.00 600 313.6" xmlns="http://www.w3.org/2000/svg" xmlns:xlink="http://www.w3.org/1999/xlink"><defs><linearGradient id="g-terminatorudb0fvw0qw7b9" x1="0%" x2="100%" y1="0%" y2="0%" spreadMethod="pad"><stop offset="0%" stop-color="#ff8787" stop-opacity="1"/><stop offset="100%" stop-color="#ffb9b9" stop-opacity="1"/></linearGradient><linearGradient id="g-decisionudb0fvw0qw7b9" x1="0%" x2="100%" y1="0%" y2="0%" spreadMethod="pad"><stop offset="0%" stop-color="#ffd287" stop-opacity="1"/><stop offset="100%" stop-color="#ffffb9" stop-opacity="1"/></linearGradient><linearGradient id="g-processudb0fvw0qw7b9" x1="0%" x2="100%" y1="0%" y2="0%" spreadMethod="pad"><stop offset="0%" stop-color="#99ff99" stop-opacity="1"/><stop offset="100%" stop-color="#cbffcb" stop-opacity="1"/></linearGradient><linearGradient id="g-defaultudb0fvw0qw7b9" x1="0%" x2="100%" y1="0%" y2="0%" spreadMethod="pad"><stop offset="0%" stop-color="#99ff99" stop-opacity="1"/><stop offset="100%" stop-color="#cbffcb" stop-opacity="1"/></linearGradient><linearGradient id="g-moduleudb0fvw0qw7b9" x1="0%" x2="100%" y1="0%" y2="0%" spreadMethod="pad"><stop offset="0%" stop-color="#77c1e4" stop-opacity="1"/><stop offset="100%" stop-color="#a9f3ff" stop-opacity="1"/></linearGradient><linearGradient id="g-dataioudb0fvw0qw7b9" x1="0%" x2="100%" y1="0%" y2="0%" spreadMethod="pad"><stop offset="0%" stop-color="#bebebe" stop-opacity="1"/><stop offset="100%" stop-color="#f0f0f0" stop-opacity="1"/></linearGradient><linearGradient id="g-preparationudb0fvw0qw7b9" x1="0%" x2="100%" y1="0%" y2="0%" spreadMethod="pad"><stop offset="0%" stop-color="#bebebe" stop-opacity="1"/><stop offset="100%" stop-color="#f0f0f0" stop-opacity="1"/></linearGradient><linearGradient id="g-commentudb0fvw0qw7b9" x1="0%" x2="100%" y1="0%" y2="0%" spreadMethod="pad"><stop offset="0%" stop-color="#f5f588" stop-opacity="1"/><stop offset="100%" stop-color="#ffffba" stop-opacity="1"/></linearGradient><linearGradient id="g-manualudb0fvw0qw7b9" x1="0%" x2="100%" y1="0%" y2="0%" spreadMethod="pad"><stop offset="0%" stop-color="#9e78ff" stop-opacity="1"/><stop offset="100%" stop-color="#d0aaff" stop-opacity="1"/></linearGradient><filter id="dropshadowudb0fvw0qw7b9" height="150%" width="150%"><feGaussianBlur in="SourceAlpha" stdDeviation="3"/><feOffset dx="2" dy="2" result="offsetblur"/><feComponentTransfer/><feMerge><feMergeNode/><feMergeNode in="SourceGraphic"/></feMerge></filter></defs><g id="flowudb0fvw0qw7b9" class="graph" transform="scale(0.555037 0.555037) rotate(0) translate(4 552)"><title>FlowChart</title><!-- terminator_block_1 --><g id="node1" class="node"><title>terminator_block_1</title><ellipse fill="url(#g-terminatorudb0fvw0qw7b9)" stroke="black" cx="814" cy="-530" rx="79.2043" ry="18"/><text xml:space="preserve" text-anchor="start" x="754.5" y="-527.5" font-family="Open Sans" font-size="10.00">function Check-Upgrade()</text></g><!-- ifs_block_2 --><g id="node2" class="node"><title>ifs_block_2</title><polygon fill="url(#g-decisionudb0fvw0qw7b9)" stroke="black" points="814,-480 659.983,-462 814,-444 968.017,-462 814,-480"/><text xml:space="preserve" text-anchor="start" x="729.5" y="-459.5" font-family="Open Sans" font-size="10.00">Check-AsmtString("FSEAssessment")</text></g><!-- terminator_block_1&#45;&gt;ifs_block_2 --><g id="edge1" class="edge"><title>terminator_block_1->ifs_block_2</title><path fill="none" stroke="black" d="M814,-511.659C814,-505.193 814,-497.682 814,-490.525"/><polygon fill="black" stroke="black" points="817.5,-490.454 814,-480.454 810.5,-490.454 817.5,-490.454"/></g><!-- ifs_block_3 --><g id="node3" class="node"><title>ifs_block_3</title><polygon fill="url(#g-decisionudb0fvw0qw7b9)" stroke="black" points="663,-402 481.025,-384 663,-366 844.975,-384 663,-402"/><text xml:space="preserve" text-anchor="start" x="561.5" y="-381.5" font-family="Open Sans" font-size="10.00">Test-Path "HKLM:\SYSTEM\Setup\Upgrade"</text></g><!-- ifs_block_2&#45;&gt;ifs_block_3 --><g id="edge2" class="edge"><title>ifs_block_2->ifs_block_3</title><path fill="none" stroke="black" d="M786.304,-447.06C762.161,-434.909 726.939,-417.181 700.315,-403.781"/><polygon fill="black" stroke="black" points="701.794,-400.607 691.288,-399.238 698.647,-406.86 701.794,-400.607"/><text xml:space="preserve" text-anchor="start" x="748" y="-421.5" font-family="Open Sans" font-weight="bold" font-size="10.00"> True </text><polyline fill="none" stroke="Black" points="778,-417.5 727.193,-417.5 "/></g><!-- process_block_7 --><g id="node7" class="node"><title>process_block_7</title><polygon fill="url(#g-processudb0fvw0qw7b9)" stroke="black" points="806,-110 752,-110 752,-74 806,-74 806,-110"/><text xml:space="preserve" text-anchor="start" x="769" y="-89.5" font-family="Open Sans" font-size="10.00">else</text></g><!-- ifs_block_2&#45;&gt;process_block_7 --><g id="edge8" class="edge"><title>ifs_block_2->process_block_7</title><path fill="none" stroke="black" d="M837.828,-446.714C856.732,-433.375 880,-411.562 880,-385 880,-385 880,-385 880,-159 880,-127.334 844.779,-110.051 815.935,-101.207"/><polygon fill="black" stroke="black" points="816.641,-97.7702 806.066,-98.4214 814.739,-104.507 816.641,-97.7702"/><text xml:space="preserve" text-anchor="start" x="880" y="-265.5" font-family="Open Sans" font-weight="bold" font-size="10.00"> False </text><polyline fill="none" stroke="Black" points="911,-261.5 880,-261.5 "/></g><!-- process_block_4 --><g id="node4" class="node"><title>process_block_4</title><polygon fill="url(#g-processudb0fvw0qw7b9)" stroke="black" points="692.25,-324 -0.25,-324 -0.25,-288 692.25,-288 692.25,-324"/><text xml:space="preserve" text-anchor="start" x="6.5" y="-309" font-family="Open Sans" font-size="10.00">Log-Txt "   -> MISSING CRITERIA: Assessment requires non-Upgrade systems and system WAS upgraded. First Boot assessment will be skipped"</text><text xml:space="preserve" text-anchor="start" x="315" y="-298" font-family="Open Sans" font-size="10.00">return $false</text></g><!-- ifs_block_3&#45;&gt;process_block_4 --><g id="edge3" class="edge"><title>ifs_block_3->process_block_4</title><path fill="none" stroke="black" d="M612.77,-370.958C562.848,-358.989 485.475,-340.439 426.887,-326.393"/><polygon fill="black" stroke="black" points="427.457,-322.93 416.917,-324.002 425.825,-329.737 427.457,-322.93"/><text xml:space="preserve" text-anchor="start" x="524" y="-343.5" font-family="Open Sans" font-weight="bold" font-size="10.00"> True </text><polyline fill="none" stroke="Black" points="554,-339.5 479.75,-339.5 "/></g><!-- process_block_5 --><g id="node5" class="node"><title>process_block_5</title><polygon fill="url(#g-processudb0fvw0qw7b9)" stroke="black" points="534,-246 480,-246 480,-210 534,-210 534,-246"/><text xml:space="preserve" text-anchor="start" x="497" y="-225.5" font-family="Open Sans" font-size="10.00">else</text></g><!-- ifs_block_3&#45;&gt;process_block_5 --><g id="edge5" class="edge"><title>ifs_block_3->process_block_5</title><path fill="none" stroke="black" d="M678.712,-367.352C696.709,-347.496 721.469,-312.847 703,-288 684.01,-262.452 595.606,-243.766 544.244,-234.851"/><polygon fill="black" stroke="black" points="544.635,-231.367 534.191,-233.148 543.466,-238.269 544.635,-231.367"/><text xml:space="preserve" text-anchor="start" x="710" y="-304.5" font-family="Open Sans" font-weight="bold" font-size="10.00"> False </text><polyline fill="none" stroke="Black" points="741,-300.5 708.682,-300.5 "/></g><!-- process_block_4&#45;&gt;process_block_5 --><g id="edge4" class="edge"><title>process_block_4->process_block_5</title><path fill="none" stroke="black" d="M382.132,-287.944C408.472,-275.51 444.028,-258.726 470.463,-246.247"/><polygon fill="black" stroke="black" points="472.206,-249.295 479.755,-241.861 469.218,-242.965 472.206,-249.295"/></g><!-- process_block_6 --><g id="node6" class="node"><title>process_block_6</title><polygon fill="url(#g-processudb0fvw0qw7b9)" stroke="black" points="845.25,-178 168.75,-178 168.75,-142 845.25,-142 845.25,-178"/><text xml:space="preserve" text-anchor="start" x="175.5" y="-163" font-family="Open Sans" font-size="10.00">Log-Txt "   -> CRITERIA MET: Assessment requires non-Upgraded system and sSystem was NOT upgraded. First Boot assessment can run"   </text><text xml:space="preserve" text-anchor="start" x="477.5" y="-152" font-family="Open Sans" font-size="10.00">return $true</text></g><!-- process_block_5&#45;&gt;process_block_6 --><g id="edge6" class="edge"><title>process_block_5->process_block_6</title><path fill="none" stroke="black" d="M507,-209.659C507,-203.193 507,-195.682 507,-188.525"/><polygon fill="black" stroke="black" points="510.5,-188.454 507,-178.454 503.5,-188.454 510.5,-188.454"/></g><!-- process_block_6&#45;&gt;process_block_7 --><g id="edge7" class="edge"><title>process_block_6->process_block_7</title><path fill="none" stroke="black" d="M577.4,-141.918C630.042,-129.144 699.925,-112.187 742.067,-101.962"/><polygon fill="black" stroke="black" points="743.008,-105.335 751.901,-99.5756 741.357,-98.5324 743.008,-105.335"/></g><!-- terminator_block_8 --><g id="node8" class="node"><title>terminator_block_8</title><ellipse fill="url(#g-terminatorudb0fvw0qw7b9)" stroke="black" cx="779" cy="-21" rx="285.507" ry="21.4286"/><text xml:space="preserve" text-anchor="start" x="585" y="-24" font-family="Open Sans" font-size="10.00">Log-Txt "   -> Assessment is NOT First Boot and can run before/after OS Upgrade"</text><text xml:space="preserve" text-anchor="start" x="749.5" y="-13" font-family="Open Sans" font-size="10.00">return $true</text></g><!-- process_block_7&#45;&gt;terminator_block_8 --><g id="edge9" class="edge"><title>process_block_7->terminator_block_8</title><path fill="none" stroke="black" d="M779,-73.9438C779,-67.4338 779,-59.7993 779,-52.4177"/><polygon fill="black" stroke="black" points="782.5,-52.2941 779,-42.2942 775.5,-52.2942 782.5,-52.2941"/></g></g></svg>