<?xml version="1.0" encoding="UTF-8" standalone="no"?><!DOCTYPE svg PUBLIC "-//W3C//DTD SVG 1.1//EN" "http://www.w3.org/Graphics/SVG/1.1/DTD/svg11.dtd"><!-- Generated by graphviz version 2.35.0 (20140103.1005) --><!-- Title: FlowChart Pages: 1 --><svg width="600pt" height="423pt" viewBox="0.00 0.00 600 423" xmlns="http://www.w3.org/2000/svg" xmlns:xlink="http://www.w3.org/1999/xlink"><defs><linearGradient id="g-terminatorz3nockpbbuik9" x1="0%" x2="100%" y1="0%" y2="0%" spreadMethod="pad"><stop offset="0%" stop-color="#ff8787" stop-opacity="1"/><stop offset="100%" stop-color="#ffb9b9" stop-opacity="1"/></linearGradient><linearGradient id="g-decisionz3nockpbbuik9" x1="0%" x2="100%" y1="0%" y2="0%" spreadMethod="pad"><stop offset="0%" stop-color="#ffd287" stop-opacity="1"/><stop offset="100%" stop-color="#ffffb9" stop-opacity="1"/></linearGradient><linearGradient id="g-processz3nockpbbuik9" x1="0%" x2="100%" y1="0%" y2="0%" spreadMethod="pad"><stop offset="0%" stop-color="#99ff99" stop-opacity="1"/><stop offset="100%" stop-color="#cbffcb" stop-opacity="1"/></linearGradient><linearGradient id="g-defaultz3nockpbbuik9" x1="0%" x2="100%" y1="0%" y2="0%" spreadMethod="pad"><stop offset="0%" stop-color="#99ff99" stop-opacity="1"/><stop offset="100%" stop-color="#cbffcb" stop-opacity="1"/></linearGradient><linearGradient id="g-modulez3nockpbbuik9" x1="0%" x2="100%" y1="0%" y2="0%" spreadMethod="pad"><stop offset="0%" stop-color="#77c1e4" stop-opacity="1"/><stop offset="100%" stop-color="#a9f3ff" stop-opacity="1"/></linearGradient><linearGradient id="g-dataioz3nockpbbuik9" x1="0%" x2="100%" y1="0%" y2="0%" spreadMethod="pad"><stop offset="0%" stop-color="#bebebe" stop-opacity="1"/><stop offset="100%" stop-color="#f0f0f0" stop-opacity="1"/></linearGradient><linearGradient id="g-preparationz3nockpbbuik9" x1="0%" x2="100%" y1="0%" y2="0%" spreadMethod="pad"><stop offset="0%" stop-color="#bebebe" stop-opacity="1"/><stop offset="100%" stop-color="#f0f0f0" stop-opacity="1"/></linearGradient><linearGradient id="g-commentz3nockpbbuik9" x1="0%" x2="100%" y1="0%" y2="0%" spreadMethod="pad"><stop offset="0%" stop-color="#f5f588" stop-opacity="1"/><stop offset="100%" stop-color="#ffffba" stop-opacity="1"/></linearGradient><linearGradient id="g-manualz3nockpbbuik9" x1="0%" x2="100%" y1="0%" y2="0%" spreadMethod="pad"><stop offset="0%" stop-color="#9e78ff" stop-opacity="1"/><stop offset="100%" stop-color="#d0aaff" stop-opacity="1"/></linearGradient><filter id="dropshadowz3nockpbbuik9" height="150%" width="150%"><feGaussianBlur in="SourceAlpha" stdDeviation="3"/><feOffset dx="2" dy="2" result="offsetblur"/><feComponentTransfer/><feMerge><feMergeNode/><feMergeNode in="SourceGraphic"/></feMerge></filter></defs><g id="flowz3nockpbbuik9" class="graph" transform="scale(0.680778 0.680778) rotate(0) translate(4 610)"><title>FlowChart</title><!-- terminator_block_1 --><g id="node1" class="node"><title>terminator_block_1</title><ellipse fill="url(#g-terminatorz3nockpbbuik9)" stroke="black" cx="693" cy="-588" rx="76.2892" ry="18"/><text xml:space="preserve" text-anchor="start" x="636" y="-585.5" font-family="Open Sans" font-size="10.00">function Check-Battery()</text></g><!-- ifs_block_2 --><g id="node2" class="node"><title>ifs_block_2</title><polygon fill="url(#g-decisionz3nockpbbuik9)" stroke="black" points="693,-538 519.761,-520 693,-502 866.239,-520 693,-538"/><text xml:space="preserve" text-anchor="start" x="597" y="-517.5" font-family="Open Sans" font-size="10.00">Check-AsmtString("&lt;RequiresBattery />")</text></g><!-- terminator_block_1&#45;&gt;ifs_block_2 --><g id="edge1" class="edge"><title>terminator_block_1->ifs_block_2</title><path fill="none" stroke="black" d="M693,-569.659C693,-563.193 693,-555.682 693,-548.525"/><polygon fill="black" stroke="black" points="696.5,-548.454 693,-538.454 689.5,-548.454 696.5,-548.454"/></g><!-- process_block_3 --><g id="node3" class="node"><title>process_block_3</title><polygon fill="url(#g-processz3nockpbbuik9)" stroke="black" points="695.25,-460 480.75,-460 480.75,-424 695.25,-424 695.25,-460"/><text xml:space="preserve" text-anchor="start" x="487.5" y="-439.5" font-family="Open Sans" font-size="10.00">Log-Txt "...Assessment requires a battery"</text></g><!-- ifs_block_2&#45;&gt;process_block_3 --><g id="edge2" class="edge"><title>ifs_block_2->process_block_3</title><path fill="none" stroke="black" d="M672.255,-503.985C657.394,-493.228 637.095,-478.536 620.145,-466.267"/><polygon fill="black" stroke="black" points="621.786,-463.134 611.634,-460.106 617.682,-468.805 621.786,-463.134"/><text xml:space="preserve" text-anchor="start" x="646" y="-479.5" font-family="Open Sans" font-weight="bold" font-size="10.00"> True </text><polyline fill="none" stroke="Black" points="676,-475.5 633.348,-475.5 "/></g><!-- process_block_8 --><g id="node8" class="node"><title>process_block_8</title><polygon fill="url(#g-processz3nockpbbuik9)" stroke="black" points="671,-110 617,-110 617,-74 671,-74 671,-110"/><text xml:space="preserve" text-anchor="start" x="634" y="-89.5" font-family="Open Sans" font-size="10.00">else</text></g><!-- ifs_block_2&#45;&gt;process_block_8 --><g id="edge9" class="edge"><title>ifs_block_2->process_block_8</title><path fill="none" stroke="black" d="M711.124,-503.798C725.783,-489.71 744,-467.312 744,-443 744,-443 744,-443 744,-159 744,-127.646 709.333,-110.334 680.822,-101.397"/><polygon fill="black" stroke="black" points="681.64,-97.9903 671.061,-98.5762 679.697,-104.715 681.64,-97.9903"/><text xml:space="preserve" text-anchor="start" x="744" y="-294.5" font-family="Open Sans" font-weight="bold" font-size="10.00"> False </text><polyline fill="none" stroke="Black" points="775,-290.5 744,-290.5 "/></g><!-- ifs_block_4 --><g id="node4" class="node"><title>ifs_block_4</title><polygon fill="url(#g-decisionz3nockpbbuik9)" stroke="black" points="549,-392 389.741,-374 549,-356 708.259,-374 549,-392"/><text xml:space="preserve" text-anchor="start" x="461" y="-371.5" font-family="Open Sans" font-size="10.00">Get-WmiObject -Class Win32_Battery</text></g><!-- process_block_3&#45;&gt;ifs_block_4 --><g id="edge3" class="edge"><title>process_block_3->ifs_block_4</title><path fill="none" stroke="black" d="M577.753,-423.659C573.471,-416.412 568.413,-407.853 563.744,-399.951"/><polygon fill="black" stroke="black" points="566.61,-397.921 558.509,-391.093 560.583,-401.483 566.61,-397.921"/></g><!-- process_block_5 --><g id="node5" class="node"><title>process_block_5</title><polygon fill="url(#g-processz3nockpbbuik9)" stroke="black" points="562,-314 0,-314 0,-278 562,-278 562,-314"/><text xml:space="preserve" text-anchor="start" x="7" y="-299" font-family="Open Sans" font-size="10.00">Log-Txt "   -> CRITERIA MET: Assessment requires a battery and system HAS a battery. Energy assessment will run"</text><text xml:space="preserve" text-anchor="start" x="251.5" y="-288" font-family="Open Sans" font-size="10.00">return $true</text></g><!-- ifs_block_4&#45;&gt;process_block_5 --><g id="edge4" class="edge"><title>ifs_block_4->process_block_5</title><path fill="none" stroke="black" d="M505.941,-360.789C464.275,-348.973 400.397,-330.859 351.344,-316.948"/><polygon fill="black" stroke="black" points="352.005,-313.498 341.429,-314.137 350.095,-320.232 352.005,-313.498"/><text xml:space="preserve" text-anchor="start" x="432" y="-333.5" font-family="Open Sans" font-weight="bold" font-size="10.00"> True </text><polyline fill="none" stroke="Black" points="462,-329.5 395.426,-329.5 "/></g><!-- process_block_6 --><g id="node6" class="node"><title>process_block_6</title><polygon fill="url(#g-processz3nockpbbuik9)" stroke="black" points="399,-246 345,-246 345,-210 399,-210 399,-246"/><text xml:space="preserve" text-anchor="start" x="362" y="-225.5" font-family="Open Sans" font-size="10.00">else</text></g><!-- ifs_block_4&#45;&gt;process_block_6 --><g id="edge6" class="edge"><title>ifs_block_4->process_block_6</title><path fill="none" stroke="black" d="M560.438,-357.168C573.626,-336.799 591.284,-301.277 573,-278 553.021,-252.566 461.678,-238.667 409.266,-232.661"/><polygon fill="black" stroke="black" points="409.348,-229.149 399.024,-231.531 408.58,-236.106 409.348,-229.149"/><text xml:space="preserve" text-anchor="start" x="581" y="-294.5" font-family="Open Sans" font-weight="bold" font-size="10.00"> False </text><polyline fill="none" stroke="Black" points="612,-290.5 579.092,-290.5 "/></g><!-- process_block_5&#45;&gt;process_block_6 --><g id="edge5" class="edge"><title>process_block_5->process_block_6</title><path fill="none" stroke="black" d="M304.909,-277.659C315.672,-269.853 328.534,-260.525 340.103,-252.134"/><polygon fill="black" stroke="black" points="342.21,-254.929 348.251,-246.225 338.101,-249.263 342.21,-254.929"/></g><!-- process_block_7 --><g id="node7" class="node"><title>process_block_7</title><polygon fill="url(#g-processz3nockpbbuik9)" stroke="black" points="708.25,-178 35.75,-178 35.75,-142 708.25,-142 708.25,-178"/><text xml:space="preserve" text-anchor="start" x="42.5" y="-163" font-family="Open Sans" font-size="10.00">Log-Txt "   -> MISSING CRITERIA: Assessment requires a battery and system does NOT have a battery. Energy assessment will be skipped"</text><text xml:space="preserve" text-anchor="start" x="341" y="-152" font-family="Open Sans" font-size="10.00">return $false</text></g><!-- process_block_6&#45;&gt;process_block_7 --><g id="edge7" class="edge"><title>process_block_6->process_block_7</title><path fill="none" stroke="black" d="M372,-209.659C372,-203.193 372,-195.682 372,-188.525"/><polygon fill="black" stroke="black" points="375.5,-188.454 372,-178.454 368.5,-188.454 375.5,-188.454"/></g><!-- process_block_7&#45;&gt;process_block_8 --><g id="edge8" class="edge"><title>process_block_7->process_block_8</title><path fill="none" stroke="black" d="M442.4,-141.918C495.042,-129.144 564.925,-112.187 607.067,-101.962"/><polygon fill="black" stroke="black" points="608.008,-105.335 616.901,-99.5756 606.357,-98.5324 608.008,-105.335"/></g><!-- terminator_block_9 --><g id="node9" class="node"><title>terminator_block_9</title><ellipse fill="url(#g-terminatorz3nockpbbuik9)" stroke="black" cx="644" cy="-21" rx="194.182" ry="21.4286"/><text xml:space="preserve" text-anchor="start" x="514.5" y="-24" font-family="Open Sans" font-size="10.00">Log-Txt "   -> Assessment does NOT require a battery"</text><text xml:space="preserve" text-anchor="start" x="614.5" y="-13" font-family="Open Sans" font-size="10.00">return $true</text></g><!-- process_block_8&#45;&gt;terminator_block_9 --><g id="edge10" class="edge"><title>process_block_8->terminator_block_9</title><path fill="none" stroke="black" d="M644,-73.9438C644,-67.4338 644,-59.7993 644,-52.4177"/><polygon fill="black" stroke="black" points="647.5,-52.2941 644,-42.2942 640.5,-52.2942 647.5,-52.2941"/></g></g></svg>