<?xml version="1.0" encoding="UTF-8" standalone="no"?><!DOCTYPE svg PUBLIC "-//W3C//DTD SVG 1.1//EN" "http://www.w3.org/Graphics/SVG/1.1/DTD/svg11.dtd"><!-- Generated by graphviz version 2.35.0 (20140103.1005) --><!-- Title: FlowChart Pages: 1 --><svg width="600pt" height="283pt" viewBox="0.00 0.00 600 283.24" xmlns="http://www.w3.org/2000/svg" xmlns:xlink="http://www.w3.org/1999/xlink"><defs><linearGradient id="g-terminator9sl1cvg8n0zfr" x1="0%" x2="100%" y1="0%" y2="0%" spreadMethod="pad"><stop offset="0%" stop-color="#ff8787" stop-opacity="1"/><stop offset="100%" stop-color="#ffb9b9" stop-opacity="1"/></linearGradient><linearGradient id="g-decision9sl1cvg8n0zfr" x1="0%" x2="100%" y1="0%" y2="0%" spreadMethod="pad"><stop offset="0%" stop-color="#ffd287" stop-opacity="1"/><stop offset="100%" stop-color="#ffffb9" stop-opacity="1"/></linearGradient><linearGradient id="g-process9sl1cvg8n0zfr" x1="0%" x2="100%" y1="0%" y2="0%" spreadMethod="pad"><stop offset="0%" stop-color="#99ff99" stop-opacity="1"/><stop offset="100%" stop-color="#cbffcb" stop-opacity="1"/></linearGradient><linearGradient id="g-default9sl1cvg8n0zfr" x1="0%" x2="100%" y1="0%" y2="0%" spreadMethod="pad"><stop offset="0%" stop-color="#99ff99" stop-opacity="1"/><stop offset="100%" stop-color="#cbffcb" stop-opacity="1"/></linearGradient><linearGradient id="g-module9sl1cvg8n0zfr" x1="0%" x2="100%" y1="0%" y2="0%" spreadMethod="pad"><stop offset="0%" stop-color="#77c1e4" stop-opacity="1"/><stop offset="100%" stop-color="#a9f3ff" stop-opacity="1"/></linearGradient><linearGradient id="g-dataio9sl1cvg8n0zfr" x1="0%" x2="100%" y1="0%" y2="0%" spreadMethod="pad"><stop offset="0%" stop-color="#bebebe" stop-opacity="1"/><stop offset="100%" stop-color="#f0f0f0" stop-opacity="1"/></linearGradient><linearGradient id="g-preparation9sl1cvg8n0zfr" x1="0%" x2="100%" y1="0%" y2="0%" spreadMethod="pad"><stop offset="0%" stop-color="#bebebe" stop-opacity="1"/><stop offset="100%" stop-color="#f0f0f0" stop-opacity="1"/></linearGradient><linearGradient id="g-comment9sl1cvg8n0zfr" x1="0%" x2="100%" y1="0%" y2="0%" spreadMethod="pad"><stop offset="0%" stop-color="#f5f588" stop-opacity="1"/><stop offset="100%" stop-color="#ffffba" stop-opacity="1"/></linearGradient><linearGradient id="g-manual9sl1cvg8n0zfr" x1="0%" x2="100%" y1="0%" y2="0%" spreadMethod="pad"><stop offset="0%" stop-color="#9e78ff" stop-opacity="1"/><stop offset="100%" stop-color="#d0aaff" stop-opacity="1"/></linearGradient><filter id="dropshadow9sl1cvg8n0zfr" height="150%" width="150%"><feGaussianBlur in="SourceAlpha" stdDeviation="3"/><feOffset dx="2" dy="2" result="offsetblur"/><feComponentTransfer/><feMerge><feMergeNode/><feMergeNode in="SourceGraphic"/></feMerge></filter></defs><g id="flow9sl1cvg8n0zfr" class="graph" transform="scale(0.574879 0.574879) rotate(0) translate(4 480)"><title>FlowChart</title><!-- terminator_block_1 --><g id="node1" class="node"><title>terminator_block_1</title><ellipse fill="url(#g-terminator9sl1cvg8n0zfr)" stroke="black" cx="473" cy="-458" rx="72.4913" ry="18"/><text xml:space="preserve" text-anchor="start" x="419" y="-455.5" font-family="Open Sans" font-size="10.00">function Cleanup-Run()</text></g><!-- process_block_2 --><g id="node2" class="node"><title>process_block_2</title><polygon fill="url(#g-process9sl1cvg8n0zfr)" stroke="black" points="609.25,-408 336.75,-408 336.75,-314 609.25,-314 609.25,-408"/><text xml:space="preserve" text-anchor="start" x="421.5" y="-394" font-family="Open Sans" font-size="10.00">$endTime = Get-Date</text><text xml:space="preserve" text-anchor="start" x="450.5" y="-384" font-family="Open Sans" font-size="10.00">Log-Txt "</text><text xml:space="preserve" text-anchor="start" x="491.5" y="-384" font-family="Open Sans" font-style="italic" font-size="10.00">"</text><text xml:space="preserve" text-anchor="start" x="343.5" y="-374" font-family="Open Sans" font-style="italic" font-size="10.00">Log-Txt "...Cleaning up assessment run, settings and files"</text><text xml:space="preserve" text-anchor="start" x="451.5" y="-364" font-family="Open Sans" font-style="italic" font-size="10.00">Log-Txt "</text><text xml:space="preserve" text-anchor="start" x="490.5" y="-364" font-family="Open Sans" font-style="italic" font-size="10.00">"</text><text xml:space="preserve" text-anchor="start" x="378" y="-354" font-family="Open Sans" font-style="italic" font-size="10.00">Log-Txt "Test Run Start Time = $startTime"</text><text xml:space="preserve" text-anchor="start" x="381.5" y="-344" font-family="Open Sans" font-style="italic" font-size="10.00">Log-Txt "Test Run End Time = $endTime"</text><text xml:space="preserve" text-anchor="start" x="363" y="-334" font-family="Open Sans" font-style="italic" font-size="10.00">Log-Txt "Test Run Time = $endTime - $startTime"</text><text xml:space="preserve" text-anchor="start" x="431.5" y="-324" font-family="Open Sans" font-style="italic" font-size="10.00">Check-AsmtResults</text></g><!-- terminator_block_1&#45;&gt;process_block_2 --><g id="edge1" class="edge"><title>terminator_block_1->process_block_2</title><path fill="none" stroke="black" d="M473,-439.576C473,-433.393 473,-426.055 473,-418.398"/><polygon fill="black" stroke="black" points="476.5,-418.217 473,-408.217 469.5,-418.217 476.5,-418.217"/></g><!-- ifs_block_3 --><g id="node3" class="node"><title>ifs_block_3</title><polygon fill="url(#g-decision9sl1cvg8n0zfr)" stroke="black" points="473,-282 328.968,-264 473,-246 617.032,-264 473,-282"/><text xml:space="preserve" text-anchor="start" x="394.5" y="-261.5" font-family="Open Sans" font-size="10.00">Test-Path $asmtPath\running.txt</text></g><!-- process_block_2&#45;&gt;ifs_block_3 --><g id="edge2" class="edge"><title>process_block_2->ifs_block_3</title><path fill="none" stroke="black" d="M473,-313.891C473,-306.446 473,-298.954 473,-292.15"/><polygon fill="black" stroke="black" points="476.5,-292.128 473,-282.128 469.5,-292.128 476.5,-292.128"/></g><!-- process_block_4 --><g id="node4" class="node"><title>process_block_4</title><polygon fill="url(#g-process9sl1cvg8n0zfr)" stroke="black" points="716.25,-204 229.75,-204 229.75,-168 716.25,-168 716.25,-204"/><text xml:space="preserve" text-anchor="start" x="236.5" y="-189" font-family="Open Sans" font-size="10.00">Log-Txt "   -> Found $asmtPath\running.txt. Removing assessment status file and reset WTT policy"</text><text xml:space="preserve" text-anchor="start" x="343.5" y="-178" font-family="Open Sans" font-size="10.00">Run-Process CMD "/c del /F /Q $asmtPath\running.txt"</text></g><!-- ifs_block_3&#45;&gt;process_block_4 --><g id="edge3" class="edge"><title>ifs_block_3->process_block_4</title><path fill="none" stroke="black" d="M473,-245.754C473,-236.523 473,-224.935 473,-214.495"/><polygon fill="black" stroke="black" points="476.5,-214.177 473,-204.177 469.5,-214.177 476.5,-214.177"/><text xml:space="preserve" text-anchor="start" x="473" y="-223.5" font-family="Open Sans" font-weight="bold" font-size="10.00"> True </text><polyline fill="none" stroke="Black" points="503,-219.5 473,-219.5 "/></g><!-- ifs_block_5 --><g id="node5" class="node"><title>ifs_block_5</title><polygon fill="url(#g-decision9sl1cvg8n0zfr)" stroke="black" points="473,-136 323.975,-118 473,-100 622.025,-118 473,-136"/><text xml:space="preserve" text-anchor="start" x="391.5" y="-115.5" font-family="Open Sans" font-size="10.00">(Test-Path $asmtPath\running.txt)</text></g><!-- process_block_4&#45;&gt;ifs_block_5 --><g id="edge4" class="edge"><title>process_block_4->ifs_block_5</title><path fill="none" stroke="black" d="M473,-167.659C473,-161.193 473,-153.682 473,-146.525"/><polygon fill="black" stroke="black" points="476.5,-146.454 473,-136.454 469.5,-146.454 476.5,-146.454"/></g><!-- terminator_block_6 --><g id="node6" class="node"><title>terminator_block_6</title><ellipse fill="url(#g-terminator9sl1cvg8n0zfr)" stroke="black" cx="210" cy="-29" rx="210.577" ry="28.9828"/><text xml:space="preserve" text-anchor="start" x="69" y="-37.5" font-family="Open Sans" font-size="10.00">Run-Process schtasks '/delete /tn "ResumeAsmtMonitor" /f'</text><text xml:space="preserve" text-anchor="start" x="160.5" y="-26.5" font-family="Open Sans" font-size="10.00">CancelWTTReboot    </text><text xml:space="preserve" text-anchor="start" x="161.5" y="-15.5" font-family="Open Sans" font-size="10.00">shutdown /r             </text></g><!-- ifs_block_5&#45;&gt;terminator_block_6 --><g id="edge5" class="edge"><title>ifs_block_5->terminator_block_6</title><path fill="none" stroke="black" d="M435.319,-104.535C399.64,-92.7327 344.736,-74.5704 298.058,-59.1296"/><polygon fill="black" stroke="black" points="299.13,-55.7977 288.537,-55.98 296.932,-62.4436 299.13,-55.7977"/><text xml:space="preserve" text-anchor="start" x="373" y="-77.5" font-family="Open Sans" font-weight="bold" font-size="10.00"> False </text><polyline fill="none" stroke="Black" points="404,-73.5 343.391,-73.5 "/></g><!-- terminator_block_7 --><g id="node7" class="node"><title>terminator_block_7</title><ellipse fill="url(#g-terminator9sl1cvg8n0zfr)" stroke="black" cx="736" cy="-29" rx="291.465" ry="18"/><text xml:space="preserve" text-anchor="start" x="496" y="-26.5" font-family="Open Sans" font-size="10.00">Log-Txt "     Something happened :(. Assessment status file is still present at $asmtPath\running.txt"</text></g><!-- ifs_block_5&#45;&gt;terminator_block_7 --><g id="edge6" class="edge"><title>ifs_block_5->terminator_block_7</title><path fill="none" stroke="black" d="M510.681,-104.535C553.781,-90.2778 624.937,-66.7396 675.754,-49.9293"/><polygon fill="black" stroke="black" points="676.918,-53.2308 685.313,-46.7672 674.72,-46.585 676.918,-53.2308"/><text xml:space="preserve" text-anchor="start" x="605" y="-77.5" font-family="Open Sans" font-weight="bold" font-size="10.00"> True </text><polyline fill="none" stroke="Black" points="635,-73.5 606.995,-73.5 "/></g></g></svg>