<?xml version="1.0" encoding="UTF-8" standalone="no"?><!DOCTYPE svg PUBLIC "-//W3C//DTD SVG 1.1//EN" "http://www.w3.org/Graphics/SVG/1.1/DTD/svg11.dtd"><!-- Generated by graphviz version 2.35.0 (20140103.1005) --><!-- Title: FlowChart Pages: 1 --><svg width="600pt" height="342pt" viewBox="0.00 0.00 600 342.03" xmlns="http://www.w3.org/2000/svg" xmlns:xlink="http://www.w3.org/1999/xlink"><defs><linearGradient id="g-terminatorh534por8jjor" x1="0%" x2="100%" y1="0%" y2="0%" spreadMethod="pad"><stop offset="0%" stop-color="#ff8787" stop-opacity="1"/><stop offset="100%" stop-color="#ffb9b9" stop-opacity="1"/></linearGradient><linearGradient id="g-decisionh534por8jjor" x1="0%" x2="100%" y1="0%" y2="0%" spreadMethod="pad"><stop offset="0%" stop-color="#ffd287" stop-opacity="1"/><stop offset="100%" stop-color="#ffffb9" stop-opacity="1"/></linearGradient><linearGradient id="g-processh534por8jjor" x1="0%" x2="100%" y1="0%" y2="0%" spreadMethod="pad"><stop offset="0%" stop-color="#99ff99" stop-opacity="1"/><stop offset="100%" stop-color="#cbffcb" stop-opacity="1"/></linearGradient><linearGradient id="g-defaulth534por8jjor" x1="0%" x2="100%" y1="0%" y2="0%" spreadMethod="pad"><stop offset="0%" stop-color="#99ff99" stop-opacity="1"/><stop offset="100%" stop-color="#cbffcb" stop-opacity="1"/></linearGradient><linearGradient id="g-moduleh534por8jjor" x1="0%" x2="100%" y1="0%" y2="0%" spreadMethod="pad"><stop offset="0%" stop-color="#77c1e4" stop-opacity="1"/><stop offset="100%" stop-color="#a9f3ff" stop-opacity="1"/></linearGradient><linearGradient id="g-dataioh534por8jjor" x1="0%" x2="100%" y1="0%" y2="0%" spreadMethod="pad"><stop offset="0%" stop-color="#bebebe" stop-opacity="1"/><stop offset="100%" stop-color="#f0f0f0" stop-opacity="1"/></linearGradient><linearGradient id="g-preparationh534por8jjor" x1="0%" x2="100%" y1="0%" y2="0%" spreadMethod="pad"><stop offset="0%" stop-color="#bebebe" stop-opacity="1"/><stop offset="100%" stop-color="#f0f0f0" stop-opacity="1"/></linearGradient><linearGradient id="g-commenth534por8jjor" x1="0%" x2="100%" y1="0%" y2="0%" spreadMethod="pad"><stop offset="0%" stop-color="#f5f588" stop-opacity="1"/><stop offset="100%" stop-color="#ffffba" stop-opacity="1"/></linearGradient><linearGradient id="g-manualh534por8jjor" x1="0%" x2="100%" y1="0%" y2="0%" spreadMethod="pad"><stop offset="0%" stop-color="#9e78ff" stop-opacity="1"/><stop offset="100%" stop-color="#d0aaff" stop-opacity="1"/></linearGradient><filter id="dropshadowh534por8jjor" height="150%" width="150%"><feGaussianBlur in="SourceAlpha" stdDeviation="3"/><feOffset dx="2" dy="2" result="offsetblur"/><feComponentTransfer/><feMerge><feMergeNode/><feMergeNode in="SourceGraphic"/></feMerge></filter></defs><g id="flowh534por8jjor" class="graph" transform="scale(0.346737 0.346737) rotate(0) translate(4 968)"><title>FlowChart</title><!-- terminator_block_1 --><g id="node1" class="node"><title>terminator_block_1</title><ellipse fill="url(#g-terminatorh534por8jjor)" stroke="black" cx="1456" cy="-946" rx="93.3959" ry="18"/><text xml:space="preserve" text-anchor="start" x="1384.5" y="-943.5" font-family="Open Sans" font-size="10.00">function Copy-ResultToTemp()</text></g><!-- process_block_2 --><g id="node2" class="node"><title>process_block_2</title><polygon fill="url(#g-processh534por8jjor)" stroke="black" points="1640,-896 1272,-896 1272,-832 1640,-832 1640,-896"/><text xml:space="preserve" text-anchor="start" x="1279" y="-882" font-family="Open Sans" font-size="10.00">$path = "$env:HOMEDRIVE$env:HOMEPATH\appdata\local\microsoft\axe"</text><text xml:space="preserve" text-anchor="start" x="1433.5" y="-872" font-family="Open Sans" font-size="10.00">Log-Txt "</text><text xml:space="preserve" text-anchor="start" x="1474.5" y="-872" font-family="Open Sans" font-style="italic" font-size="10.00">"</text><text xml:space="preserve" text-anchor="start" x="1282" y="-862" font-family="Open Sans" font-style="italic" font-size="10.00">Log-Txt "...Copying temp Results to $logpath\Temp path for debugging later"</text><text xml:space="preserve" text-anchor="start" x="1430" y="-852" font-family="Open Sans" font-style="italic" font-size="10.00">Log-Txt "</text><text xml:space="preserve" text-anchor="start" x="1469" y="-852" font-family="Open Sans" font-style="italic" font-size="10.00">"   </text><text xml:space="preserve" text-anchor="start" x="1289" y="-842" font-family="Open Sans" font-style="italic" font-size="10.00">Log-Txt "...Looking for AXE Temp assessment results files in $path\Results"</text></g><!-- terminator_block_1&#45;&gt;process_block_2 --><g id="edge1" class="edge"><title>terminator_block_1->process_block_2</title><path fill="none" stroke="black" d="M1456,-927.641C1456,-921.322 1456,-913.88 1456,-906.373"/><polygon fill="black" stroke="black" points="1459.5,-906.195 1456,-896.195 1452.5,-906.195 1459.5,-906.195"/></g><!-- ifs_block_3 --><g id="node3" class="node"><title>ifs_block_3</title><polygon fill="url(#g-decisionh534por8jjor)" stroke="black" points="1456,-800 1325.45,-782 1456,-764 1586.55,-782 1456,-800"/><text xml:space="preserve" text-anchor="start" x="1385.5" y="-779.5" font-family="Open Sans" font-size="10.00">Test-Path $path\Results\job*</text></g><!-- process_block_2&#45;&gt;ifs_block_3 --><g id="edge2" class="edge"><title>process_block_2->ifs_block_3</title><path fill="none" stroke="black" d="M1456,-831.841C1456,-824.816 1456,-817.408 1456,-810.543"/><polygon fill="black" stroke="black" points="1459.5,-810.337 1456,-800.337 1452.5,-810.337 1459.5,-810.337"/></g><!-- process_block_4 --><g id="node4" class="node"><title>process_block_4</title><polygon fill="url(#g-processh534por8jjor)" stroke="black" points="1370.25,-722 975.75,-722 975.75,-686 1370.25,-686 1370.25,-722"/><text xml:space="preserve" text-anchor="start" x="1061.5" y="-707" font-family="Open Sans" font-size="10.00">$lastResult = gci $path\Results | select -last 1</text><text xml:space="preserve" text-anchor="start" x="982.5" y="-696" font-family="Open Sans" font-size="10.00">Log-Txt "...Axe Temp results path is valid. Looking for last result in: $lastResult"</text></g><!-- ifs_block_3&#45;&gt;process_block_4 --><g id="edge3" class="edge"><title>ifs_block_3->process_block_4</title><path fill="none" stroke="black" d="M1413.94,-769.704C1369.8,-757.851 1299.56,-738.988 1246.28,-724.68"/><polygon fill="black" stroke="black" points="1247.11,-721.278 1236.54,-722.064 1245.29,-728.038 1247.11,-721.278"/><text xml:space="preserve" text-anchor="start" x="1332" y="-741.5" font-family="Open Sans" font-weight="bold" font-size="10.00"> True </text><polyline fill="none" stroke="Black" points="1362,-737.5 1294.3,-737.5 "/></g><!-- terminator_block_18 --><g id="node18" class="node"><title>terminator_block_18</title><ellipse fill="url(#g-terminatorh534por8jjor)" stroke="black" cx="1551" cy="-704" rx="157.143" ry="18"/><text xml:space="preserve" text-anchor="start" x="1425" y="-702.5" font-family="Open Sans" font-size="10.00">Log-Txt "...Didn't find Results at $path\Results\job</text><text xml:space="preserve" text-anchor="start" x="1664" y="-702.5" font-family="Open Sans" font-style="italic" font-size="10.00">"   </text></g><!-- ifs_block_3&#45;&gt;terminator_block_18 --><g id="edge19" class="edge"><title>ifs_block_3->terminator_block_18</title><path fill="none" stroke="black" d="M1474.32,-766.346C1487.69,-755.646 1506.11,-740.914 1521.54,-728.569"/><polygon fill="black" stroke="black" points="1524.13,-730.977 1529.75,-721.997 1519.76,-725.511 1524.13,-730.977"/><text xml:space="preserve" text-anchor="start" x="1510" y="-741.5" font-family="Open Sans" font-weight="bold" font-size="10.00"> False </text><polyline fill="none" stroke="Black" points="1541,-737.5 1509.53,-737.5 "/></g><!-- ifs_block_5 --><g id="node5" class="node"><title>ifs_block_5</title><polygon fill="url(#g-decisionh534por8jjor)" stroke="black" points="1173,-654 1014.74,-636 1173,-618 1331.26,-636 1173,-654"/><text xml:space="preserve" text-anchor="start" x="1086" y="-633.5" font-family="Open Sans" font-size="10.00">Test-Path $path\Results\$lastResult</text></g><!-- process_block_4&#45;&gt;ifs_block_5 --><g id="edge4" class="edge"><title>process_block_4->ifs_block_5</title><path fill="none" stroke="black" d="M1173,-685.659C1173,-679.193 1173,-671.682 1173,-664.525"/><polygon fill="black" stroke="black" points="1176.5,-664.454 1173,-654.454 1169.5,-664.454 1176.5,-664.454"/></g><!-- process_block_6 --><g id="node6" class="node"><title>process_block_6</title><polygon fill="url(#g-processh534por8jjor)" stroke="black" points="1050,-576 764,-576 764,-540 1050,-540 1050,-576"/><text xml:space="preserve" text-anchor="start" x="771" y="-561" font-family="Open Sans" font-size="10.00">Log-Txt "   -> Found results at $path\Results\$lastResult"</text><text xml:space="preserve" text-anchor="start" x="803.5" y="-550" font-family="Open Sans" font-size="10.00">Log-Txt "...Checking for $logpath\Temp DIR"</text></g><!-- ifs_block_5&#45;&gt;process_block_6 --><g id="edge5" class="edge"><title>ifs_block_5->process_block_6</title><path fill="none" stroke="black" d="M1130.26,-622.789C1088.91,-610.973 1025.51,-592.859 976.819,-578.948"/><polygon fill="black" stroke="black" points="977.555,-575.519 966.978,-576.137 975.632,-582.249 977.555,-575.519"/><text xml:space="preserve" text-anchor="start" x="1056" y="-595.5" font-family="Open Sans" font-weight="bold" font-size="10.00"> True </text><polyline fill="none" stroke="Black" points="1086,-591.5 1020.57,-591.5 "/></g><!-- terminator_block_17 --><g id="node17" class="node"><title>terminator_block_17</title><ellipse fill="url(#g-terminatorh534por8jjor)" stroke="black" cx="1262" cy="-558" rx="188.441" ry="18"/><text xml:space="preserve" text-anchor="start" x="1109.5" y="-555.5" font-family="Open Sans" font-size="10.00">Log-Txt "    -> No results found at $path\Results\$lastResult"     </text></g><!-- ifs_block_5&#45;&gt;terminator_block_17 --><g id="edge18" class="edge"><title>ifs_block_5->terminator_block_17</title><path fill="none" stroke="black" d="M1190.58,-619.985C1203.06,-609.327 1220.07,-594.805 1234.36,-582.605"/><polygon fill="black" stroke="black" points="1236.64,-585.262 1241.97,-576.106 1232.09,-579.938 1236.64,-585.262"/><text xml:space="preserve" text-anchor="start" x="1223" y="-595.5" font-family="Open Sans" font-weight="bold" font-size="10.00"> False </text><polyline fill="none" stroke="Black" points="1254,-591.5 1223.25,-591.5 "/></g><!-- ifs_block_7 --><g id="node7" class="node"><title>ifs_block_7</title><polygon fill="url(#g-decisionh534por8jjor)" stroke="black" points="907,-508 787.68,-490 907,-472 1026.32,-490 907,-508"/><text xml:space="preserve" text-anchor="start" x="843" y="-487.5" font-family="Open Sans" font-size="10.00">(Test-Path $logpath\Temp)</text></g><!-- process_block_6&#45;&gt;ifs_block_7 --><g id="edge6" class="edge"><title>process_block_6->ifs_block_7</title><path fill="none" stroke="black" d="M907,-539.659C907,-533.193 907,-525.682 907,-518.525"/><polygon fill="black" stroke="black" points="910.5,-518.454 907,-508.454 903.5,-518.454 910.5,-518.454"/></g><!-- process_block_8 --><g id="node8" class="node"><title>process_block_8</title><polygon fill="url(#g-processh534por8jjor)" stroke="black" points="914,-430 652,-430 652,-394 914,-394 914,-430"/><text xml:space="preserve" text-anchor="start" x="666.5" y="-415" font-family="Open Sans" font-size="10.00">Log-Txt "...Didn't find $logpath\Temp, creating it"</text><text xml:space="preserve" text-anchor="start" x="659" y="-404" font-family="Open Sans" font-size="10.00">New-Item -Path $logpath\Temp -ItemType directory</text></g><!-- ifs_block_7&#45;&gt;process_block_8 --><g id="edge7" class="edge"><title>ifs_block_7->process_block_8</title><path fill="none" stroke="black" d="M884.545,-475.237C866.468,-464.158 840.696,-448.362 819.639,-435.456"/><polygon fill="black" stroke="black" points="821.294,-432.366 810.939,-430.124 817.636,-438.334 821.294,-432.366"/><text xml:space="preserve" text-anchor="start" x="853" y="-449.5" font-family="Open Sans" font-weight="bold" font-size="10.00"> False </text><polyline fill="none" stroke="Black" points="884,-445.5 836.122,-445.5 "/></g><!-- process_block_12 --><g id="node12" class="node"><title>process_block_12</title><polygon fill="url(#g-processh534por8jjor)" stroke="black" points="1113.25,-379 860.75,-379 860.75,-343 1113.25,-343 1113.25,-379"/><text xml:space="preserve" text-anchor="start" x="867.5" y="-358.5" font-family="Open Sans" font-size="10.00">Log-Txt "   -> Found $logpath\Temp. Starting copy"</text></g><!-- ifs_block_7&#45;&gt;process_block_12 --><g id="edge11" class="edge"><title>ifs_block_7->process_block_12</title><path fill="none" stroke="black" d="M916.81,-473.427C930.246,-452.097 954.547,-413.518 970.731,-387.827"/><polygon fill="black" stroke="black" points="973.717,-389.653 976.086,-379.326 967.794,-385.922 973.717,-389.653"/><text xml:space="preserve" text-anchor="start" x="934" y="-449.5" font-family="Open Sans" font-weight="bold" font-size="10.00"> True </text><polyline fill="none" stroke="Black" points="964,-445.5 934.624,-445.5 "/></g><!-- ifs_block_9 --><g id="node9" class="node"><title>ifs_block_9</title><polygon fill="url(#g-decisionh534por8jjor)" stroke="black" points="764,-328 649.673,-310 764,-292 878.327,-310 764,-328"/><text xml:space="preserve" text-anchor="start" x="703" y="-307.5" font-family="Open Sans" font-size="10.00">Test-Path $logpath\Temp</text></g><!-- process_block_8&#45;&gt;ifs_block_9 --><g id="edge8" class="edge"><title>process_block_8->ifs_block_9</title><path fill="none" stroke="black" d="M779.69,-393.581C776.767,-378.196 772.459,-355.522 769.096,-337.823"/><polygon fill="black" stroke="black" points="772.451,-336.726 767.145,-327.555 765.574,-338.033 772.451,-336.726"/></g><!-- process_block_10 --><g id="node10" class="node"><title>process_block_10</title><polygon fill="url(#g-processh534por8jjor)" stroke="black" points="548.25,-250 -0.25,-250 -0.25,-214 548.25,-214 548.25,-250"/><text xml:space="preserve" text-anchor="start" x="6.5" y="-229.5" font-family="Open Sans" font-size="10.00">Log-Txt "   -> Created DIR: $logpath\Temp. Copying from $path\Results\$lastResult to $logpath\Temp"                </text></g><!-- ifs_block_9&#45;&gt;process_block_10 --><g id="edge9" class="edge"><title>ifs_block_9->process_block_10</title><path fill="none" stroke="black" d="M709.217,-300.503C633.328,-288.732 494.211,-267.155 393.653,-251.558"/><polygon fill="black" stroke="black" points="394.157,-248.095 383.739,-250.021 393.084,-255.012 394.157,-248.095"/><text xml:space="preserve" text-anchor="start" x="549" y="-269.5" font-family="Open Sans" font-weight="bold" font-size="10.00"> True </text><polyline fill="none" stroke="Black" points="579,-265.5 485.384,-265.5 "/></g><!-- process_block_11 --><g id="node11" class="node"><title>process_block_11</title><polygon fill="url(#g-processh534por8jjor)" stroke="black" points="956,-250 572,-250 572,-214 956,-214 956,-250"/><text xml:space="preserve" text-anchor="start" x="579" y="-229.5" font-family="Open Sans" font-size="10.00">Log-Txt "   ->Something happened :(. No directory located at $logpath\Temp" </text></g><!-- ifs_block_9&#45;&gt;process_block_11 --><g id="edge10" class="edge"><title>ifs_block_9->process_block_11</title><path fill="none" stroke="black" d="M764,-291.754C764,-282.523 764,-270.935 764,-260.495"/><polygon fill="black" stroke="black" points="767.5,-260.177 764,-250.177 760.5,-260.177 767.5,-260.177"/><text xml:space="preserve" text-anchor="start" x="764" y="-269.5" font-family="Open Sans" font-weight="bold" font-size="10.00"> False </text><polyline fill="none" stroke="Black" points="795,-265.5 764,-265.5 "/></g><!-- process_block_13 --><g id="node13" class="node"><title>process_block_13</title><polygon fill="url(#g-processh534por8jjor)" stroke="black" points="935,-182 593,-182 593,-146 935,-146 935,-182"/><text xml:space="preserve" text-anchor="start" x="600" y="-161.5" font-family="Open Sans" font-size="10.00">Copy-Item $path\Results\$lastResult $logpath\Temp -Force -Recurse</text></g><!-- process_block_10&#45;&gt;process_block_13 --><g id="edge12" class="edge"><title>process_block_10->process_block_13</title><path fill="none" stroke="black" d="M400.506,-213.96C470.108,-204.585 556.516,-192.947 627.62,-183.37"/><polygon fill="black" stroke="black" points="628.105,-186.836 637.548,-182.032 627.171,-179.899 628.105,-186.836"/></g><!-- process_block_11&#45;&gt;process_block_13 --><g id="edge13" class="edge"><title>process_block_11->process_block_13</title><path fill="none" stroke="black" d="M764,-213.659C764,-207.193 764,-199.682 764,-192.525"/><polygon fill="black" stroke="black" points="767.5,-192.454 764,-182.454 760.5,-192.454 767.5,-192.454"/></g><!-- process_block_12&#45;&gt;process_block_13 --><g id="edge14" class="edge"><title>process_block_12->process_block_13</title><path fill="none" stroke="black" d="M990.271,-342.604C994.875,-312.354 999.427,-249.869 967,-214 955.742,-201.547 926.064,-191.691 892.765,-184.184"/><polygon fill="black" stroke="black" points="893.327,-180.724 882.813,-182.029 891.846,-187.566 893.327,-180.724"/></g><!-- ifs_block_14 --><g id="node14" class="node"><title>ifs_block_14</title><polygon fill="url(#g-decisionh534por8jjor)" stroke="black" points="764,-114 600.746,-96 764,-78 927.254,-96 764,-114"/><text xml:space="preserve" text-anchor="start" x="674" y="-93.5" font-family="Open Sans" font-size="10.00">Test-Path $logpath\Temp\$lastResult</text></g><!-- process_block_13&#45;&gt;ifs_block_14 --><g id="edge15" class="edge"><title>process_block_13->ifs_block_14</title><path fill="none" stroke="black" d="M764,-145.659C764,-139.193 764,-131.682 764,-124.525"/><polygon fill="black" stroke="black" points="767.5,-124.454 764,-114.454 760.5,-124.454 767.5,-124.454"/></g><!-- terminator_block_15 --><g id="node15" class="node"><title>terminator_block_15</title><ellipse fill="url(#g-terminatorh534por8jjor)" stroke="black" cx="504" cy="-18" rx="245.209" ry="18"/><text xml:space="preserve" text-anchor="start" x="303.5" y="-15.5" font-family="Open Sans" font-size="10.00">Log-Txt "   ->Successfully copied results to: $logpath\Temp\$lastResult"                    </text></g><!-- ifs_block_14&#45;&gt;terminator_block_15 --><g id="edge16" class="edge"><title>ifs_block_14->terminator_block_15</title><path fill="none" stroke="black" d="M721.648,-82.6201C680.723,-70.6576 618.107,-52.3544 570.526,-38.4459"/><polygon fill="black" stroke="black" points="571.498,-35.0837 560.917,-35.6374 569.534,-41.8026 571.498,-35.0837"/><text xml:space="preserve" text-anchor="start" x="650" y="-55.5" font-family="Open Sans" font-weight="bold" font-size="10.00"> True </text><polyline fill="none" stroke="Black" points="680,-51.5 618.417,-51.5 "/></g><!-- terminator_block_16 --><g id="node16" class="node"><title>terminator_block_16</title><ellipse fill="url(#g-terminatorh534por8jjor)" stroke="black" cx="1024" cy="-18" rx="251.039" ry="18"/><text xml:space="preserve" text-anchor="start" x="818.5" y="-15.5" font-family="Open Sans" font-size="10.00">Log-Txt "   -> Something happened :( No Results found at: $logpath\Temp\$lastResult"</text></g><!-- ifs_block_14&#45;&gt;terminator_block_16 --><g id="edge17" class="edge"><title>ifs_block_14->terminator_block_16</title><path fill="none" stroke="black" d="M806.352,-82.6201C847.277,-70.6576 909.893,-52.3544 957.474,-38.4459"/><polygon fill="black" stroke="black" points="958.466,-41.8026 967.083,-35.6374 956.502,-35.0837 958.466,-41.8026"/><text xml:space="preserve" text-anchor="start" x="910" y="-55.5" font-family="Open Sans" font-weight="bold" font-size="10.00"> False </text><polyline fill="none" stroke="Black" points="941,-51.5 909.583,-51.5 "/></g></g></svg>