<?xml version="1.0" encoding="UTF-8" standalone="no"?><!DOCTYPE svg PUBLIC "-//W3C//DTD SVG 1.1//EN" "http://www.w3.org/Graphics/SVG/1.1/DTD/svg11.dtd"><!-- Generated by graphviz version 2.35.0 (20140103.1005) --><!-- Title: FlowChart Pages: 1 --><svg width="600pt" height="246pt" viewBox="0.00 0.00 600 246.33" xmlns="http://www.w3.org/2000/svg" xmlns:xlink="http://www.w3.org/1999/xlink"><defs><linearGradient id="g-terminatorfhjcz3oryvte29" x1="0%" x2="100%" y1="0%" y2="0%" spreadMethod="pad"><stop offset="0%" stop-color="#ff8787" stop-opacity="1"/><stop offset="100%" stop-color="#ffb9b9" stop-opacity="1"/></linearGradient><linearGradient id="g-decisionfhjcz3oryvte29" x1="0%" x2="100%" y1="0%" y2="0%" spreadMethod="pad"><stop offset="0%" stop-color="#ffd287" stop-opacity="1"/><stop offset="100%" stop-color="#ffffb9" stop-opacity="1"/></linearGradient><linearGradient id="g-processfhjcz3oryvte29" x1="0%" x2="100%" y1="0%" y2="0%" spreadMethod="pad"><stop offset="0%" stop-color="#99ff99" stop-opacity="1"/><stop offset="100%" stop-color="#cbffcb" stop-opacity="1"/></linearGradient><linearGradient id="g-defaultfhjcz3oryvte29" x1="0%" x2="100%" y1="0%" y2="0%" spreadMethod="pad"><stop offset="0%" stop-color="#99ff99" stop-opacity="1"/><stop offset="100%" stop-color="#cbffcb" stop-opacity="1"/></linearGradient><linearGradient id="g-modulefhjcz3oryvte29" x1="0%" x2="100%" y1="0%" y2="0%" spreadMethod="pad"><stop offset="0%" stop-color="#77c1e4" stop-opacity="1"/><stop offset="100%" stop-color="#a9f3ff" stop-opacity="1"/></linearGradient><linearGradient id="g-dataiofhjcz3oryvte29" x1="0%" x2="100%" y1="0%" y2="0%" spreadMethod="pad"><stop offset="0%" stop-color="#bebebe" stop-opacity="1"/><stop offset="100%" stop-color="#f0f0f0" stop-opacity="1"/></linearGradient><linearGradient id="g-preparationfhjcz3oryvte29" x1="0%" x2="100%" y1="0%" y2="0%" spreadMethod="pad"><stop offset="0%" stop-color="#bebebe" stop-opacity="1"/><stop offset="100%" stop-color="#f0f0f0" stop-opacity="1"/></linearGradient><linearGradient id="g-commentfhjcz3oryvte29" x1="0%" x2="100%" y1="0%" y2="0%" spreadMethod="pad"><stop offset="0%" stop-color="#f5f588" stop-opacity="1"/><stop offset="100%" stop-color="#ffffba" stop-opacity="1"/></linearGradient><linearGradient id="g-manualfhjcz3oryvte29" x1="0%" x2="100%" y1="0%" y2="0%" spreadMethod="pad"><stop offset="0%" stop-color="#9e78ff" stop-opacity="1"/><stop offset="100%" stop-color="#d0aaff" stop-opacity="1"/></linearGradient><filter id="dropshadowfhjcz3oryvte29" height="150%" width="150%"><feGaussianBlur in="SourceAlpha" stdDeviation="3"/><feOffset dx="2" dy="2" result="offsetblur"/><feComponentTransfer/><feMerge><feMergeNode/><feMergeNode in="SourceGraphic"/></feMerge></filter></defs><g id="flowfhjcz3oryvte29" class="graph" transform="scale(0.346737 0.346737) rotate(0) translate(4 692)"><title>FlowChart</title><!-- terminator_block_1 --><g id="node1" class="node"><title>terminator_block_1</title><ellipse fill="url(#g-terminatorfhjcz3oryvte29)" stroke="black" cx="1066" cy="-670" rx="75.4067" ry="18"/><text xml:space="preserve" text-anchor="start" x="1009.5" y="-667.5" font-family="Open Sans" font-size="10.00">function Copy-RunLogs()</text></g><!-- process_block_2 --><g id="node2" class="node"><title>process_block_2</title><polygon fill="url(#g-processfhjcz3oryvte29)" stroke="black" points="1093,-620 1039,-620 1039,-584 1093,-584 1093,-620"/><text xml:space="preserve" text-anchor="middle" x="1066" y="-592" font-family="Open Sans" font-size="10.00">process_block_2</text></g><!-- terminator_block_1&#45;&gt;process_block_2 --><g id="edge1" class="edge"><title>terminator_block_1->process_block_2</title><path fill="none" stroke="black" d="M1066,-651.659C1066,-645.193 1066,-637.682 1066,-630.525"/><polygon fill="black" stroke="black" points="1069.5,-630.454 1066,-620.454 1062.5,-630.454 1069.5,-630.454"/></g><!-- ifs_block_3 --><g id="node3" class="node"><title>ifs_block_3</title><polygon fill="url(#g-decisionfhjcz3oryvte29)" stroke="black" points="1066,-552 976.884,-534 1066,-516 1155.12,-534 1066,-552"/><text xml:space="preserve" text-anchor="start" x="1020.5" y="-531.5" font-family="Open Sans" font-size="10.00">Test-Path $logpath</text></g><!-- process_block_2&#45;&gt;ifs_block_3 --><g id="edge2" class="edge"><title>process_block_2->ifs_block_3</title><path fill="none" stroke="black" d="M1066,-583.659C1066,-577.193 1066,-569.682 1066,-562.525"/><polygon fill="black" stroke="black" points="1069.5,-562.454 1066,-552.454 1062.5,-562.454 1069.5,-562.454"/></g><!-- process_block_4 --><g id="node4" class="node"><title>process_block_4</title><polygon fill="url(#g-processfhjcz3oryvte29)" stroke="black" points="990,-474 836,-474 836,-438 990,-438 990,-474"/><text xml:space="preserve" text-anchor="start" x="843" y="-453.5" font-family="Open Sans" font-size="10.00">Log-Txt "   -> Found $logpath"</text></g><!-- ifs_block_3&#45;&gt;process_block_4 --><g id="edge3" class="edge"><title>ifs_block_3->process_block_4</title><path fill="none" stroke="black" d="M1041.42,-520.789C1018.57,-509.442 984.036,-492.286 956.53,-478.623"/><polygon fill="black" stroke="black" points="958.012,-475.451 947.499,-474.137 954.898,-481.72 958.012,-475.451"/><text xml:space="preserve" text-anchor="start" x="999" y="-493.5" font-family="Open Sans" font-weight="bold" font-size="10.00"> True </text><polyline fill="none" stroke="Black" points="1029,-489.5 978.186,-489.5 "/></g><!-- terminator_block_17 --><g id="node17" class="node"><title>terminator_block_17</title><ellipse fill="url(#g-terminatorfhjcz3oryvte29)" stroke="black" cx="1117" cy="-456" rx="103.407" ry="18"/><text xml:space="preserve" text-anchor="start" x="1037" y="-453.5" font-family="Open Sans" font-size="10.00">Log-Txt "   -> Didn't find $logpath"</text></g><!-- ifs_block_3&#45;&gt;terminator_block_17 --><g id="edge16" class="edge"><title>ifs_block_3->terminator_block_17</title><path fill="none" stroke="black" d="M1076.08,-517.985C1082.83,-507.919 1091.9,-494.406 1099.78,-482.659"/><polygon fill="black" stroke="black" points="1102.85,-484.36 1105.52,-474.106 1097.04,-480.46 1102.85,-484.36"/><text xml:space="preserve" text-anchor="start" x="1095" y="-493.5" font-family="Open Sans" font-weight="bold" font-size="10.00"> False </text><polyline fill="none" stroke="Black" points="1126,-489.5 1095.25,-489.5 "/></g><!-- ifs_block_5 --><g id="node5" class="node"><title>ifs_block_5</title><polygon fill="url(#g-decisionfhjcz3oryvte29)" stroke="black" points="913,-406 808.658,-388 913,-370 1017.34,-388 913,-406"/><text xml:space="preserve" text-anchor="start" x="858" y="-385.5" font-family="Open Sans" font-size="10.00">Test-Path $resultsPath</text></g><!-- process_block_4&#45;&gt;ifs_block_5 --><g id="edge4" class="edge"><title>process_block_4->ifs_block_5</title><path fill="none" stroke="black" d="M913,-437.659C913,-431.193 913,-423.682 913,-416.525"/><polygon fill="black" stroke="black" points="916.5,-416.454 913,-406.454 909.5,-416.454 916.5,-416.454"/></g><!-- process_block_6 --><g id="node6" class="node"><title>process_block_6</title><polygon fill="url(#g-processfhjcz3oryvte29)" stroke="black" points="1007.25,-328 576.75,-328 576.75,-292 1007.25,-292 1007.25,-328"/><text xml:space="preserve" text-anchor="start" x="712.5" y="-313" font-family="Open Sans" font-size="10.00">Log-Txt "   -> Found $resultsPath"</text><text xml:space="preserve" text-anchor="start" x="583.5" y="-302" font-family="Open Sans" font-size="10.00">Log-Txt "...Beginning copy of logs found at $logpath to $resultsPath for debugging later"</text></g><!-- ifs_block_5&#45;&gt;process_block_6 --><g id="edge5" class="edge"><title>ifs_block_5->process_block_6</title><path fill="none" stroke="black" d="M891.646,-373.588C873.956,-362.476 848.439,-346.449 827.656,-333.396"/><polygon fill="black" stroke="black" points="829.406,-330.361 819.076,-328.006 825.682,-336.289 829.406,-330.361"/><text xml:space="preserve" text-anchor="start" x="860" y="-347.5" font-family="Open Sans" font-weight="bold" font-size="10.00"> True </text><polyline fill="none" stroke="Black" points="890,-343.5 843.935,-343.5 "/></g><!-- process_block_10 --><g id="node10" class="node"><title>process_block_10</title><polygon fill="url(#g-processfhjcz3oryvte29)" stroke="black" points="1407.25,-328 1030.75,-328 1030.75,-292 1407.25,-292 1407.25,-328"/><text xml:space="preserve" text-anchor="start" x="1037.5" y="-307.5" font-family="Open Sans" font-size="10.00">Log-Txt "...Didn't find $resultsPath. Looking again under $asmtPath\Results"</text></g><!-- ifs_block_5&#45;&gt;process_block_10 --><g id="edge9" class="edge"><title>ifs_block_5->process_block_10</title><path fill="none" stroke="black" d="M953.634,-376.908C1001.14,-365.108 1080.87,-345.307 1140.56,-330.483"/><polygon fill="black" stroke="black" points="1141.47,-333.863 1150.33,-328.055 1139.78,-327.069 1141.47,-333.863"/><text xml:space="preserve" text-anchor="start" x="1085" y="-347.5" font-family="Open Sans" font-weight="bold" font-size="10.00"> False </text><polyline fill="none" stroke="Black" points="1116,-343.5 1086.6,-343.5 "/></g><!-- ifs_block_7 --><g id="node7" class="node"><title>ifs_block_7</title><polygon fill="url(#g-decisionfhjcz3oryvte29)" stroke="black" points="792,-260 651.463,-242 792,-224 932.537,-242 792,-260"/><text xml:space="preserve" text-anchor="start" x="715.5" y="-239.5" font-family="Open Sans" font-size="10.00">Test-Path $resultsPath\RunLogs</text></g><!-- process_block_6&#45;&gt;ifs_block_7 --><g id="edge6" class="edge"><title>process_block_6->ifs_block_7</title><path fill="none" stroke="black" d="M792,-291.659C792,-285.193 792,-277.682 792,-270.525"/><polygon fill="black" stroke="black" points="795.5,-270.454 792,-260.454 788.5,-270.454 795.5,-270.454"/></g><!-- terminator_block_8 --><g id="node8" class="node"><title>terminator_block_8</title><ellipse fill="url(#g-terminatorfhjcz3oryvte29)" stroke="black" cx="274" cy="-164" rx="274.359" ry="18"/><text xml:space="preserve" text-anchor="start" x="48.5" y="-161.5" font-family="Open Sans" font-size="10.00">Log-Txt "   -> Copy complete: Found RunLogs in the Results path: $resultsPath\RunLogs"           </text></g><!-- ifs_block_7&#45;&gt;terminator_block_8 --><g id="edge7" class="edge"><title>ifs_block_7->terminator_block_8</title><path fill="none" stroke="black" d="M730.032,-231.908C646.393,-219.637 495.762,-197.536 390.591,-182.106"/><polygon fill="black" stroke="black" points="390.961,-178.623 380.559,-180.634 389.945,-185.549 390.961,-178.623"/><text xml:space="preserve" text-anchor="start" x="565" y="-201.5" font-family="Open Sans" font-weight="bold" font-size="10.00"> True </text><polyline fill="none" stroke="Black" points="595,-197.5 499.075,-197.5 "/></g><!-- terminator_block_9 --><g id="node9" class="node"><title>terminator_block_9</title><ellipse fill="url(#g-terminatorfhjcz3oryvte29)" stroke="black" cx="796" cy="-164" rx="223.538" ry="18"/><text xml:space="preserve" text-anchor="start" x="614" y="-161.5" font-family="Open Sans" font-size="10.00">Log-Txt "   -> Something happened :( No RunLogs DIR found at: $resultsPath"</text></g><!-- ifs_block_7&#45;&gt;terminator_block_9 --><g id="edge8" class="edge"><title>ifs_block_7->terminator_block_9</title><path fill="none" stroke="black" d="M792.908,-223.754C793.399,-214.426 794.016,-202.691 794.57,-192.165"/><polygon fill="black" stroke="black" points="798.065,-192.347 795.096,-182.177 791.075,-191.98 798.065,-192.347"/><text xml:space="preserve" text-anchor="start" x="795" y="-201.5" font-family="Open Sans" font-weight="bold" font-size="10.00"> False </text><polyline fill="none" stroke="Black" points="826,-197.5 794.253,-197.5 "/></g><!-- ifs_block_11 --><g id="node11" class="node"><title>ifs_block_11</title><polygon fill="url(#g-decisionfhjcz3oryvte29)" stroke="black" points="1219,-260 1089.7,-242 1219,-224 1348.3,-242 1219,-260"/><text xml:space="preserve" text-anchor="start" x="1149" y="-239.5" font-family="Open Sans" font-size="10.00">Test-Path $asmtPath\Results</text></g><!-- process_block_10&#45;&gt;ifs_block_11 --><g id="edge10" class="edge"><title>process_block_10->ifs_block_11</title><path fill="none" stroke="black" d="M1219,-291.659C1219,-285.193 1219,-277.682 1219,-270.525"/><polygon fill="black" stroke="black" points="1222.5,-270.454 1219,-260.454 1215.5,-270.454 1222.5,-270.454"/></g><!-- process_block_12 --><g id="node12" class="node"><title>process_block_12</title><polygon fill="url(#g-processfhjcz3oryvte29)" stroke="black" points="1388,-182 1044,-182 1044,-146 1388,-146 1388,-182"/><text xml:space="preserve" text-anchor="start" x="1051" y="-161.5" font-family="Open Sans" font-size="10.00">Log-Txt "   -> Found $asmtPath\Results. Copying logs to this location"</text></g><!-- ifs_block_11&#45;&gt;process_block_12 --><g id="edge11" class="edge"><title>ifs_block_11->process_block_12</title><path fill="none" stroke="black" d="M1218.32,-223.754C1217.95,-214.523 1217.5,-202.935 1217.09,-192.495"/><polygon fill="black" stroke="black" points="1220.57,-192.031 1216.68,-182.177 1213.58,-192.308 1220.57,-192.031"/><text xml:space="preserve" text-anchor="start" x="1218" y="-201.5" font-family="Open Sans" font-weight="bold" font-size="10.00"> True </text><polyline fill="none" stroke="Black" points="1248,-197.5 1217.32,-197.5 "/></g><!-- terminator_block_16 --><g id="node16" class="node"><title>terminator_block_16</title><ellipse fill="url(#g-terminatorfhjcz3oryvte29)" stroke="black" cx="1536" cy="-164" rx="125.078" ry="18"/><text xml:space="preserve" text-anchor="start" x="1437.5" y="-161.5" font-family="Open Sans" font-size="10.00">Log-Txt "...Didn't find $asmtPath\Results"</text></g><!-- ifs_block_11&#45;&gt;terminator_block_16 --><g id="edge15" class="edge"><title>ifs_block_11->terminator_block_16</title><path fill="none" stroke="black" d="M1264.08,-230.192C1316.3,-217.672 1403.01,-196.884 1464.46,-182.151"/><polygon fill="black" stroke="black" points="1465.57,-185.484 1474.48,-179.749 1463.94,-178.677 1465.57,-185.484"/><text xml:space="preserve" text-anchor="start" x="1396" y="-201.5" font-family="Open Sans" font-weight="bold" font-size="10.00"> False </text><polyline fill="none" stroke="Black" points="1427,-197.5 1401.28,-197.5 "/></g><!-- ifs_block_13 --><g id="node13" class="node"><title>ifs_block_13</title><polygon fill="url(#g-decisionfhjcz3oryvte29)" stroke="black" points="1216,-114 1052,-96 1216,-78 1380,-96 1216,-114"/><text xml:space="preserve" text-anchor="start" x="1125.5" y="-93.5" font-family="Open Sans" font-size="10.00">Test-Path $asmtPath\Results\Runlogs</text></g><!-- process_block_12&#45;&gt;ifs_block_13 --><g id="edge12" class="edge"><title>process_block_12->ifs_block_13</title><path fill="none" stroke="black" d="M1216,-145.659C1216,-139.193 1216,-131.682 1216,-124.525"/><polygon fill="black" stroke="black" points="1219.5,-124.454 1216,-114.454 1212.5,-124.454 1219.5,-124.454"/></g><!-- terminator_block_14 --><g id="node14" class="node"><title>terminator_block_14</title><ellipse fill="url(#g-terminatorfhjcz3oryvte29)" stroke="black" cx="948" cy="-18" rx="290.2" ry="18"/><text xml:space="preserve" text-anchor="start" x="709" y="-15.5" font-family="Open Sans" font-size="10.00">Log-Txt "   -> Copy complete: Found RunLogs in the Results path: $asmtPath\Results\RunLogs"          </text></g><!-- ifs_block_13&#45;&gt;terminator_block_14 --><g id="edge13" class="edge"><title>ifs_block_13->terminator_block_14</title><path fill="none" stroke="black" d="M1172.64,-82.7048C1130.51,-70.7566 1065.87,-52.4257 1016.73,-38.4898"/><polygon fill="black" stroke="black" points="1017.38,-35.0367 1006.8,-35.6756 1015.47,-41.7711 1017.38,-35.0367"/><text xml:space="preserve" text-anchor="start" x="1099" y="-55.5" font-family="Open Sans" font-weight="bold" font-size="10.00"> True </text><polyline fill="none" stroke="Black" points="1129,-51.5 1061.02,-51.5 "/></g><!-- terminator_block_15 --><g id="node15" class="node"><title>terminator_block_15</title><ellipse fill="url(#g-terminatorfhjcz3oryvte29)" stroke="black" cx="1485" cy="-18" rx="223.538" ry="18"/><text xml:space="preserve" text-anchor="start" x="1303" y="-15.5" font-family="Open Sans" font-size="10.00">Log-Txt "   -> Something happened :( No RunLogs DIR found at: $resultsPath"</text></g><!-- ifs_block_13&#45;&gt;terminator_block_15 --><g id="edge14" class="edge"><title>ifs_block_13->terminator_block_15</title><path fill="none" stroke="black" d="M1259.52,-82.7048C1302.18,-70.6529 1367.82,-52.107 1417.3,-38.1279"/><polygon fill="black" stroke="black" points="1418.29,-41.4833 1426.97,-35.3962 1416.39,-34.747 1418.29,-41.4833"/><text xml:space="preserve" text-anchor="start" x="1366" y="-55.5" font-family="Open Sans" font-weight="bold" font-size="10.00"> False </text><polyline fill="none" stroke="Black" points="1397,-51.5 1367.37,-51.5 "/></g></g></svg>