<?xml version="1.0" encoding="UTF-8" standalone="no"?><!DOCTYPE svg PUBLIC "-//W3C//DTD SVG 1.1//EN" "http://www.w3.org/Graphics/SVG/1.1/DTD/svg11.dtd"><!-- Generated by graphviz version 2.35.0 (20140103.1005) --><!-- Title: FlowChart Pages: 1 --><svg width="600pt" height="367pt" viewBox="0.00 0.00 600 367.3" xmlns="http://www.w3.org/2000/svg" xmlns:xlink="http://www.w3.org/1999/xlink"><defs><linearGradient id="g-terminatorqa3hut2er60f6r" x1="0%" x2="100%" y1="0%" y2="0%" spreadMethod="pad"><stop offset="0%" stop-color="#ff8787" stop-opacity="1"/><stop offset="100%" stop-color="#ffb9b9" stop-opacity="1"/></linearGradient><linearGradient id="g-decisionqa3hut2er60f6r" x1="0%" x2="100%" y1="0%" y2="0%" spreadMethod="pad"><stop offset="0%" stop-color="#ffd287" stop-opacity="1"/><stop offset="100%" stop-color="#ffffb9" stop-opacity="1"/></linearGradient><linearGradient id="g-processqa3hut2er60f6r" x1="0%" x2="100%" y1="0%" y2="0%" spreadMethod="pad"><stop offset="0%" stop-color="#99ff99" stop-opacity="1"/><stop offset="100%" stop-color="#cbffcb" stop-opacity="1"/></linearGradient><linearGradient id="g-defaultqa3hut2er60f6r" x1="0%" x2="100%" y1="0%" y2="0%" spreadMethod="pad"><stop offset="0%" stop-color="#99ff99" stop-opacity="1"/><stop offset="100%" stop-color="#cbffcb" stop-opacity="1"/></linearGradient><linearGradient id="g-moduleqa3hut2er60f6r" x1="0%" x2="100%" y1="0%" y2="0%" spreadMethod="pad"><stop offset="0%" stop-color="#77c1e4" stop-opacity="1"/><stop offset="100%" stop-color="#a9f3ff" stop-opacity="1"/></linearGradient><linearGradient id="g-dataioqa3hut2er60f6r" x1="0%" x2="100%" y1="0%" y2="0%" spreadMethod="pad"><stop offset="0%" stop-color="#bebebe" stop-opacity="1"/><stop offset="100%" stop-color="#f0f0f0" stop-opacity="1"/></linearGradient><linearGradient id="g-preparationqa3hut2er60f6r" x1="0%" x2="100%" y1="0%" y2="0%" spreadMethod="pad"><stop offset="0%" stop-color="#bebebe" stop-opacity="1"/><stop offset="100%" stop-color="#f0f0f0" stop-opacity="1"/></linearGradient><linearGradient id="g-commentqa3hut2er60f6r" x1="0%" x2="100%" y1="0%" y2="0%" spreadMethod="pad"><stop offset="0%" stop-color="#f5f588" stop-opacity="1"/><stop offset="100%" stop-color="#ffffba" stop-opacity="1"/></linearGradient><linearGradient id="g-manualqa3hut2er60f6r" x1="0%" x2="100%" y1="0%" y2="0%" spreadMethod="pad"><stop offset="0%" stop-color="#9e78ff" stop-opacity="1"/><stop offset="100%" stop-color="#d0aaff" stop-opacity="1"/></linearGradient><filter id="dropshadowqa3hut2er60f6r" height="150%" width="150%"><feGaussianBlur in="SourceAlpha" stdDeviation="3"/><feOffset dx="2" dy="2" result="offsetblur"/><feComponentTransfer/><feMerge><feMergeNode/><feMergeNode in="SourceGraphic"/></feMerge></filter></defs><g id="flowqa3hut2er60f6r" class="graph" transform="scale(0.500421 0.500421) rotate(0) translate(4 720)"><title>FlowChart</title><!-- terminator_block_1 --><g id="node1" class="node"><title>terminator_block_1</title><ellipse fill="url(#g-terminatorqa3hut2er60f6r)" stroke="black" cx="947" cy="-698" rx="81.2375" ry="18"/><text xml:space="preserve" text-anchor="start" x="885.5" y="-695.5" font-family="Open Sans" font-size="10.00">function Create-RunCMD()</text></g><!-- process_block_2 --><g id="node2" class="node"><title>process_block_2</title><polygon fill="url(#g-processqa3hut2er60f6r)" stroke="black" points="1104.5,-648 789.5,-648 789.5,-584 1104.5,-584 1104.5,-648"/><text xml:space="preserve" text-anchor="start" x="924.5" y="-634" font-family="Open Sans" font-size="10.00">Log-Txt "</text><text xml:space="preserve" text-anchor="start" x="965.5" y="-634" font-family="Open Sans" font-style="italic" font-size="10.00">"</text><text xml:space="preserve" text-anchor="start" x="796" y="-624" font-family="Open Sans" font-style="italic" font-size="10.00">Log-Txt "...Creating RunCMD.CMD (command to run on asmt exit)"</text><text xml:space="preserve" text-anchor="start" x="921" y="-614" font-family="Open Sans" font-style="italic" font-size="10.00">Log-Txt "</text><text xml:space="preserve" text-anchor="start" x="960" y="-614" font-family="Open Sans" font-style="italic" font-size="10.00">"   </text><text xml:space="preserve" text-anchor="start" x="803.5" y="-604" font-family="Open Sans" font-style="italic" font-size="10.00">"timeout /t 15" | Out-File $RunCmd -Append -Encoding default</text><text xml:space="preserve" text-anchor="start" x="851.5" y="-594" font-family="Open Sans" font-style="italic" font-size="10.00">if(Check-AsmtString "&lt;RequiresBattery />")</text></g><!-- terminator_block_1&#45;&gt;process_block_2 --><g id="edge1" class="edge"><title>terminator_block_1->process_block_2</title><path fill="none" stroke="black" d="M947,-679.641C947,-673.322 947,-665.88 947,-658.373"/><polygon fill="black" stroke="black" points="950.5,-658.195 947,-648.195 943.5,-658.195 950.5,-658.195"/></g><!-- process_block_3 --><g id="node3" class="node"><title>process_block_3</title><polygon fill="url(#g-processqa3hut2er60f6r)" stroke="black" points="1116.25,-552 777.75,-552 777.75,-516 1116.25,-516 1116.25,-552"/><text xml:space="preserve" text-anchor="start" x="784.5" y="-531.5" font-family="Open Sans" font-size="10.00">"$asmtPath\on.cmd" | Out-File $RunCmd -Append -Encoding default</text></g><!-- process_block_2&#45;&gt;process_block_3 --><g id="edge2" class="edge"><title>process_block_2->process_block_3</title><path fill="none" stroke="black" d="M947,-583.841C947,-576.816 947,-569.408 947,-562.543"/><polygon fill="black" stroke="black" points="950.5,-562.337 947,-552.337 943.5,-562.337 950.5,-562.337"/></g><!-- process_block_4 --><g id="node4" class="node"><title>process_block_4</title><polygon fill="url(#g-processqa3hut2er60f6r)" stroke="black" points="1181.25,-484 712.75,-484 712.75,-426 1181.25,-426 1181.25,-484"/><text xml:space="preserve" text-anchor="start" x="719.5" y="-469" font-family="Open Sans" font-size="10.00">$jobEnergy = Check-AsmtString "&lt;ProgrammaticName>EnergyEfficiency&lt;/ProgrammaticName>"</text><text xml:space="preserve" text-anchor="start" x="803.5" y="-458" font-family="Open Sans" font-size="10.00">$jobMayReboot = Check-AsmtString "&lt;MayRebootSystem />"</text><text xml:space="preserve" text-anchor="start" x="726" y="-447" font-family="Open Sans" font-size="10.00">$jobHibernate = Check-AsmtString "&lt;ProgrammaticName>Hibernate&lt;/ProgrammaticName>"</text><text xml:space="preserve" text-anchor="start" x="736" y="-436" font-family="Open Sans" font-size="10.00">$jobStandby = Check-AsmtString "&lt;ProgrammaticName>Standby&lt;/ProgrammaticName>"</text></g><!-- process_block_3&#45;&gt;process_block_4 --><g id="edge3" class="edge"><title>process_block_3->process_block_4</title><path fill="none" stroke="black" d="M947,-515.911C947,-509.514 947,-501.962 947,-494.413"/><polygon fill="black" stroke="black" points="950.5,-494.231 947,-484.231 943.5,-494.231 950.5,-494.231"/></g><!-- ifs_block_5 --><g id="node5" class="node"><title>ifs_block_5</title><polygon fill="url(#g-decisionqa3hut2er60f6r)" stroke="black" points="947,-394 871.862,-376 947,-358 1022.14,-376 947,-394"/><text xml:space="preserve" text-anchor="start" x="909.5" y="-373.5" font-family="Open Sans" font-size="10.00">$jobMayReboot</text></g><!-- process_block_4&#45;&gt;ifs_block_5 --><g id="edge4" class="edge"><title>process_block_4->ifs_block_5</title><path fill="none" stroke="black" d="M947,-425.765C947,-418.78 947,-411.308 947,-404.365"/><polygon fill="black" stroke="black" points="950.5,-404.035 947,-394.035 943.5,-404.035 950.5,-404.035"/></g><!-- ifs_block_6 --><g id="node6" class="node"><title>ifs_block_6</title><polygon fill="url(#g-decisionqa3hut2er60f6r)" stroke="black" points="759,-316 548.568,-298 759,-280 969.432,-298 759,-316"/><text xml:space="preserve" text-anchor="start" x="640.5" y="-295.5" font-family="Open Sans" font-size="10.00">($jobStandby) -or ($jobHibernate) -or ($jobEnergy)</text></g><!-- ifs_block_5&#45;&gt;ifs_block_6 --><g id="edge5" class="edge"><title>ifs_block_5->ifs_block_6</title><path fill="none" stroke="black" d="M920.463,-364.272C890.08,-351.99 839.824,-331.674 803.441,-316.966"/><polygon fill="black" stroke="black" points="804.627,-313.67 794.044,-313.167 802.003,-320.159 804.627,-313.67"/><text xml:space="preserve" text-anchor="start" x="864" y="-335.5" font-family="Open Sans" font-weight="bold" font-size="10.00"> True </text><polyline fill="none" stroke="Black" points="894,-331.5 840.585,-331.5 "/></g><!-- ifs_block_9 --><g id="node9" class="node"><title>ifs_block_9</title><polygon fill="url(#g-decisionqa3hut2er60f6r)" stroke="black" points="759,-114 667.638,-96 759,-78 850.362,-96 759,-114"/><text xml:space="preserve" text-anchor="start" x="712" y="-93.5" font-family="Open Sans" font-size="10.00">Test-Path $RunCmd</text></g><!-- ifs_block_5&#45;&gt;ifs_block_9 --><g id="edge10" class="edge"><title>ifs_block_5->ifs_block_9</title><path fill="none" stroke="black" d="M957.961,-360.526C986.227,-321.327 1055.74,-211.654 1002,-146 981.074,-120.433 897.842,-107.909 834.566,-101.978"/><polygon fill="black" stroke="black" points="834.868,-98.4915 824.595,-101.082 834.242,-105.463 834.868,-98.4915"/><text xml:space="preserve" text-anchor="start" x="1013" y="-257.5" font-family="Open Sans" font-weight="bold" font-size="10.00"> False </text><polyline fill="none" stroke="Black" points="1044,-253.5 1013.86,-253.5 "/></g><!-- process_block_7 --><g id="node7" class="node"><title>process_block_7</title><polygon fill="url(#g-processqa3hut2er60f6r)" stroke="black" points="504.25,-210 -0.25,-210 -0.25,-174 504.25,-174 504.25,-210"/><text xml:space="preserve" text-anchor="start" x="6.5" y="-195" font-family="Open Sans" font-size="10.00">Log-Txt "   -> Assessment is Standby, Hibernate, or Energy and doesn't require additional configuring"   </text><text xml:space="preserve" text-anchor="start" x="223.5" y="-184" font-family="Open Sans" font-size="10.00">return         </text></g><!-- ifs_block_6&#45;&gt;process_block_7 --><g id="edge6" class="edge"><title>ifs_block_6->process_block_7</title><path fill="none" stroke="black" d="M700.345,-284.968C613.228,-267.098 448.801,-233.37 345.118,-212.101"/><polygon fill="black" stroke="black" points="345.778,-208.664 335.278,-210.083 344.371,-215.521 345.778,-208.664"/><text xml:space="preserve" text-anchor="start" x="596" y="-257.5" font-family="Open Sans" font-weight="bold" font-size="10.00"> True </text><polyline fill="none" stroke="Black" points="626,-253.5 547.144,-253.5 "/></g><!-- process_block_8 --><g id="node8" class="node"><title>process_block_8</title><polygon fill="url(#g-processqa3hut2er60f6r)" stroke="black" points="990.5,-237.5 527.5,-237.5 527.5,-146.5 990.5,-146.5 990.5,-237.5"/><text xml:space="preserve" text-anchor="start" x="576.5" y="-222.5" font-family="Open Sans" font-size="10.00">Log-Txt "...Assessment performs system Restart and requires extra cleanup"</text><text xml:space="preserve" text-anchor="start" x="581" y="-211.5" font-family="Open Sans" font-size="10.00">Log-Txt "   -> Adding WTTCMD /resetpolicy and /cancelreboot to $RunCmd"</text><text xml:space="preserve" text-anchor="start" x="593" y="-200.5" font-family="Open Sans" font-size="10.00">"wttcmd /ResetPolicy" | Out-File $RunCmd -Append -Encoding default</text><text xml:space="preserve" text-anchor="start" x="557.5" y="-189.5" font-family="Open Sans" font-size="10.00">"WTTCMD /EAReboot /CancelReboot" | Out-File $RunCmd -Append -Encoding default</text><text xml:space="preserve" text-anchor="start" x="580.5" y="-178.5" font-family="Open Sans" font-size="10.00">"CMD /c del /F /Q $exitFile" | Out-File $RunCmd -Append -Encoding default</text><text xml:space="preserve" text-anchor="start" x="534" y="-167.5" font-family="Open Sans" font-size="10.00">'schtasks /delete /tn "ResumeAsmtMonitor" /f ' | Out-File $RunCmd -Append -Encoding default</text><text xml:space="preserve" text-anchor="start" x="603" y="-156.5" font-family="Open Sans" font-size="10.00">"shutdown /r /t 5" | Out-File $RunCmd -Append -Encoding default</text></g><!-- ifs_block_6&#45;&gt;process_block_8 --><g id="edge7" class="edge"><title>ifs_block_6->process_block_8</title><path fill="none" stroke="black" d="M759,-279.827C759,-270.902 759,-259.445 759,-247.8"/><polygon fill="black" stroke="black" points="762.5,-247.577 759,-237.577 755.5,-247.577 762.5,-247.577"/><text xml:space="preserve" text-anchor="start" x="759" y="-257.5" font-family="Open Sans" font-weight="bold" font-size="10.00"> False </text><polyline fill="none" stroke="Black" points="790,-253.5 759,-253.5 "/></g><!-- process_block_7&#45;&gt;ifs_block_9 --><g id="edge8" class="edge"><title>process_block_7->ifs_block_9</title><path fill="none" stroke="black" d="M343.814,-173.977C449.081,-154.46 618.188,-123.107 704.497,-107.105"/><polygon fill="black" stroke="black" points="705.156,-110.543 714.35,-105.278 703.88,-103.66 705.156,-110.543"/></g><!-- process_block_8&#45;&gt;ifs_block_9 --><g id="edge9" class="edge"><title>process_block_8->ifs_block_9</title><path fill="none" stroke="black" d="M759,-146.477C759,-139.004 759,-131.446 759,-124.563"/><polygon fill="black" stroke="black" points="762.5,-124.412 759,-114.412 755.5,-124.412 762.5,-124.412"/></g><!-- terminator_block_10 --><g id="node10" class="node"><title>terminator_block_10</title><ellipse fill="url(#g-terminatorqa3hut2er60f6r)" stroke="black" cx="627" cy="-18" rx="142.185" ry="18"/><text xml:space="preserve" text-anchor="start" x="514" y="-15.5" font-family="Open Sans" font-size="10.00">Log-Txt "   -> Successfully created $RunCmd."    </text></g><!-- ifs_block_9&#45;&gt;terminator_block_10 --><g id="edge11" class="edge"><title>ifs_block_9->terminator_block_10</title><path fill="none" stroke="black" d="M736.906,-82.2793C717.339,-71.0133 688.349,-54.322 665.055,-40.9103"/><polygon fill="black" stroke="black" points="666.527,-37.7196 656.115,-35.763 663.035,-43.7859 666.527,-37.7196"/><text xml:space="preserve" text-anchor="start" x="701" y="-55.5" font-family="Open Sans" font-weight="bold" font-size="10.00"> True </text><polyline fill="none" stroke="Black" points="731,-51.5 683.357,-51.5 "/></g><!-- terminator_block_11 --><g id="node11" class="node"><title>terminator_block_11</title><ellipse fill="url(#g-terminatorqa3hut2er60f6r)" stroke="black" cx="891" cy="-18" rx="97.9607" ry="18"/><text xml:space="preserve" text-anchor="start" x="815.5" y="-15.5" font-family="Open Sans" font-size="10.00">Log-Txt "...Didn't find $RunCmd"</text></g><!-- ifs_block_9&#45;&gt;terminator_block_11 --><g id="edge12" class="edge"><title>ifs_block_9->terminator_block_11</title><path fill="none" stroke="black" d="M781.094,-82.2793C800.791,-70.9387 830.036,-54.1007 853.407,-40.6442"/><polygon fill="black" stroke="black" points="855.448,-43.5079 862.368,-35.485 851.956,-37.4415 855.448,-43.5079"/><text xml:space="preserve" text-anchor="start" x="832" y="-55.5" font-family="Open Sans" font-weight="bold" font-size="10.00"> False </text><polyline fill="none" stroke="Black" points="863,-51.5 835.018,-51.5 "/></g></g></svg>