<?xml version="1.0" encoding="UTF-8" standalone="no"?><!DOCTYPE svg PUBLIC "-//W3C//DTD SVG 1.1//EN" "http://www.w3.org/Graphics/SVG/1.1/DTD/svg11.dtd"><!-- Generated by graphviz version 2.35.0 (20140103.1005) --><!-- Title: FlowChart Pages: 1 --><svg width="483pt" height="409pt" viewBox="0.00 0.00 483 409" xmlns="http://www.w3.org/2000/svg" xmlns:xlink="http://www.w3.org/1999/xlink"><defs><linearGradient id="g-terminatorboysfsbp4x6r" x1="0%" x2="100%" y1="0%" y2="0%" spreadMethod="pad"><stop offset="0%" stop-color="#ff8787" stop-opacity="1"/><stop offset="100%" stop-color="#ffb9b9" stop-opacity="1"/></linearGradient><linearGradient id="g-decisionboysfsbp4x6r" x1="0%" x2="100%" y1="0%" y2="0%" spreadMethod="pad"><stop offset="0%" stop-color="#ffd287" stop-opacity="1"/><stop offset="100%" stop-color="#ffffb9" stop-opacity="1"/></linearGradient><linearGradient id="g-processboysfsbp4x6r" x1="0%" x2="100%" y1="0%" y2="0%" spreadMethod="pad"><stop offset="0%" stop-color="#99ff99" stop-opacity="1"/><stop offset="100%" stop-color="#cbffcb" stop-opacity="1"/></linearGradient><linearGradient id="g-defaultboysfsbp4x6r" x1="0%" x2="100%" y1="0%" y2="0%" spreadMethod="pad"><stop offset="0%" stop-color="#99ff99" stop-opacity="1"/><stop offset="100%" stop-color="#cbffcb" stop-opacity="1"/></linearGradient><linearGradient id="g-moduleboysfsbp4x6r" x1="0%" x2="100%" y1="0%" y2="0%" spreadMethod="pad"><stop offset="0%" stop-color="#77c1e4" stop-opacity="1"/><stop offset="100%" stop-color="#a9f3ff" stop-opacity="1"/></linearGradient><linearGradient id="g-dataioboysfsbp4x6r" x1="0%" x2="100%" y1="0%" y2="0%" spreadMethod="pad"><stop offset="0%" stop-color="#bebebe" stop-opacity="1"/><stop offset="100%" stop-color="#f0f0f0" stop-opacity="1"/></linearGradient><linearGradient id="g-preparationboysfsbp4x6r" x1="0%" x2="100%" y1="0%" y2="0%" spreadMethod="pad"><stop offset="0%" stop-color="#bebebe" stop-opacity="1"/><stop offset="100%" stop-color="#f0f0f0" stop-opacity="1"/></linearGradient><linearGradient id="g-commentboysfsbp4x6r" x1="0%" x2="100%" y1="0%" y2="0%" spreadMethod="pad"><stop offset="0%" stop-color="#f5f588" stop-opacity="1"/><stop offset="100%" stop-color="#ffffba" stop-opacity="1"/></linearGradient><linearGradient id="g-manualboysfsbp4x6r" x1="0%" x2="100%" y1="0%" y2="0%" spreadMethod="pad"><stop offset="0%" stop-color="#9e78ff" stop-opacity="1"/><stop offset="100%" stop-color="#d0aaff" stop-opacity="1"/></linearGradient><filter id="dropshadowboysfsbp4x6r" height="150%" width="150%"><feGaussianBlur in="SourceAlpha" stdDeviation="3"/><feOffset dx="2" dy="2" result="offsetblur"/><feComponentTransfer/><feMerge><feMergeNode/><feMergeNode in="SourceGraphic"/></feMerge></filter></defs><g id="flowboysfsbp4x6r" class="graph" transform="scale(1 1) rotate(0) translate(4 400)"><title>FlowChart</title><!-- terminator_block_1 --><g id="node1" class="node"><title>terminator_block_1</title><ellipse fill="url(#g-terminatorboysfsbp4x6r)" stroke="black" cx="292" cy="-378" rx="105.056" ry="18"/><text xml:space="preserve" text-anchor="start" x="210.5" y="-375.5" font-family="Open Sans" font-size="10.00">function Load-JobFile($pathToFile)</text></g><!-- ifs_block_2 --><g id="node2" class="node"><title>ifs_block_2</title><polygon fill="url(#g-decisionboysfsbp4x6r)" stroke="black" points="292,-328 190.654,-310 292,-292 393.346,-310 292,-328"/><text xml:space="preserve" text-anchor="start" x="239" y="-307.5" font-family="Open Sans" font-size="10.00">Test-Path $pathToFile</text></g><!-- terminator_block_1&#45;&gt;ifs_block_2 --><g id="edge1" class="edge"><title>terminator_block_1->ifs_block_2</title><path fill="none" stroke="black" d="M292,-359.659C292,-353.193 292,-345.682 292,-338.525"/><polygon fill="black" stroke="black" points="295.5,-338.454 292,-328.454 288.5,-338.454 295.5,-338.454"/></g><!-- process_block_3 --><g id="node3" class="node"><title>process_block_3</title><polygon fill="url(#g-processboysfsbp4x6r)" stroke="black" points="298,-250 136,-250 136,-214 298,-214 298,-250"/><text xml:space="preserve" text-anchor="start" x="150.5" y="-235" font-family="Open Sans" font-size="10.00">Log-Txt "...Load target file"  </text><text xml:space="preserve" text-anchor="start" x="143" y="-224" font-family="Open Sans" font-size="10.00">$file = get-content $pathToFile</text></g><!-- ifs_block_2&#45;&gt;process_block_3 --><g id="edge2" class="edge"><title>ifs_block_2->process_block_3</title><path fill="none" stroke="black" d="M277.539,-294.346C267.246,-283.916 253.172,-269.654 241.184,-257.507"/><polygon fill="black" stroke="black" points="243.557,-254.929 234.042,-250.269 238.575,-259.846 243.557,-254.929"/><text xml:space="preserve" text-anchor="start" x="259" y="-269.5" font-family="Open Sans" font-weight="bold" font-size="10.00"> True </text><polyline fill="none" stroke="Black" points="289,-265.5 248.109,-265.5 "/></g><!-- terminator_block_6 --><g id="node6" class="node"><title>terminator_block_6</title><ellipse fill="url(#g-terminatorboysfsbp4x6r)" stroke="black" cx="267" cy="-18" rx="203.516" ry="18"/><text xml:space="preserve" text-anchor="start" x="102" y="-15.5" font-family="Open Sans" font-size="10.00">Log-Txt "   :( Something went wrong. Didn't find a file at: $pathToFile"</text></g><!-- ifs_block_2&#45;&gt;terminator_block_6 --><g id="edge7" class="edge"><title>ifs_block_2->terminator_block_6</title><path fill="none" stroke="black" d="M305.652,-294.253C317.579,-279.789 333,-256.537 333,-233 333,-233 333,-233 333,-85 333,-67.3902 321.107,-52.838 307.418,-41.9206"/><polygon fill="black" stroke="black" points="309.361,-39.0057 299.227,-35.9171 305.223,-44.6516 309.361,-39.0057"/><text xml:space="preserve" text-anchor="start" x="333" y="-162.5" font-family="Open Sans" font-weight="bold" font-size="10.00"> False </text><polyline fill="none" stroke="Black" points="364,-158.5 333,-158.5 "/></g><!-- ifs_block_4 --><g id="node4" class="node"><title>ifs_block_4</title><polygon fill="url(#g-decisionboysfsbp4x6r)" stroke="black" points="217,-182 186.793,-164 217,-146 247.207,-164 217,-182"/><text xml:space="preserve" text-anchor="start" x="206.5" y="-161.5" font-family="Open Sans" font-size="10.00">$file</text></g><!-- process_block_3&#45;&gt;ifs_block_4 --><g id="edge3" class="edge"><title>process_block_3->ifs_block_4</title><path fill="none" stroke="black" d="M217,-213.659C217,-207.193 217,-199.682 217,-192.525"/><polygon fill="black" stroke="black" points="220.5,-192.454 217,-182.454 213.5,-192.454 220.5,-192.454"/></g><!-- process_block_5 --><g id="node5" class="node"><title>process_block_5</title><polygon fill="url(#g-processboysfsbp4x6r)" stroke="black" points="220.25,-104 -0.25,-104 -0.25,-68 220.25,-68 220.25,-104"/><text xml:space="preserve" text-anchor="start" x="6.5" y="-89" font-family="Open Sans" font-size="10.00">Log-Txt "   -> File loaded from: $pathToFile"</text><text xml:space="preserve" text-anchor="start" x="83" y="-78" font-family="Open Sans" font-size="10.00">return $file</text></g><!-- ifs_block_4&#45;&gt;process_block_5 --><g id="edge4" class="edge"><title>ifs_block_4->process_block_5</title><path fill="none" stroke="black" d="M203.88,-153.681C188.675,-142.881 163.068,-124.693 142.435,-110.038"/><polygon fill="black" stroke="black" points="144.409,-107.147 134.23,-104.21 140.356,-112.854 144.409,-107.147"/><text xml:space="preserve" text-anchor="start" x="170" y="-123.5" font-family="Open Sans" font-weight="bold" font-size="10.00"> True </text><polyline fill="none" stroke="Black" points="200,-119.5 154.464,-119.5 "/></g><!-- ifs_block_4&#45;&gt;terminator_block_6 --><g id="edge6" class="edge"><title>ifs_block_4->terminator_block_6</title><path fill="none" stroke="black" d="M221.977,-148.666C230.277,-124.762 247.074,-76.3861 257.641,-45.9543"/><polygon fill="black" stroke="black" points="260.99,-46.978 260.964,-36.3832 254.378,-44.6819 260.99,-46.978"/><text xml:space="preserve" text-anchor="start" x="250" y="-84.5" font-family="Open Sans" font-weight="bold" font-size="10.00"> False </text><polyline fill="none" stroke="Black" points="281,-80.5 245.747,-80.5 "/></g><!-- process_block_5&#45;&gt;terminator_block_6 --><g id="edge5" class="edge"><title>process_block_5->terminator_block_6</title><path fill="none" stroke="black" d="M150.84,-67.8316C171.338,-59.2144 196.327,-48.7098 217.868,-39.6544"/><polygon fill="black" stroke="black" points="219.316,-42.8421 227.179,-35.7402 216.604,-36.3891 219.316,-42.8421"/></g></g></svg>