<?xml version="1.0" encoding="UTF-8" standalone="no"?><!DOCTYPE svg PUBLIC "-//W3C//DTD SVG 1.1//EN" "http://www.w3.org/Graphics/SVG/1.1/DTD/svg11.dtd"><!-- Generated by graphviz version 2.35.0 (20140103.1005) --><!-- Title: FlowChart Pages: 1 --><svg width="403pt" height="409pt" viewBox="0.00 0.00 403 409" xmlns="http://www.w3.org/2000/svg" xmlns:xlink="http://www.w3.org/1999/xlink"><defs><linearGradient id="g-terminatorznmwvlqwoecdi" x1="0%" x2="100%" y1="0%" y2="0%" spreadMethod="pad"><stop offset="0%" stop-color="#ff8787" stop-opacity="1"/><stop offset="100%" stop-color="#ffb9b9" stop-opacity="1"/></linearGradient><linearGradient id="g-decisionznmwvlqwoecdi" x1="0%" x2="100%" y1="0%" y2="0%" spreadMethod="pad"><stop offset="0%" stop-color="#ffd287" stop-opacity="1"/><stop offset="100%" stop-color="#ffffb9" stop-opacity="1"/></linearGradient><linearGradient id="g-processznmwvlqwoecdi" x1="0%" x2="100%" y1="0%" y2="0%" spreadMethod="pad"><stop offset="0%" stop-color="#99ff99" stop-opacity="1"/><stop offset="100%" stop-color="#cbffcb" stop-opacity="1"/></linearGradient><linearGradient id="g-defaultznmwvlqwoecdi" x1="0%" x2="100%" y1="0%" y2="0%" spreadMethod="pad"><stop offset="0%" stop-color="#99ff99" stop-opacity="1"/><stop offset="100%" stop-color="#cbffcb" stop-opacity="1"/></linearGradient><linearGradient id="g-moduleznmwvlqwoecdi" x1="0%" x2="100%" y1="0%" y2="0%" spreadMethod="pad"><stop offset="0%" stop-color="#77c1e4" stop-opacity="1"/><stop offset="100%" stop-color="#a9f3ff" stop-opacity="1"/></linearGradient><linearGradient id="g-dataioznmwvlqwoecdi" x1="0%" x2="100%" y1="0%" y2="0%" spreadMethod="pad"><stop offset="0%" stop-color="#bebebe" stop-opacity="1"/><stop offset="100%" stop-color="#f0f0f0" stop-opacity="1"/></linearGradient><linearGradient id="g-preparationznmwvlqwoecdi" x1="0%" x2="100%" y1="0%" y2="0%" spreadMethod="pad"><stop offset="0%" stop-color="#bebebe" stop-opacity="1"/><stop offset="100%" stop-color="#f0f0f0" stop-opacity="1"/></linearGradient><linearGradient id="g-commentznmwvlqwoecdi" x1="0%" x2="100%" y1="0%" y2="0%" spreadMethod="pad"><stop offset="0%" stop-color="#f5f588" stop-opacity="1"/><stop offset="100%" stop-color="#ffffba" stop-opacity="1"/></linearGradient><linearGradient id="g-manualznmwvlqwoecdi" x1="0%" x2="100%" y1="0%" y2="0%" spreadMethod="pad"><stop offset="0%" stop-color="#9e78ff" stop-opacity="1"/><stop offset="100%" stop-color="#d0aaff" stop-opacity="1"/></linearGradient><filter id="dropshadowznmwvlqwoecdi" height="150%" width="150%"><feGaussianBlur in="SourceAlpha" stdDeviation="3"/><feOffset dx="2" dy="2" result="offsetblur"/><feComponentTransfer/><feMerge><feMergeNode/><feMergeNode in="SourceGraphic"/></feMerge></filter></defs><g id="flowznmwvlqwoecdi" class="graph" transform="scale(1 1) rotate(0) translate(4 400)"><title>FlowChart</title><!-- terminator_block_1 --><g id="node1" class="node"><title>terminator_block_1</title><ellipse fill="url(#g-terminatorznmwvlqwoecdi)" stroke="black" cx="236" cy="-378" rx="85.0347" ry="18"/><text xml:space="preserve" text-anchor="start" x="171.5" y="-375.5" font-family="Open Sans" font-size="10.00">function Log-Txt($txtToLog)</text></g><!-- ifs_block_2 --><g id="node2" class="node"><title>ifs_block_2</title><polygon fill="url(#g-decisionznmwvlqwoecdi)" stroke="black" points="236,-328 141.892,-310 236,-292 330.108,-310 236,-328"/><text xml:space="preserve" text-anchor="start" x="187.5" y="-307.5" font-family="Open Sans" font-size="10.00">(Test-Path $logpath)</text></g><!-- terminator_block_1&#45;&gt;ifs_block_2 --><g id="edge1" class="edge"><title>terminator_block_1->ifs_block_2</title><path fill="none" stroke="black" d="M236,-359.659C236,-353.193 236,-345.682 236,-338.525"/><polygon fill="black" stroke="black" points="239.5,-338.454 236,-328.454 232.5,-338.454 239.5,-338.454"/></g><!-- process_block_3 --><g id="node3" class="node"><title>process_block_3</title><polygon fill="url(#g-processznmwvlqwoecdi)" stroke="black" points="230.25,-250 -0.25,-250 -0.25,-214 230.25,-214 230.25,-250"/><text xml:space="preserve" text-anchor="start" x="6.5" y="-235" font-family="Open Sans" font-size="10.00">New-Item -Path $logpath -ItemType directory</text><text xml:space="preserve" text-anchor="start" x="20.5" y="-224" font-family="Open Sans" font-size="10.00">Log-Txt "   -> Log DIR created: $logpath"</text></g><!-- ifs_block_2&#45;&gt;process_block_3 --><g id="edge2" class="edge"><title>ifs_block_2->process_block_3</title><path fill="none" stroke="black" d="M215.199,-295.935C197.581,-284.869 171.919,-268.751 150.977,-255.597"/><polygon fill="black" stroke="black" points="152.658,-252.52 142.328,-250.165 148.935,-258.447 152.658,-252.52"/><text xml:space="preserve" text-anchor="start" x="183" y="-269.5" font-family="Open Sans" font-weight="bold" font-size="10.00"> False </text><polyline fill="none" stroke="Black" points="214,-265.5 167.369,-265.5 "/></g><!-- process_block_4 --><g id="node4" class="node"><title>process_block_4</title><polygon fill="url(#g-processznmwvlqwoecdi)" stroke="black" points="390,-182 68,-182 68,-146 390,-146 390,-182"/><text xml:space="preserve" text-anchor="start" x="75" y="-167" font-family="Open Sans" font-size="10.00">$txtToLog = (Get-Date).ToString("yyyy/MM/dd HH:m: ")+$txtTolog</text><text xml:space="preserve" text-anchor="start" x="177" y="-156" font-family="Open Sans" font-size="10.00">Write-Host $txtToLog </text></g><!-- ifs_block_2&#45;&gt;process_block_4 --><g id="edge4" class="edge"><title>ifs_block_2->process_block_4</title><path fill="none" stroke="black" d="M238.591,-292.466C241.17,-273.467 244.304,-241.383 241,-214 240.126,-206.756 238.55,-199.037 236.821,-191.92"/><polygon fill="black" stroke="black" points="240.156,-190.839 234.243,-182.048 233.384,-192.608 240.156,-190.839"/><text xml:space="preserve" text-anchor="start" x="243" y="-230.5" font-family="Open Sans" font-weight="bold" font-size="10.00"> True </text><polyline fill="none" stroke="Black" points="273,-226.5 242.104,-226.5 "/></g><!-- process_block_3&#45;&gt;process_block_4 --><g id="edge3" class="edge"><title>process_block_3->process_block_4</title><path fill="none" stroke="black" d="M144.655,-213.832C158.641,-205.734 175.505,-195.971 190.467,-187.309"/><polygon fill="black" stroke="black" points="192.593,-190.122 199.494,-182.082 189.086,-184.064 192.593,-190.122"/></g><!-- ifs_block_5 --><g id="node5" class="node"><title>ifs_block_5</title><polygon fill="url(#g-decisionznmwvlqwoecdi)" stroke="black" points="229,-114 141.882,-96 229,-78 316.118,-96 229,-114"/><text xml:space="preserve" text-anchor="start" x="184.5" y="-93.5" font-family="Open Sans" font-size="10.00">test-path $logpath</text></g><!-- process_block_4&#45;&gt;ifs_block_5 --><g id="edge5" class="edge"><title>process_block_4->ifs_block_5</title><path fill="none" stroke="black" d="M229,-145.659C229,-139.193 229,-131.682 229,-124.525"/><polygon fill="black" stroke="black" points="232.5,-124.454 229,-114.454 225.5,-124.454 232.5,-124.454"/></g><!-- terminator_block_6 --><g id="node6" class="node"><title>terminator_block_6</title><ellipse fill="url(#g-terminatorznmwvlqwoecdi)" stroke="black" cx="229" cy="-18" rx="125.461" ry="18"/><text xml:space="preserve" text-anchor="start" x="130" y="-15.5" font-family="Open Sans" font-size="10.00">$txtToLog | Out-File $log -Append            </text></g><!-- ifs_block_5&#45;&gt;terminator_block_6 --><g id="edge6" class="edge"><title>ifs_block_5->terminator_block_6</title><path fill="none" stroke="black" d="M229,-77.7544C229,-68.5232 229,-56.9348 229,-46.4946"/><polygon fill="black" stroke="black" points="232.5,-46.1773 229,-36.1773 225.5,-46.1774 232.5,-46.1773"/><text xml:space="preserve" text-anchor="start" x="229" y="-55.5" font-family="Open Sans" font-weight="bold" font-size="10.00"> True </text><polyline fill="none" stroke="Black" points="259,-51.5 229,-51.5 "/></g></g></svg>