<?xml version="1.0" encoding="UTF-8" standalone="no"?><!DOCTYPE svg PUBLIC "-//W3C//DTD SVG 1.1//EN" "http://www.w3.org/Graphics/SVG/1.1/DTD/svg11.dtd"><!-- Generated by graphviz version 2.35.0 (20140103.1005) --><!-- Title: FlowChart Pages: 1 --><svg width="600pt" height="740pt" viewBox="0.00 0.00 600 739.73" xmlns="http://www.w3.org/2000/svg" xmlns:xlink="http://www.w3.org/1999/xlink"><defs><linearGradient id="g-terminator5swkzrwc5o2yb9" x1="0%" x2="100%" y1="0%" y2="0%" spreadMethod="pad"><stop offset="0%" stop-color="#ff8787" stop-opacity="1"/><stop offset="100%" stop-color="#ffb9b9" stop-opacity="1"/></linearGradient><linearGradient id="g-decision5swkzrwc5o2yb9" x1="0%" x2="100%" y1="0%" y2="0%" spreadMethod="pad"><stop offset="0%" stop-color="#ffd287" stop-opacity="1"/><stop offset="100%" stop-color="#ffffb9" stop-opacity="1"/></linearGradient><linearGradient id="g-process5swkzrwc5o2yb9" x1="0%" x2="100%" y1="0%" y2="0%" spreadMethod="pad"><stop offset="0%" stop-color="#99ff99" stop-opacity="1"/><stop offset="100%" stop-color="#cbffcb" stop-opacity="1"/></linearGradient><linearGradient id="g-default5swkzrwc5o2yb9" x1="0%" x2="100%" y1="0%" y2="0%" spreadMethod="pad"><stop offset="0%" stop-color="#99ff99" stop-opacity="1"/><stop offset="100%" stop-color="#cbffcb" stop-opacity="1"/></linearGradient><linearGradient id="g-module5swkzrwc5o2yb9" x1="0%" x2="100%" y1="0%" y2="0%" spreadMethod="pad"><stop offset="0%" stop-color="#77c1e4" stop-opacity="1"/><stop offset="100%" stop-color="#a9f3ff" stop-opacity="1"/></linearGradient><linearGradient id="g-dataio5swkzrwc5o2yb9" x1="0%" x2="100%" y1="0%" y2="0%" spreadMethod="pad"><stop offset="0%" stop-color="#bebebe" stop-opacity="1"/><stop offset="100%" stop-color="#f0f0f0" stop-opacity="1"/></linearGradient><linearGradient id="g-preparation5swkzrwc5o2yb9" x1="0%" x2="100%" y1="0%" y2="0%" spreadMethod="pad"><stop offset="0%" stop-color="#bebebe" stop-opacity="1"/><stop offset="100%" stop-color="#f0f0f0" stop-opacity="1"/></linearGradient><linearGradient id="g-comment5swkzrwc5o2yb9" x1="0%" x2="100%" y1="0%" y2="0%" spreadMethod="pad"><stop offset="0%" stop-color="#f5f588" stop-opacity="1"/><stop offset="100%" stop-color="#ffffba" stop-opacity="1"/></linearGradient><linearGradient id="g-manual5swkzrwc5o2yb9" x1="0%" x2="100%" y1="0%" y2="0%" spreadMethod="pad"><stop offset="0%" stop-color="#9e78ff" stop-opacity="1"/><stop offset="100%" stop-color="#d0aaff" stop-opacity="1"/></linearGradient><filter id="dropshadow5swkzrwc5o2yb9" height="150%" width="150%"><feGaussianBlur in="SourceAlpha" stdDeviation="3"/><feOffset dx="2" dy="2" result="offsetblur"/><feComponentTransfer/><feMerge><feMergeNode/><feMergeNode in="SourceGraphic"/></feMerge></filter></defs><g id="flow5swkzrwc5o2yb9" class="graph" transform="scale(0.357357 0.357357) rotate(0) translate(4 2052)"><title>FlowChart</title><!-- terminator_block_1 --><g id="node1" class="node"><title>terminator_block_1</title><ellipse fill="url(#g-terminator5swkzrwc5o2yb9)" stroke="black" cx="1435" cy="-2030" rx="75.4067" ry="18"/><text xml:space="preserve" text-anchor="start" x="1378.5" y="-2027.5" font-family="Open Sans" font-size="10.00">function Monitor-Asmt()</text></g><!-- process_block_2 --><g id="node2" class="node"><title>process_block_2</title><polygon fill="url(#g-process5swkzrwc5o2yb9)" stroke="black" points="1656.25,-1980 1213.75,-1980 1213.75,-1866 1656.25,-1866 1656.25,-1980"/><text xml:space="preserve" text-anchor="start" x="1386.5" y="-1966" font-family="Open Sans" font-size="10.00">$axeProcess = "axe"</text><text xml:space="preserve" text-anchor="start" x="1371.5" y="-1956" font-family="Open Sans" font-size="10.00">$energyProcess = "energy"</text><text xml:space="preserve" text-anchor="start" x="1313" y="-1946" font-family="Open Sans" font-size="10.00">$localVidWorkload = "localvideoplaybackworkload"</text><text xml:space="preserve" text-anchor="start" x="1389.5" y="-1936" font-family="Open Sans" font-size="10.00">$fasProcess = "fas"</text><text xml:space="preserve" text-anchor="start" x="1369.5" y="-1926" font-family="Open Sans" font-size="10.00">$asmtRunning = "False"      </text><text xml:space="preserve" text-anchor="start" x="1412.5" y="-1916" font-family="Open Sans" font-size="10.00">Log-Txt "</text><text xml:space="preserve" text-anchor="start" x="1453.5" y="-1916" font-family="Open Sans" font-style="italic" font-size="10.00">"</text><text xml:space="preserve" text-anchor="start" x="1337" y="-1906" font-family="Open Sans" font-style="italic" font-size="10.00">Log-Txt "...Monitoring assessment progress"</text><text xml:space="preserve" text-anchor="start" x="1413.5" y="-1896" font-family="Open Sans" font-style="italic" font-size="10.00">Log-Txt "</text><text xml:space="preserve" text-anchor="start" x="1452.5" y="-1896" font-family="Open Sans" font-style="italic" font-size="10.00">"</text><text xml:space="preserve" text-anchor="start" x="1220.5" y="-1886" font-family="Open Sans" font-style="italic" font-size="10.00">$jobFastStart = Check-AsmtString "&lt;ProgrammaticName>Fast-Startup&lt;/ProgrammaticName>"</text><text xml:space="preserve" text-anchor="start" x="1312" y="-1876" font-family="Open Sans" font-style="italic" font-size="10.00">$jobString =Check-AsmtString "&lt;MayRebootSystem />"</text></g><!-- terminator_block_1&#45;&gt;process_block_2 --><g id="edge1" class="edge"><title>terminator_block_1->process_block_2</title><path fill="none" stroke="black" d="M1435,-2011.66C1435,-2005.52 1435,-1998.19 1435,-1990.42"/><polygon fill="black" stroke="black" points="1438.5,-1990.39 1435,-1980.39 1431.5,-1990.39 1438.5,-1990.39"/></g><!-- ifs_block_3 --><g id="node3" class="node"><title>ifs_block_3</title><polygon fill="url(#g-decision5swkzrwc5o2yb9)" stroke="black" points="1435,-1834 1285.98,-1816 1435,-1798 1584.02,-1816 1435,-1834"/><text xml:space="preserve" text-anchor="start" x="1353.5" y="-1813.5" font-family="Open Sans" font-size="10.00">($jobString) -and (!( $jobFastStart))</text></g><!-- process_block_2&#45;&gt;ifs_block_3 --><g id="edge2" class="edge"><title>process_block_2->ifs_block_3</title><path fill="none" stroke="black" d="M1435,-1865.81C1435,-1858.44 1435,-1851.17 1435,-1844.57"/><polygon fill="black" stroke="black" points="1438.5,-1844.23 1435,-1834.23 1431.5,-1844.23 1438.5,-1844.23"/></g><!-- process_block_4 --><g id="node4" class="node"><title>process_block_4</title><polygon fill="url(#g-process5swkzrwc5o2yb9)" stroke="black" points="1455.25,-1755.5 1012.75,-1755.5 1012.75,-1708.5 1455.25,-1708.5 1455.25,-1755.5"/><text xml:space="preserve" text-anchor="start" x="1164.5" y="-1740.5" font-family="Open Sans" font-size="10.00">RunningRestartAsmt = "True"</text><text xml:space="preserve" text-anchor="start" x="1189" y="-1729.5" font-family="Open Sans" font-size="10.00">$sleepTimer = 120</text><text xml:space="preserve" text-anchor="start" x="1019.5" y="-1718.5" font-family="Open Sans" font-size="10.00">Log-Txt "   -> MayRebootSystem tag found. Sleep timer set to: $sleepTimer"                       </text></g><!-- ifs_block_3&#45;&gt;process_block_4 --><g id="edge3" class="edge"><title>ifs_block_3->process_block_4</title><path fill="none" stroke="black" d="M1402.71,-1801.83C1374.81,-1790.45 1333.64,-1773.65 1298.96,-1759.5"/><polygon fill="black" stroke="black" points="1299.94,-1756.12 1289.36,-1755.59 1297.3,-1762.6 1299.94,-1756.12"/><text xml:space="preserve" text-anchor="start" x="1353" y="-1775.5" font-family="Open Sans" font-weight="bold" font-size="10.00"> True </text><polyline fill="none" stroke="Black" points="1383,-1771.5 1329.32,-1771.5 "/></g><!-- process_block_5 --><g id="node5" class="node"><title>process_block_5</title><polygon fill="url(#g-process5swkzrwc5o2yb9)" stroke="black" points="1559.25,-1676 1296.75,-1676 1296.75,-1640 1559.25,-1640 1559.25,-1676"/><text xml:space="preserve" text-anchor="start" x="1303.5" y="-1655.5" font-family="Open Sans" font-size="10.00">$jobString = Check-AsmtString "&lt;RequiresBattery />"</text></g><!-- ifs_block_3&#45;&gt;process_block_5 --><g id="edge5" class="edge"><title>ifs_block_3->process_block_5</title><path fill="none" stroke="black" d="M1446.25,-1798.83C1453.47,-1787.44 1462.18,-1771.5 1466,-1756 1471.11,-1735.29 1472.91,-1728.18 1466,-1708 1463.09,-1699.51 1458.05,-1691.35 1452.57,-1684.21"/><polygon fill="black" stroke="black" points="1455.11,-1681.8 1446.04,-1676.33 1449.73,-1686.27 1455.11,-1681.8"/><text xml:space="preserve" text-anchor="start" x="1471" y="-1730.5" font-family="Open Sans" font-weight="bold" font-size="10.00"> False </text><polyline fill="none" stroke="Black" points="1502,-1726.5 1470.38,-1726.5 "/></g><!-- process_block_4&#45;&gt;process_block_5 --><g id="edge4" class="edge"><title>process_block_4->process_block_5</title><path fill="none" stroke="black" d="M1294.85,-1708.42C1319.77,-1699.17 1348.4,-1688.54 1372.71,-1679.52"/><polygon fill="black" stroke="black" points="1373.99,-1682.78 1382.15,-1676.02 1371.55,-1676.22 1373.99,-1682.78"/></g><!-- ifs_block_6 --><g id="node6" class="node"><title>ifs_block_6</title><polygon fill="url(#g-decision5swkzrwc5o2yb9)" stroke="black" points="1428,-1608 1375.08,-1590 1428,-1572 1480.92,-1590 1428,-1608"/><text xml:space="preserve" text-anchor="start" x="1404" y="-1587.5" font-family="Open Sans" font-size="10.00">$jobString</text></g><!-- process_block_5&#45;&gt;ifs_block_6 --><g id="edge6" class="edge"><title>process_block_5->ifs_block_6</title><path fill="none" stroke="black" d="M1428,-1639.66C1428,-1633.19 1428,-1625.68 1428,-1618.52"/><polygon fill="black" stroke="black" points="1431.5,-1618.45 1428,-1608.45 1424.5,-1618.45 1431.5,-1618.45"/></g><!-- process_block_7 --><g id="node7" class="node"><title>process_block_7</title><polygon fill="url(#g-process5swkzrwc5o2yb9)" stroke="black" points="1440,-1530 1074,-1530 1074,-1494 1440,-1494 1440,-1530"/><text xml:space="preserve" text-anchor="start" x="1212" y="-1515" font-family="Open Sans" font-size="10.00">$sleepTimer = 300</text><text xml:space="preserve" text-anchor="start" x="1081" y="-1504" font-family="Open Sans" font-size="10.00">Log-Txt "   ->&lt;RequiresBattery tag found. Sleep timer set to: $sleepTimer"</text></g><!-- ifs_block_6&#45;&gt;process_block_7 --><g id="edge7" class="edge"><title>ifs_block_6->process_block_7</title><path fill="none" stroke="black" d="M1405.99,-1579.22C1380.63,-1567.94 1338.17,-1549.08 1305.06,-1534.36"/><polygon fill="black" stroke="black" points="1306.11,-1531 1295.55,-1530.13 1303.26,-1537.39 1306.11,-1531"/><text xml:space="preserve" text-anchor="start" x="1353" y="-1549.5" font-family="Open Sans" font-weight="bold" font-size="10.00"> True </text><polyline fill="none" stroke="Black" points="1383,-1545.5 1331.23,-1545.5 "/></g><!-- nop_block_8 --><g id="node8" class="node"><title>nop_block_8</title><ellipse fill="black" stroke="black" cx="1421" cy="-1460" rx="1.8" ry="1.8"/><text xml:space="preserve" text-anchor="start" x="1416.2" y="-1465.8" font-family="Open Sans" font-weight="bold" font-size="10.00"> </text></g><!-- ifs_block_6&#45;&gt;nop_block_8 --><g id="edge9" class="edge"><title>ifs_block_6->nop_block_8</title><path fill="none" stroke="black" d="M1436.67,-1574.81C1447.03,-1555.92 1461.71,-1521.7 1451,-1494 1446.85,-1483.26 1437.39,-1473.86 1430.2,-1467.87"/><polygon fill="black" stroke="black" points="1432.08,-1464.9 1422,-1461.66 1427.86,-1470.49 1432.08,-1464.9"/><text xml:space="preserve" text-anchor="start" x="1455" y="-1510.5" font-family="Open Sans" font-weight="bold" font-size="10.00"> False </text><polyline fill="none" stroke="Black" points="1486,-1506.5 1454.27,-1506.5 "/></g><!-- process_block_7&#45;&gt;nop_block_8 --><g id="edge8" class="edge"><title>process_block_7->nop_block_8</title><path fill="none" stroke="black" d="M1312.98,-1493.93C1350.99,-1482.34 1397.32,-1468.22 1414.33,-1463.03"/><polyline fill="none" stroke="black" points="1419.47,-1461.47 1414.68,-1462.93 "/></g><!-- process_block_9 --><g id="node9" class="node"><title>process_block_9</title><polygon fill="url(#g-process5swkzrwc5o2yb9)" stroke="black" points="1333,-1425.5 783,-1425.5 783,-1378.5 1333,-1378.5 1333,-1425.5"/><text xml:space="preserve" text-anchor="start" x="943.5" y="-1410.5" font-family="Open Sans" font-size="10.00">Log-Txt "...Checking for running asmt processes"</text><text xml:space="preserve" text-anchor="start" x="790" y="-1399.5" font-family="Open Sans" font-size="10.00">$asmtRunning = gps $axeProcess, $energyProcess, $localVidWorkload, $fasProcess -ErrorAction SilentlyContinue</text><text xml:space="preserve" text-anchor="start" x="973" y="-1388.5" font-family="Open Sans" font-size="10.00">$asmtRunningSave = $asmtRunning</text></g><!-- nop_block_8&#45;&gt;process_block_9 --><g id="edge10" class="edge"><title>nop_block_8->process_block_9</title><path fill="none" stroke="black" d="M1419.38,-1458.75C1405.54,-1456.61 1305.36,-1441.16 1213.98,-1427.06"/><polygon fill="black" stroke="black" points="1214.45,-1423.59 1204.03,-1425.53 1213.38,-1430.51 1214.45,-1423.59"/></g><!-- ifs_block_10 --><g id="node10" class="node"><title>ifs_block_10</title><polygon fill="url(#g-decision5swkzrwc5o2yb9)" stroke="black" points="968,-1346 898.605,-1328 968,-1310 1037.39,-1328 968,-1346"/><text xml:space="preserve" text-anchor="start" x="934" y="-1325.5" font-family="Open Sans" font-size="10.00">$asmtRunning</text></g><!-- process_block_9&#45;&gt;ifs_block_10 --><g id="edge11" class="edge"><title>process_block_9->ifs_block_10</title><path fill="none" stroke="black" d="M1029.52,-1378.22C1017.51,-1368.6 1003.66,-1357.53 992.154,-1348.32"/><polygon fill="black" stroke="black" points="994.241,-1345.51 984.246,-1342 989.868,-1350.98 994.241,-1345.51"/></g><!-- process_block_11 --><g id="node11" class="node"><title>process_block_11</title><polygon fill="url(#g-process5swkzrwc5o2yb9)" stroke="black" points="921,-1268 465,-1268 465,-1210 921,-1210 921,-1268"/><text xml:space="preserve" text-anchor="start" x="472" y="-1253" font-family="Open Sans" font-size="10.00">Log-Txt "   -> Found an assessment process. Sleep and check again in $sleepTimer seconds."</text><text xml:space="preserve" text-anchor="start" x="642.5" y="-1242" font-family="Open Sans" font-size="10.00">log-txt $asmtRunning</text><text xml:space="preserve" text-anchor="start" x="599.5" y="-1231" font-family="Open Sans" font-size="10.00">Log-Txt "asmtRunning = $asmtRunning"</text><text xml:space="preserve" text-anchor="start" x="638" y="-1220" font-family="Open Sans" font-size="10.00">$asmtRunning = "True"</text></g><!-- ifs_block_10&#45;&gt;process_block_11 --><g id="edge12" class="edge"><title>ifs_block_10->process_block_11</title><path fill="none" stroke="black" d="M938.309,-1317.61C903.269,-1306.52 843.196,-1287.52 791.27,-1271.09"/><polygon fill="black" stroke="black" points="792.267,-1267.73 781.677,-1268.05 790.155,-1274.41 792.267,-1267.73"/><text xml:space="preserve" text-anchor="start" x="864" y="-1287.5" font-family="Open Sans" font-weight="bold" font-size="10.00"> True </text><polyline fill="none" stroke="Black" points="894,-1283.5 831.223,-1283.5 "/></g><!-- ifs_block_15 --><g id="node15" class="node"><title>ifs_block_15</title><polygon fill="url(#g-decision5swkzrwc5o2yb9)" stroke="black" points="837,-964 767.605,-946 837,-928 906.395,-946 837,-964"/><text xml:space="preserve" text-anchor="start" x="803" y="-943.5" font-family="Open Sans" font-size="10.00">$asmtRunning</text></g><!-- ifs_block_10&#45;&gt;ifs_block_15 --><g id="edge18" class="edge"><title>ifs_block_10->ifs_block_15</title><path fill="none" stroke="black" d="M968,-1310C968,-1292.46 968,-1264.32 968,-1240 968,-1240 968,-1240 968,-1013 968,-977.885 929.994,-961.45 894.925,-953.759"/><polygon fill="black" stroke="black" points="895.154,-950.237 884.665,-951.728 893.794,-957.103 895.154,-950.237"/><text xml:space="preserve" text-anchor="start" x="968" y="-1119.5" font-family="Open Sans" font-weight="bold" font-size="10.00"> False </text><polyline fill="none" stroke="Black" points="999,-1115.5 968,-1115.5 "/></g><!-- ifs_block_12 --><g id="node12" class="node"><title>ifs_block_12</title><polygon fill="url(#g-decision5swkzrwc5o2yb9)" stroke="black" points="657,-1178 381.666,-1160 657,-1142 932.334,-1160 657,-1178"/><text xml:space="preserve" text-anchor="start" x="499.5" y="-1157.5" font-family="Open Sans" font-size="10.00">(Get-WmiObject win32_battery).estimatedChargeRemaining -le 70</text></g><!-- process_block_11&#45;&gt;ifs_block_12 --><g id="edge13" class="edge"><title>process_block_11->ifs_block_12</title><path fill="none" stroke="black" d="M679.799,-1209.77C676.323,-1202.33 672.588,-1194.34 669.169,-1187.03"/><polygon fill="black" stroke="black" points="672.161,-1185.16 664.755,-1177.59 665.819,-1188.13 672.161,-1185.16"/></g><!-- process_block_13 --><g id="node13" class="node"><title>process_block_13</title><polygon fill="url(#g-process5swkzrwc5o2yb9)" stroke="black" points="846,-1100 204,-1100 204,-1064 846,-1064 846,-1100"/><text xml:space="preserve" text-anchor="start" x="211" y="-1079.5" font-family="Open Sans" font-size="10.00">Start-Process KeepAlive.exe -WorkingDirectory "$PSScriptRoot\KeepAlive\amd64\Release\" -ArgumentList "/interval 10"                    </text></g><!-- ifs_block_12&#45;&gt;process_block_13 --><g id="edge14" class="edge"><title>ifs_block_12->process_block_13</title><path fill="none" stroke="black" d="M630.288,-1143.62C611.172,-1132.61 585.143,-1117.63 563.748,-1105.31"/><polygon fill="black" stroke="black" points="565.309,-1102.17 554.896,-1100.21 561.816,-1108.24 565.309,-1102.17"/><text xml:space="preserve" text-anchor="start" x="599" y="-1119.5" font-family="Open Sans" font-weight="bold" font-size="10.00"> True </text><polyline fill="none" stroke="Black" points="629,-1115.5 580.482,-1115.5 "/></g><!-- process_block_14 --><g id="node14" class="node"><title>process_block_14</title><polygon fill="url(#g-process5swkzrwc5o2yb9)" stroke="black" points="917.25,-1032 756.75,-1032 756.75,-996 917.25,-996 917.25,-1032"/><text xml:space="preserve" text-anchor="start" x="763.5" y="-1011.5" font-family="Open Sans" font-size="10.00">Start-Sleep -s $sleepTimer       </text></g><!-- ifs_block_12&#45;&gt;process_block_14 --><g id="edge16" class="edge"><title>ifs_block_12->process_block_14</title><path fill="none" stroke="black" d="M730.443,-1146.78C780.912,-1136.71 841.501,-1120.73 857,-1100 869.677,-1083.04 862.571,-1059.29 853.493,-1041.2"/><polygon fill="black" stroke="black" points="856.516,-1039.44 848.66,-1032.33 850.368,-1042.78 856.516,-1039.44"/><text xml:space="preserve" text-anchor="start" x="864" y="-1080.5" font-family="Open Sans" font-weight="bold" font-size="10.00"> False </text><polyline fill="none" stroke="Black" points="895,-1076.5 863.849,-1076.5 "/></g><!-- process_block_13&#45;&gt;process_block_14 --><g id="edge15" class="edge"><title>process_block_13->process_block_14</title><path fill="none" stroke="black" d="M605.754,-1063.92C648.894,-1054.79 702.129,-1043.53 746.643,-1034.11"/><polygon fill="black" stroke="black" points="747.526,-1037.5 756.585,-1032.01 746.077,-1030.66 747.526,-1037.5"/></g><!-- process_block_14&#45;&gt;ifs_block_15 --><g id="edge17" class="edge"><title>process_block_14->ifs_block_15</title><path fill="none" stroke="black" d="M837,-995.659C837,-989.193 837,-981.682 837,-974.525"/><polygon fill="black" stroke="black" points="840.5,-974.454 837,-964.454 833.5,-974.454 840.5,-974.454"/></g><!-- process_block_16 --><g id="node16" class="node"><title>process_block_16</title><polygon fill="url(#g-process5swkzrwc5o2yb9)" stroke="black" points="802,-885.5 334,-885.5 334,-838.5 802,-838.5 802,-885.5"/><text xml:space="preserve" text-anchor="start" x="341" y="-870.5" font-family="Open Sans" font-size="10.00">Log-Txt "   -> No assessment processes found. Checking for results presence at: $resultsPath  "</text><text xml:space="preserve" text-anchor="start" x="376" y="-859.5" font-family="Open Sans" font-size="10.00">Log-Txt "   -> Allow results time to write out. Sleep and check back in 5 seconds"</text><text xml:space="preserve" text-anchor="start" x="532" y="-848.5" font-family="Open Sans" font-size="10.00">Start-Sleep -s 5</text></g><!-- ifs_block_15&#45;&gt;process_block_16 --><g id="edge19" class="edge"><title>ifs_block_15->process_block_16</title><path fill="none" stroke="black" d="M806.665,-935.753C769.347,-924.377 704.463,-904.598 651.759,-888.533"/><polygon fill="black" stroke="black" points="652.655,-885.147 642.069,-885.579 650.614,-891.843 652.655,-885.147"/><text xml:space="preserve" text-anchor="start" x="727" y="-905.5" font-family="Open Sans" font-weight="bold" font-size="10.00"> False </text><polyline fill="none" stroke="Black" points="758,-901.5 692.95,-901.5 "/></g><!-- process_block_20 --><g id="node20" class="node"><title>process_block_20</title><polygon fill="url(#g-process5swkzrwc5o2yb9)" stroke="black" points="892.25,-591.5 507.75,-591.5 507.75,-434.5 892.25,-434.5 892.25,-591.5"/><text xml:space="preserve" text-anchor="start" x="514.5" y="-576.5" font-family="Open Sans" font-size="10.00">$currentCharge = (Get-WmiObject win32_battery).estimatedChargeRemaining</text><text xml:space="preserve" text-anchor="start" x="530.5" y="-565.5" font-family="Open Sans" font-size="10.00">$doesContainEnergy = $asmtRunningSave.ToString().Contains("energy")</text><text xml:space="preserve" text-anchor="start" x="598" y="-554.5" font-family="Open Sans" font-size="10.00">Log-Txt "-----------------------------------------------------"</text><text xml:space="preserve" text-anchor="start" x="595.5" y="-543.5" font-family="Open Sans" font-size="10.00">Log-Txt "asmtRunning = $asmtRunningSave"</text><text xml:space="preserve" text-anchor="start" x="573" y="-532.5" font-family="Open Sans" font-size="10.00">Log-Txt "Does Contain Energy = $doesContainEnergy"</text><text xml:space="preserve" text-anchor="start" x="607" y="-521.5" font-family="Open Sans" font-size="10.00">Log-Txt "Has been run = $hasBeenRun"</text><text xml:space="preserve" text-anchor="start" x="631" y="-510.5" font-family="Open Sans" font-size="10.00">Log-Txt "$asmtPath\Off.cmd"</text><text xml:space="preserve" text-anchor="start" x="585.5" y="-499.5" font-family="Open Sans" font-size="10.00">Log-Txt "localVidWorkload = $localVidWorkload"</text><text xml:space="preserve" text-anchor="start" x="617.5" y="-488.5" font-family="Open Sans" font-size="10.00">Log-Txt "fasProcess = $fasProcess"</text><text xml:space="preserve" text-anchor="start" x="604" y="-477.5" font-family="Open Sans" font-size="10.00">Log-Txt "Checking Iteration = $iteration"</text><text xml:space="preserve" text-anchor="start" x="599" y="-466.5" font-family="Open Sans" font-size="10.00">Log-Txt "Device Charge = $currentCharge" </text><text xml:space="preserve" text-anchor="start" x="598" y="-455.5" font-family="Open Sans" font-size="10.00">Log-Txt "-----------------------------------------------------"</text><text xml:space="preserve" text-anchor="start" x="637" y="-444.5" font-family="Open Sans" font-size="10.00">$iteration = $iteration + 1</text></g><!-- ifs_block_15&#45;&gt;process_block_20 --><g id="edge25" class="edge"><title>ifs_block_15->process_block_20</title><path fill="none" stroke="black" d="M837,-927.723C837,-911.128 837,-885.351 837,-863 837,-863 837,-863 837,-641 837,-626.255 832.679,-612.741 825.572,-600.487"/><polygon fill="black" stroke="black" points="828.305,-598.27 819.926,-591.787 822.434,-602.081 828.305,-598.27"/><text xml:space="preserve" text-anchor="start" x="837" y="-747.5" font-family="Open Sans" font-weight="bold" font-size="10.00"> True </text><polyline fill="none" stroke="Black" points="867,-743.5 837,-743.5 "/></g><!-- ifs_block_17 --><g id="node17" class="node"><title>ifs_block_17</title><polygon fill="url(#g-decision5swkzrwc5o2yb9)" stroke="black" points="568,-806 442.44,-788 568,-770 693.56,-788 568,-806"/><text xml:space="preserve" text-anchor="start" x="500.5" y="-785.5" font-family="Open Sans" font-size="10.00">Test-Path $resultsPath\job*</text></g><!-- process_block_16&#45;&gt;ifs_block_17 --><g id="edge20" class="edge"><title>process_block_16->ifs_block_17</title><path fill="none" stroke="black" d="M568,-838.219C568,-831.243 568,-823.499 568,-816.257"/><polygon fill="black" stroke="black" points="571.5,-816.154 568,-806.154 564.5,-816.154 571.5,-816.154"/></g><!-- process_block_18 --><g id="node18" class="node"><title>process_block_18</title><polygon fill="url(#g-process5swkzrwc5o2yb9)" stroke="black" points="707.25,-728 206.75,-728 206.75,-692 707.25,-692 707.25,-728"/><text xml:space="preserve" text-anchor="start" x="213.5" y="-708.5" font-family="Open Sans" font-size="10.00">Log-Txt "   -> No processes running and found results at $resultsPath\job</text><text xml:space="preserve" text-anchor="start" x="562.5" y="-708.5" font-family="Open Sans" font-style="italic" font-size="10.00">. Safe to exit..."                       </text></g><!-- ifs_block_17&#45;&gt;process_block_18 --><g id="edge21" class="edge"><title>ifs_block_17->process_block_18</title><path fill="none" stroke="black" d="M547.382,-772.883C531.469,-761.988 509.123,-746.688 490.632,-734.027"/><polygon fill="black" stroke="black" points="492.406,-731 482.178,-728.239 488.452,-736.776 492.406,-731"/><text xml:space="preserve" text-anchor="start" x="520" y="-747.5" font-family="Open Sans" font-weight="bold" font-size="10.00"> True </text><polyline fill="none" stroke="Black" points="550,-743.5 505.063,-743.5 "/></g><!-- process_block_19 --><g id="node19" class="node"><title>process_block_19</title><polygon fill="url(#g-process5swkzrwc5o2yb9)" stroke="black" points="793.25,-660 606.75,-660 606.75,-624 793.25,-624 793.25,-660"/><text xml:space="preserve" text-anchor="start" x="613.5" y="-639.5" font-family="Open Sans" font-size="10.00">$asmtRunning = "False"                    </text></g><!-- ifs_block_17&#45;&gt;process_block_19 --><g id="edge23" class="edge"><title>ifs_block_17->process_block_19</title><path fill="none" stroke="black" d="M630.932,-778.991C662.66,-771.416 698.464,-756.678 718,-728 729.752,-710.75 723.54,-687.314 715.351,-669.419"/><polygon fill="black" stroke="black" points="718.304,-667.499 710.7,-660.122 712.044,-670.631 718.304,-667.499"/><text xml:space="preserve" text-anchor="start" x="725" y="-708.5" font-family="Open Sans" font-weight="bold" font-size="10.00"> False </text><polyline fill="none" stroke="Black" points="756,-704.5 724.5,-704.5 "/></g><!-- process_block_18&#45;&gt;process_block_19 --><g id="edge22" class="edge"><title>process_block_18->process_block_19</title><path fill="none" stroke="black" d="M519.895,-691.918C552.788,-682.983 593.218,-672.003 627.432,-662.71"/><polygon fill="black" stroke="black" points="628.636,-666.01 637.369,-660.011 626.801,-659.254 628.636,-666.01"/></g><!-- process_block_19&#45;&gt;process_block_20 --><g id="edge24" class="edge"><title>process_block_19->process_block_20</title><path fill="none" stroke="black" d="M700,-623.872C700,-617.546 700,-609.869 700,-601.546"/><polygon fill="black" stroke="black" points="703.5,-601.521 700,-591.521 696.5,-601.521 703.5,-601.521"/></g><!-- ifs_block_21 --><g id="node21" class="node"><title>ifs_block_21</title><polygon fill="url(#g-decision5swkzrwc5o2yb9)" stroke="black" points="694,-402 0.048502,-384 694,-366 1387.95,-384 694,-402"/><text xml:space="preserve" text-anchor="start" x="285" y="-381.5" font-family="Open Sans" font-size="10.00">$asmtRunningSave.ToString().Contains("energy") -and (Get-WmiObject win32_battery).estimatedChargeRemaining -ge 99 -and $hasBeenRun -eq "false" -and $iteration -ge 3</text></g><!-- process_block_20&#45;&gt;ifs_block_21 --><g id="edge26" class="edge"><title>process_block_20->ifs_block_21</title><path fill="none" stroke="black" d="M696.337,-434.465C695.968,-426.657 695.613,-419.148 695.296,-412.441"/><polygon fill="black" stroke="black" points="698.771,-411.824 694.803,-402 691.779,-412.154 698.771,-411.824"/></g><!-- process_block_22 --><g id="node22" class="node"><title>process_block_22</title><polygon fill="url(#g-process5swkzrwc5o2yb9)" stroke="black" points="834.25,-273 295.75,-273 295.75,-215 834.25,-215 834.25,-273"/><text xml:space="preserve" text-anchor="start" x="302.5" y="-258" font-family="Open Sans" font-size="10.00">screenshot $bounds "$PSScriptRoot\results\$env:computername-$(get-date -f yyyy-MM-dd)-iter$iteration.png"</text><text xml:space="preserve" text-anchor="start" x="483" y="-247" font-family="Open Sans" font-size="10.00">$offCmd = $asmtPath + "\Off.cmd"</text><text xml:space="preserve" text-anchor="start" x="512.5" y="-236" font-family="Open Sans" font-size="10.00">Start-Process $offCmd</text><text xml:space="preserve" text-anchor="start" x="512.5" y="-225" font-family="Open Sans" font-size="10.00">$hasBeenRun = "true"</text></g><!-- ifs_block_21&#45;&gt;process_block_22 --><g id="edge27" class="edge"><title>ifs_block_21->process_block_22</title><path fill="none" stroke="black" d="M613.8,-368.048C589.527,-359.364 565.488,-345.65 551,-324 542.959,-311.983 543.741,-296.723 547.512,-282.825"/><polygon fill="black" stroke="black" points="550.939,-283.604 550.704,-273.012 544.283,-281.439 550.939,-283.604"/><text xml:space="preserve" text-anchor="start" x="579" y="-343.5" font-family="Open Sans" font-weight="bold" font-size="10.00"> True </text><polyline fill="none" stroke="Black" points="609,-339.5 563.511,-339.5 "/></g><!-- ifs_block_23 --><g id="node23" class="node"><title>ifs_block_23</title><polygon fill="url(#g-decision5swkzrwc5o2yb9)" stroke="black" points="975,-324 562.624,-306 975,-288 1387.38,-306 975,-324"/><text xml:space="preserve" text-anchor="start" x="735" y="-303.5" font-family="Open Sans" font-size="10.00">$asmtRunningSave.ToString().Contains("energy") -and $iteration -ge 60 -and $hasBeenRun -eq "false"</text></g><!-- ifs_block_21&#45;&gt;ifs_block_23 --><g id="edge28" class="edge"><title>ifs_block_21->ifs_block_23</title><path fill="none" stroke="black" d="M751.543,-367.437C797.96,-354.883 863.198,-337.238 911.206,-324.254"/><polygon fill="black" stroke="black" points="912.132,-327.629 920.871,-321.64 910.304,-320.872 912.132,-327.629"/><text xml:space="preserve" text-anchor="start" x="852" y="-343.5" font-family="Open Sans" font-weight="bold" font-size="10.00"> False </text><polyline fill="none" stroke="Black" points="883,-339.5 851.829,-339.5 "/></g><!-- ifs_block_25 --><g id="node25" class="node"><title>ifs_block_25</title><polygon fill="url(#g-decision5swkzrwc5o2yb9)" stroke="black" points="988,-120 875.919,-102 988,-84 1100.08,-102 988,-120"/><text xml:space="preserve" text-anchor="start" x="928.5" y="-99.5" font-family="Open Sans" font-size="10.00">$asmtRunning -eq "True"</text></g><!-- process_block_22&#45;&gt;ifs_block_25 --><g id="edge30" class="edge"><title>process_block_22->ifs_block_25</title><path fill="none" stroke="black" d="M628.534,-214.988C673.813,-195.682 736.434,-170.305 793,-152 839.286,-137.022 892.969,-123.83 932.277,-114.918"/><polygon fill="black" stroke="black" points="933.21,-118.295 942.201,-112.69 931.677,-111.465 933.21,-118.295"/></g><!-- process_block_24 --><g id="node24" class="node"><title>process_block_24</title><polygon fill="url(#g-process5swkzrwc5o2yb9)" stroke="black" points="982.5,-199.5 805.5,-199.5 805.5,-152.5 982.5,-152.5 982.5,-199.5"/><text xml:space="preserve" text-anchor="start" x="812" y="-184.5" font-family="Open Sans" font-size="10.00">$offCmd = $asmtPath + "\Off.cmd"</text><text xml:space="preserve" text-anchor="start" x="841.5" y="-173.5" font-family="Open Sans" font-size="10.00">Start-Process $offCmd</text><text xml:space="preserve" text-anchor="start" x="841.5" y="-162.5" font-family="Open Sans" font-size="10.00">$hasBeenRun = "true"</text></g><!-- ifs_block_23&#45;&gt;process_block_24 --><g id="edge29" class="edge"><title>ifs_block_23->process_block_24</title><path fill="none" stroke="black" d="M964.411,-288.266C951.598,-268.02 929.763,-233.514 913.798,-208.285"/><polygon fill="black" stroke="black" points="916.725,-206.366 908.42,-199.787 910.81,-210.109 916.725,-206.366"/><text xml:space="preserve" text-anchor="start" x="954" y="-242.5" font-family="Open Sans" font-weight="bold" font-size="10.00"> True </text><polyline fill="none" stroke="Black" points="984,-238.5 933.45,-238.5 "/></g><!-- ifs_block_23&#45;&gt;ifs_block_25 --><g id="edge32" class="edge"><title>ifs_block_23->ifs_block_25</title><path fill="none" stroke="black" d="M983.725,-288.119C985.817,-283.349 987.793,-278.073 989,-273 1000.77,-223.514 996.241,-163.608 992.022,-129.741"/><polygon fill="black" stroke="black" points="995.475,-129.157 990.684,-119.707 988.536,-130.082 995.475,-129.157"/><text xml:space="preserve" text-anchor="start" x="997" y="-174.5" font-family="Open Sans" font-weight="bold" font-size="10.00"> False </text><polyline fill="none" stroke="Black" points="1028,-170.5 995.689,-170.5 "/></g><!-- process_block_24&#45;&gt;ifs_block_25 --><g id="edge31" class="edge"><title>process_block_24->ifs_block_25</title><path fill="none" stroke="black" d="M923.484,-152.416C935.616,-143.124 949.564,-132.441 961.38,-123.39"/><polygon fill="black" stroke="black" points="963.741,-125.99 969.551,-117.131 959.484,-120.433 963.741,-125.99"/></g><!-- ifs_block_25&#45;&gt;nop_block_8 --><g id="edge33" class="edge"><title>ifs_block_25->nop_block_8</title><path fill="none" stroke="black" d="M1063.77,-107.926C1188.4,-117.057 1423,-139.022 1423,-175 1423,-1403 1423,-1403 1423,-1403 1423,-1418.32 1422.24,-1435.99 1421.66,-1447.31"/><polygon fill="black" stroke="black" points="1418.15,-1447.44 1421.09,-1457.62 1425.14,-1447.83 1418.15,-1447.44"/><text xml:space="preserve" text-anchor="start" x="1423" y="-860.5" font-family="Open Sans" font-weight="bold" font-size="10.00"> True </text><polyline fill="none" stroke="Black" points="1453,-856.5 1423,-856.5 "/></g><!-- terminator_block_26 --><g id="node26" class="node"><title>terminator_block_26</title><ellipse fill="url(#g-terminator5swkzrwc5o2yb9)" stroke="black" cx="988" cy="-21" rx="57.4743" ry="21.4286"/><text xml:space="preserve" text-anchor="start" x="955" y="-24" font-family="Open Sans" font-size="10.00">Cleanup-Run  </text><text xml:space="preserve" text-anchor="start" x="979" y="-13" font-family="Open Sans" font-size="10.00">Exit</text></g><!-- ifs_block_25&#45;&gt;terminator_block_26 --><g id="edge34" class="edge"><title>ifs_block_25->terminator_block_26</title><path fill="none" stroke="black" d="M988,-83.8582C988,-74.7368 988,-63.2437 988,-52.6468"/><polygon fill="black" stroke="black" points="991.5,-52.4697 988,-42.4697 984.5,-52.4697 991.5,-52.4697"/><text xml:space="preserve" text-anchor="start" x="988" y="-61.5" font-family="Open Sans" font-weight="bold" font-size="10.00"> False </text><polyline fill="none" stroke="Black" points="1019,-57.5 988,-57.5 "/></g></g></svg>