<?xml version="1.0" encoding="UTF-8" standalone="no"?><!DOCTYPE svg PUBLIC "-//W3C//DTD SVG 1.1//EN" "http://www.w3.org/Graphics/SVG/1.1/DTD/svg11.dtd"><!-- Generated by graphviz version 2.35.0 (20140103.1005) --><!-- Title: FlowChart Pages: 1 --><svg width="600pt" height="461pt" viewBox="0.00 0.00 600 461.4" xmlns="http://www.w3.org/2000/svg" xmlns:xlink="http://www.w3.org/1999/xlink"><defs><linearGradient id="g-terminator0aijbyuwzy3nmi" x1="0%" x2="100%" y1="0%" y2="0%" spreadMethod="pad"><stop offset="0%" stop-color="#ff8787" stop-opacity="1"/><stop offset="100%" stop-color="#ffb9b9" stop-opacity="1"/></linearGradient><linearGradient id="g-decision0aijbyuwzy3nmi" x1="0%" x2="100%" y1="0%" y2="0%" spreadMethod="pad"><stop offset="0%" stop-color="#ffd287" stop-opacity="1"/><stop offset="100%" stop-color="#ffffb9" stop-opacity="1"/></linearGradient><linearGradient id="g-process0aijbyuwzy3nmi" x1="0%" x2="100%" y1="0%" y2="0%" spreadMethod="pad"><stop offset="0%" stop-color="#99ff99" stop-opacity="1"/><stop offset="100%" stop-color="#cbffcb" stop-opacity="1"/></linearGradient><linearGradient id="g-default0aijbyuwzy3nmi" x1="0%" x2="100%" y1="0%" y2="0%" spreadMethod="pad"><stop offset="0%" stop-color="#99ff99" stop-opacity="1"/><stop offset="100%" stop-color="#cbffcb" stop-opacity="1"/></linearGradient><linearGradient id="g-module0aijbyuwzy3nmi" x1="0%" x2="100%" y1="0%" y2="0%" spreadMethod="pad"><stop offset="0%" stop-color="#77c1e4" stop-opacity="1"/><stop offset="100%" stop-color="#a9f3ff" stop-opacity="1"/></linearGradient><linearGradient id="g-dataio0aijbyuwzy3nmi" x1="0%" x2="100%" y1="0%" y2="0%" spreadMethod="pad"><stop offset="0%" stop-color="#bebebe" stop-opacity="1"/><stop offset="100%" stop-color="#f0f0f0" stop-opacity="1"/></linearGradient><linearGradient id="g-preparation0aijbyuwzy3nmi" x1="0%" x2="100%" y1="0%" y2="0%" spreadMethod="pad"><stop offset="0%" stop-color="#bebebe" stop-opacity="1"/><stop offset="100%" stop-color="#f0f0f0" stop-opacity="1"/></linearGradient><linearGradient id="g-comment0aijbyuwzy3nmi" x1="0%" x2="100%" y1="0%" y2="0%" spreadMethod="pad"><stop offset="0%" stop-color="#f5f588" stop-opacity="1"/><stop offset="100%" stop-color="#ffffba" stop-opacity="1"/></linearGradient><linearGradient id="g-manual0aijbyuwzy3nmi" x1="0%" x2="100%" y1="0%" y2="0%" spreadMethod="pad"><stop offset="0%" stop-color="#9e78ff" stop-opacity="1"/><stop offset="100%" stop-color="#d0aaff" stop-opacity="1"/></linearGradient><filter id="dropshadow0aijbyuwzy3nmi" height="150%" width="150%"><feGaussianBlur in="SourceAlpha" stdDeviation="3"/><feOffset dx="2" dy="2" result="offsetblur"/><feComponentTransfer/><feMerge><feMergeNode/><feMergeNode in="SourceGraphic"/></feMerge></filter></defs><g id="flow0aijbyuwzy3nmi" class="graph" transform="scale(0.765766 0.765766) rotate(0) translate(4 592)"><title>FlowChart</title><!-- terminator_block_1 --><g id="node1" class="node"><title>terminator_block_1</title><ellipse fill="url(#g-terminator0aijbyuwzy3nmi)" stroke="black" cx="516" cy="-570" rx="76.2892" ry="18"/><text xml:space="preserve" text-anchor="start" x="459" y="-567.5" font-family="Open Sans" font-size="10.00">function Prep-Machine()</text></g><!-- process_block_2 --><g id="node2" class="node"><title>process_block_2</title><polygon fill="url(#g-process0aijbyuwzy3nmi)" stroke="black" points="700.25,-520 331.75,-520 331.75,-446 700.25,-446 700.25,-520"/><text xml:space="preserve" text-anchor="start" x="493.5" y="-506" font-family="Open Sans" font-size="10.00">Log-Txt "</text><text xml:space="preserve" text-anchor="start" x="534.5" y="-506" font-family="Open Sans" font-style="italic" font-size="10.00">"</text><text xml:space="preserve" text-anchor="start" x="405" y="-496" font-family="Open Sans" font-style="italic" font-size="10.00">Log-Txt "...Prep test machine for assessment run"</text><text xml:space="preserve" text-anchor="start" x="488.5" y="-486" font-family="Open Sans" font-style="italic" font-size="10.00">Log-Txt "</text><text xml:space="preserve" text-anchor="start" x="527.5" y="-486" font-family="Open Sans" font-style="italic" font-size="10.00">"    </text><text xml:space="preserve" text-anchor="start" x="344.5" y="-476" font-family="Open Sans" font-style="italic" font-size="10.00">Run-Process WTTCMD "/SetPolicy /Policy:EaRebootWaitTime /Value:10800"</text><text xml:space="preserve" text-anchor="start" x="338.5" y="-466" font-family="Open Sans" font-style="italic" font-size="10.00">Run-Process WTTCMD "/SetPolicy /Policy:EaHBTimeoutExpire /Value:240"       </text><text xml:space="preserve" text-anchor="start" x="379" y="-456" font-family="Open Sans" font-style="italic" font-size="10.00">$jobMayReboot = Check-AsmtString "&lt;MayRebootSystem />"</text></g><!-- terminator_block_1&#45;&gt;process_block_2 --><g id="edge1" class="edge"><title>terminator_block_1->process_block_2</title><path fill="none" stroke="black" d="M516,-551.799C516,-545.458 516,-537.935 516,-530.248"/><polygon fill="black" stroke="black" points="519.5,-530.132 516,-520.132 512.5,-530.132 519.5,-530.132"/></g><!-- ifs_block_3 --><g id="node3" class="node"><title>ifs_block_3</title><polygon fill="url(#g-decision0aijbyuwzy3nmi)" stroke="black" points="516,-414 440.862,-396 516,-378 591.138,-396 516,-414"/><text xml:space="preserve" text-anchor="start" x="478.5" y="-393.5" font-family="Open Sans" font-size="10.00">$jobMayReboot</text></g><!-- process_block_2&#45;&gt;ifs_block_3 --><g id="edge2" class="edge"><title>process_block_2->ifs_block_3</title><path fill="none" stroke="black" d="M516,-445.952C516,-438.707 516,-431.206 516,-424.317"/><polygon fill="black" stroke="black" points="519.5,-424.121 516,-414.121 512.5,-424.121 519.5,-424.121"/></g><!-- process_block_4 --><g id="node4" class="node"><title>process_block_4</title><polygon fill="url(#g-process0aijbyuwzy3nmi)" stroke="black" points="750.25,-335.5 281.75,-335.5 281.75,-288.5 750.25,-288.5 750.25,-335.5"/><text xml:space="preserve" text-anchor="start" x="295" y="-320.5" font-family="Open Sans" font-size="10.00">$jobHibernate = Check-AsmtString "&lt;ProgrammaticName>Hibernate&lt;/ProgrammaticName>"</text><text xml:space="preserve" text-anchor="start" x="305" y="-309.5" font-family="Open Sans" font-size="10.00">$jobStandby = Check-AsmtString "&lt;ProgrammaticName>Standby&lt;/ProgrammaticName>"</text><text xml:space="preserve" text-anchor="start" x="288.5" y="-298.5" font-family="Open Sans" font-size="10.00">$jobEnergy = Check-AsmtString "&lt;ProgrammaticName>EnergyEfficiency&lt;/ProgrammaticName>"</text></g><!-- ifs_block_3&#45;&gt;process_block_4 --><g id="edge3" class="edge"><title>ifs_block_3->process_block_4</title><path fill="none" stroke="black" d="M516,-377.61C516,-368.347 516,-356.645 516,-345.753"/><polygon fill="black" stroke="black" points="519.5,-345.665 516,-335.665 512.5,-345.665 519.5,-345.665"/><text xml:space="preserve" text-anchor="start" x="516" y="-355.5" font-family="Open Sans" font-weight="bold" font-size="10.00"> True </text><polyline fill="none" stroke="Black" points="546,-351.5 516,-351.5 "/></g><!-- ifs_block_5 --><g id="node5" class="node"><title>ifs_block_5</title><polygon fill="url(#g-decision0aijbyuwzy3nmi)" stroke="black" points="516,-256 302.822,-238 516,-220 729.178,-238 516,-256"/><text xml:space="preserve" text-anchor="start" x="396" y="-235.5" font-family="Open Sans" font-size="10.00">($jobStandby) -or  ($jobHibernate) -or ($jobEnergy)</text></g><!-- process_block_4&#45;&gt;ifs_block_5 --><g id="edge4" class="edge"><title>process_block_4->ifs_block_5</title><path fill="none" stroke="black" d="M516,-288.219C516,-281.243 516,-273.499 516,-266.257"/><polygon fill="black" stroke="black" points="519.5,-266.154 516,-256.154 512.5,-266.154 519.5,-266.154"/></g><!-- process_block_6 --><g id="node6" class="node"><title>process_block_6</title><polygon fill="url(#g-process0aijbyuwzy3nmi)" stroke="black" points="550.25,-178 -0.25,-178 -0.25,-142 550.25,-142 550.25,-178"/><text xml:space="preserve" text-anchor="start" x="6.5" y="-163" font-family="Open Sans" font-size="10.00">Log-Txt "   -> Assessment is Standby, Hibernate, or Energy and doesn't need WTT configured for restart, skipping"</text><text xml:space="preserve" text-anchor="start" x="260" y="-152" font-family="Open Sans" font-size="10.00">return</text></g><!-- ifs_block_5&#45;&gt;process_block_6 --><g id="edge5" class="edge"><title>ifs_block_5->process_block_6</title><path fill="none" stroke="black" d="M473.469,-223.588C436.11,-211.807 381.23,-194.5 338.642,-181.07"/><polygon fill="black" stroke="black" points="339.518,-177.676 328.928,-178.006 337.412,-184.352 339.518,-177.676"/><text xml:space="preserve" text-anchor="start" x="410" y="-197.5" font-family="Open Sans" font-weight="bold" font-size="10.00"> True </text><polyline fill="none" stroke="Black" points="440,-193.5 376.829,-193.5 "/></g><!-- process_block_7 --><g id="node7" class="node"><title>process_block_7</title><polygon fill="url(#g-process0aijbyuwzy3nmi)" stroke="black" points="536,-110 482,-110 482,-74 536,-74 536,-110"/><text xml:space="preserve" text-anchor="start" x="499" y="-89.5" font-family="Open Sans" font-size="10.00">else</text></g><!-- ifs_block_5&#45;&gt;process_block_7 --><g id="edge7" class="edge"><title>ifs_block_5->process_block_7</title><path fill="none" stroke="black" d="M532.697,-221.203C543.043,-210.212 555.393,-194.598 561,-178 566.121,-162.842 567.342,-156.69 561,-142 556.907,-132.519 549.977,-124.023 542.488,-116.873"/><polygon fill="black" stroke="black" points="544.714,-114.17 534.897,-110.186 540.087,-119.422 544.714,-114.17"/><text xml:space="preserve" text-anchor="start" x="566" y="-158.5" font-family="Open Sans" font-weight="bold" font-size="10.00"> False </text><polyline fill="none" stroke="Black" points="597,-154.5 564.842,-154.5 "/></g><!-- process_block_6&#45;&gt;process_block_7 --><g id="edge6" class="edge"><title>process_block_6->process_block_7</title><path fill="none" stroke="black" d="M335.565,-141.918C378.764,-129.733 435.46,-113.742 472.064,-103.418"/><polygon fill="black" stroke="black" points="473.154,-106.747 481.828,-100.664 471.253,-100.01 473.154,-106.747"/></g><!-- terminator_block_8 --><g id="node8" class="node"><title>terminator_block_8</title><ellipse fill="url(#g-terminator0aijbyuwzy3nmi)" stroke="black" cx="509" cy="-21" rx="260.384" ry="21.4286"/><text xml:space="preserve" text-anchor="start" x="332.5" y="-24" font-family="Open Sans" font-size="10.00">Log-Txt "...RESTART Assessment identified. Setting WTT to ignore reboots"</text><text xml:space="preserve" text-anchor="start" x="465" y="-13" font-family="Open Sans" font-size="10.00">EnableWTTReboot</text></g><!-- process_block_7&#45;&gt;terminator_block_8 --><g id="edge8" class="edge"><title>process_block_7->terminator_block_8</title><path fill="none" stroke="black" d="M509,-73.9438C509,-67.4338 509,-59.7993 509,-52.4177"/><polygon fill="black" stroke="black" points="512.5,-52.2941 509,-42.2942 505.5,-52.2942 512.5,-52.2941"/></g></g></svg>