<?xml version="1.0" encoding="UTF-8" standalone="no"?><!DOCTYPE svg PUBLIC "-//W3C//DTD SVG 1.1//EN" "http://www.w3.org/Graphics/SVG/1.1/DTD/svg11.dtd"><!-- Generated by graphviz version 2.35.0 (20140103.1005) --><!-- Title: FlowChart Pages: 1 --><svg width="600pt" height="681pt" viewBox="0.00 0.00 600 681.23" xmlns="http://www.w3.org/2000/svg" xmlns:xlink="http://www.w3.org/1999/xlink"><defs><linearGradient id="g-terminator31dw7dri2otj4i" x1="0%" x2="100%" y1="0%" y2="0%" spreadMethod="pad"><stop offset="0%" stop-color="#ff8787" stop-opacity="1"/><stop offset="100%" stop-color="#ffb9b9" stop-opacity="1"/></linearGradient><linearGradient id="g-decision31dw7dri2otj4i" x1="0%" x2="100%" y1="0%" y2="0%" spreadMethod="pad"><stop offset="0%" stop-color="#ffd287" stop-opacity="1"/><stop offset="100%" stop-color="#ffffb9" stop-opacity="1"/></linearGradient><linearGradient id="g-process31dw7dri2otj4i" x1="0%" x2="100%" y1="0%" y2="0%" spreadMethod="pad"><stop offset="0%" stop-color="#99ff99" stop-opacity="1"/><stop offset="100%" stop-color="#cbffcb" stop-opacity="1"/></linearGradient><linearGradient id="g-default31dw7dri2otj4i" x1="0%" x2="100%" y1="0%" y2="0%" spreadMethod="pad"><stop offset="0%" stop-color="#99ff99" stop-opacity="1"/><stop offset="100%" stop-color="#cbffcb" stop-opacity="1"/></linearGradient><linearGradient id="g-module31dw7dri2otj4i" x1="0%" x2="100%" y1="0%" y2="0%" spreadMethod="pad"><stop offset="0%" stop-color="#77c1e4" stop-opacity="1"/><stop offset="100%" stop-color="#a9f3ff" stop-opacity="1"/></linearGradient><linearGradient id="g-dataio31dw7dri2otj4i" x1="0%" x2="100%" y1="0%" y2="0%" spreadMethod="pad"><stop offset="0%" stop-color="#bebebe" stop-opacity="1"/><stop offset="100%" stop-color="#f0f0f0" stop-opacity="1"/></linearGradient><linearGradient id="g-preparation31dw7dri2otj4i" x1="0%" x2="100%" y1="0%" y2="0%" spreadMethod="pad"><stop offset="0%" stop-color="#bebebe" stop-opacity="1"/><stop offset="100%" stop-color="#f0f0f0" stop-opacity="1"/></linearGradient><linearGradient id="g-comment31dw7dri2otj4i" x1="0%" x2="100%" y1="0%" y2="0%" spreadMethod="pad"><stop offset="0%" stop-color="#f5f588" stop-opacity="1"/><stop offset="100%" stop-color="#ffffba" stop-opacity="1"/></linearGradient><linearGradient id="g-manual31dw7dri2otj4i" x1="0%" x2="100%" y1="0%" y2="0%" spreadMethod="pad"><stop offset="0%" stop-color="#9e78ff" stop-opacity="1"/><stop offset="100%" stop-color="#d0aaff" stop-opacity="1"/></linearGradient><filter id="dropshadow31dw7dri2otj4i" height="150%" width="150%"><feGaussianBlur in="SourceAlpha" stdDeviation="3"/><feOffset dx="2" dy="2" result="offsetblur"/><feComponentTransfer/><feMerge><feMergeNode/><feMergeNode in="SourceGraphic"/></feMerge></filter></defs><g id="flow31dw7dri2otj4i" class="graph" transform="scale(0.694282 0.694282) rotate(0) translate(4 970)"><title>FlowChart</title><!-- terminator_block_1 --><g id="node1" class="node"><title>terminator_block_1</title><ellipse fill="url(#g-terminator31dw7dri2otj4i)" stroke="black" cx="518" cy="-948" rx="74.1423" ry="18"/><text xml:space="preserve" text-anchor="start" x="462.5" y="-945.5" font-family="Open Sans" font-size="10.00">function Prereq-Check()</text></g><!-- process_block_2 --><g id="node2" class="node"><title>process_block_2</title><polygon fill="url(#g-process31dw7dri2otj4i)" stroke="black" points="654.25,-898 381.75,-898 381.75,-862 654.25,-862 654.25,-898"/><text xml:space="preserve" text-anchor="start" x="406.5" y="-883" font-family="Open Sans" font-size="10.00">Log-Txt "...Assessment testing starting..."         </text><text xml:space="preserve" text-anchor="start" x="388.5" y="-872" font-family="Open Sans" font-size="10.00">Log-Txt "...Checking if this assessment has run before"</text></g><!-- terminator_block_1&#45;&gt;process_block_2 --><g id="edge1" class="edge"><title>terminator_block_1->process_block_2</title><path fill="none" stroke="black" d="M518,-929.659C518,-923.193 518,-915.682 518,-908.525"/><polygon fill="black" stroke="black" points="521.5,-908.454 518,-898.454 514.5,-908.454 521.5,-908.454"/></g><!-- ifs_block_3 --><g id="node3" class="node"><title>ifs_block_3</title><polygon fill="url(#g-decision31dw7dri2otj4i)" stroke="black" points="518,-830 399.678,-812 518,-794 636.322,-812 518,-830"/><text xml:space="preserve" text-anchor="start" x="455" y="-809.5" font-family="Open Sans" font-size="10.00">Test-Path $asmtStatusFile</text></g><!-- process_block_2&#45;&gt;ifs_block_3 --><g id="edge2" class="edge"><title>process_block_2->ifs_block_3</title><path fill="none" stroke="black" d="M518,-861.659C518,-855.193 518,-847.682 518,-840.525"/><polygon fill="black" stroke="black" points="521.5,-840.454 518,-830.454 514.5,-840.454 521.5,-840.454"/></g><!-- ifs_block_4 --><g id="node4" class="node"><title>ifs_block_4</title><polygon fill="url(#g-decision31dw7dri2otj4i)" stroke="black" points="438,-752 349.633,-734 438,-716 526.367,-734 438,-752"/><text xml:space="preserve" text-anchor="start" x="393" y="-731.5" font-family="Open Sans" font-size="10.00">Test-Path $exitFile</text></g><!-- ifs_block_3&#45;&gt;ifs_block_4 --><g id="edge3" class="edge"><title>ifs_block_3->ifs_block_4</title><path fill="none" stroke="black" d="M502.575,-796.346C490.581,-784.952 473.775,-768.986 460.314,-756.198"/><polygon fill="black" stroke="black" points="462.497,-753.445 452.837,-749.095 457.676,-758.52 462.497,-753.445"/><text xml:space="preserve" text-anchor="start" x="483" y="-771.5" font-family="Open Sans" font-weight="bold" font-size="10.00"> True </text><polyline fill="none" stroke="Black" points="513,-767.5 472.284,-767.5 "/></g><!-- process_block_8 --><g id="node8" class="node"><title>process_block_8</title><polygon fill="url(#g-process31dw7dri2otj4i)" stroke="black" points="531,-404 477,-404 477,-368 531,-368 531,-404"/><text xml:space="preserve" text-anchor="start" x="494" y="-383.5" font-family="Open Sans" font-size="10.00">else</text></g><!-- ifs_block_3&#45;&gt;process_block_8 --><g id="edge9" class="edge"><title>ifs_block_3->process_block_8</title><path fill="none" stroke="black" d="M532.558,-796.096C545.032,-781.698 561,-758.65 561,-735 561,-735 561,-735 561,-467 561,-445.507 547.185,-425.787 533.157,-411.303"/><polygon fill="black" stroke="black" points="535.485,-408.685 525.875,-404.225 530.606,-413.705 535.485,-408.685"/><text xml:space="preserve" text-anchor="start" x="561" y="-587.5" font-family="Open Sans" font-weight="bold" font-size="10.00"> False </text><polyline fill="none" stroke="Black" points="592,-583.5 561,-583.5 "/></g><!-- process_block_5 --><g id="node5" class="node"><title>process_block_5</title><polygon fill="url(#g-process31dw7dri2otj4i)" stroke="black" points="420.25,-674 -0.25,-674 -0.25,-610 420.25,-610 420.25,-674"/><text xml:space="preserve" text-anchor="start" x="187.5" y="-660" font-family="Open Sans" font-size="10.00">Log-Txt "</text><text xml:space="preserve" text-anchor="start" x="228.5" y="-660" font-family="Open Sans" font-style="italic" font-size="10.00">"</text><text xml:space="preserve" text-anchor="start" x="6.5" y="-650" font-family="Open Sans" font-style="italic" font-size="10.00">Log-Txt "   -> Yes! Exit file found. Configure WTT and exit for restart assessment execution"</text><text xml:space="preserve" text-anchor="start" x="185.5" y="-640" font-family="Open Sans" font-style="italic" font-size="10.00">Log-Txt "</text><text xml:space="preserve" text-anchor="start" x="224.5" y="-640" font-family="Open Sans" font-style="italic" font-size="10.00">"  </text><text xml:space="preserve" text-anchor="start" x="169" y="-630" font-family="Open Sans" font-style="italic" font-size="10.00">EnableWTTReboot</text><text xml:space="preserve" text-anchor="start" x="202" y="-620" font-family="Open Sans" font-style="italic" font-size="10.00">Exit</text></g><!-- ifs_block_4&#45;&gt;process_block_5 --><g id="edge4" class="edge"><title>ifs_block_4->process_block_5</title><path fill="none" stroke="black" d="M409.585,-721.783C381.735,-710.79 337.827,-693.458 298.276,-677.846"/><polygon fill="black" stroke="black" points="299.445,-674.545 288.859,-674.128 296.875,-681.056 299.445,-674.545"/><text xml:space="preserve" text-anchor="start" x="352" y="-693.5" font-family="Open Sans" font-weight="bold" font-size="10.00"> True </text><polyline fill="none" stroke="Black" points="382,-689.5 328.437,-689.5 "/></g><!-- process_block_6 --><g id="node6" class="node"><title>process_block_6</title><polygon fill="url(#g-process31dw7dri2otj4i)" stroke="black" points="390,-568 336,-568 336,-532 390,-532 390,-568"/><text xml:space="preserve" text-anchor="start" x="353" y="-547.5" font-family="Open Sans" font-size="10.00">else</text></g><!-- ifs_block_4&#45;&gt;process_block_6 --><g id="edge6" class="edge"><title>ifs_block_4->process_block_6</title><path fill="none" stroke="black" d="M440.944,-716.462C444.498,-691.848 448.065,-644.749 431,-610 423.709,-595.154 410.827,-582.5 398.222,-572.763"/><polygon fill="black" stroke="black" points="400.18,-569.86 390.039,-566.792 396.054,-575.514 400.18,-569.86"/><text xml:space="preserve" text-anchor="start" x="444" y="-640.5" font-family="Open Sans" font-weight="bold" font-size="10.00"> False </text><polyline fill="none" stroke="Black" points="475,-636.5 439.865,-636.5 "/></g><!-- process_block_5&#45;&gt;process_block_6 --><g id="edge5" class="edge"><title>process_block_5->process_block_6</title><path fill="none" stroke="black" d="M263.083,-609.775C284.243,-597.328 308.049,-583.324 327.115,-572.109"/><polygon fill="black" stroke="black" points="328.942,-575.095 335.787,-567.008 325.393,-569.061 328.942,-575.095"/></g><!-- process_block_7 --><g id="node7" class="node"><title>process_block_7</title><polygon fill="url(#g-process31dw7dri2otj4i)" stroke="black" points="526.25,-500 199.75,-500 199.75,-436 526.25,-436 526.25,-500"/><text xml:space="preserve" text-anchor="start" x="340.5" y="-486" font-family="Open Sans" font-size="10.00">Log-Txt "</text><text xml:space="preserve" text-anchor="start" x="381.5" y="-486" font-family="Open Sans" font-style="italic" font-size="10.00">"</text><text xml:space="preserve" text-anchor="start" x="206.5" y="-476" font-family="Open Sans" font-style="italic" font-size="10.00">Log-Txt "   -> Yes! Found assessment status file. Continue monitoring"</text><text xml:space="preserve" text-anchor="start" x="323.5" y="-466" font-family="Open Sans" font-style="italic" font-size="10.00">Log-Txt "</text><text xml:space="preserve" text-anchor="start" x="362.5" y="-466" font-family="Open Sans" font-style="italic" font-size="10.00">"            </text><text xml:space="preserve" text-anchor="start" x="314.5" y="-456" font-family="Open Sans" font-style="italic" font-size="10.00">Monitor-Asmt            </text><text xml:space="preserve" text-anchor="start" x="331" y="-446" font-family="Open Sans" font-style="italic" font-size="10.00">Exit                </text></g><!-- process_block_6&#45;&gt;process_block_7 --><g id="edge7" class="edge"><title>process_block_6->process_block_7</title><path fill="none" stroke="black" d="M363,-531.641C363,-525.322 363,-517.88 363,-510.373"/><polygon fill="black" stroke="black" points="366.5,-510.195 363,-500.195 359.5,-510.195 366.5,-510.195"/></g><!-- process_block_7&#45;&gt;process_block_8 --><g id="edge8" class="edge"><title>process_block_7->process_block_8</title><path fill="none" stroke="black" d="M417.918,-435.841C434.695,-426.322 452.712,-416.1 467.904,-407.48"/><polygon fill="black" stroke="black" points="469.992,-410.319 476.962,-402.34 466.538,-404.231 469.992,-410.319"/></g><!-- ifs_block_9 --><g id="node9" class="node"><title>ifs_block_9</title><polygon fill="url(#g-decision31dw7dri2otj4i)" stroke="black" points="504,-336 417.631,-318 504,-300 590.369,-318 504,-336"/><text xml:space="preserve" text-anchor="start" x="460" y="-315.5" font-family="Open Sans" font-size="10.00">Check-SystemReqs</text></g><!-- process_block_8&#45;&gt;ifs_block_9 --><g id="edge10" class="edge"><title>process_block_8->ifs_block_9</title><path fill="none" stroke="black" d="M504,-367.659C504,-361.193 504,-353.682 504,-346.525"/><polygon fill="black" stroke="black" points="507.5,-346.454 504,-336.454 500.5,-346.454 507.5,-346.454"/></g><!-- process_block_10 --><g id="node10" class="node"><title>process_block_10</title><polygon fill="url(#g-process31dw7dri2otj4i)" stroke="black" points="518.25,-258 123.75,-258 123.75,-174 518.25,-174 518.25,-258"/><text xml:space="preserve" text-anchor="start" x="289.5" y="-244" font-family="Open Sans" font-size="10.00">Log-TestStart</text><text xml:space="preserve" text-anchor="start" x="298.5" y="-234" font-family="Open Sans" font-size="10.00">Log-Txt "</text><text xml:space="preserve" text-anchor="start" x="339.5" y="-234" font-family="Open Sans" font-style="italic" font-size="10.00">"</text><text xml:space="preserve" text-anchor="start" x="130.5" y="-224" font-family="Open Sans" font-style="italic" font-size="10.00">Log-Txt "   -> Assessment has not run before. Prep machine and launch assessment"</text><text xml:space="preserve" text-anchor="start" x="295" y="-214" font-family="Open Sans" font-style="italic" font-size="10.00">Log-Txt "</text><text xml:space="preserve" text-anchor="start" x="334" y="-214" font-family="Open Sans" font-style="italic" font-size="10.00">"   </text><text xml:space="preserve" text-anchor="start" x="289.5" y="-204" font-family="Open Sans" font-style="italic" font-size="10.00">Prep-Machine</text><text xml:space="preserve" text-anchor="start" x="285.5" y="-194" font-family="Open Sans" font-style="italic" font-size="10.00">Create-RunCMD</text><text xml:space="preserve" text-anchor="start" x="282.5" y="-184" font-family="Open Sans" font-style="italic" font-size="10.00">Prep-AsmtJobFile</text></g><!-- ifs_block_9&#45;&gt;process_block_10 --><g id="edge11" class="edge"><title>ifs_block_9->process_block_10</title><path fill="none" stroke="black" d="M481.193,-304.537C461.913,-294.002 433.044,-278.226 405.102,-262.957"/><polygon fill="black" stroke="black" points="406.529,-259.749 396.076,-258.025 403.173,-265.892 406.529,-259.749"/><text xml:space="preserve" text-anchor="start" x="445" y="-277.5" font-family="Open Sans" font-weight="bold" font-size="10.00"> True </text><polyline fill="none" stroke="Black" points="475,-273.5 426.068,-273.5 "/></g><!-- process_block_11 --><g id="node11" class="node"><title>process_block_11</title><polygon fill="url(#g-process31dw7dri2otj4i)" stroke="black" points="524,-142 470,-142 470,-106 524,-106 524,-142"/><text xml:space="preserve" text-anchor="start" x="487" y="-121.5" font-family="Open Sans" font-size="10.00">else</text></g><!-- ifs_block_9&#45;&gt;process_block_11 --><g id="edge13" class="edge"><title>ifs_block_9->process_block_11</title><path fill="none" stroke="black" d="M512.927,-301.574C519.083,-290.006 526.725,-273.554 530,-258 537.693,-221.468 540.902,-209.706 530,-174 527.515,-165.861 523.174,-157.851 518.442,-150.741"/><polygon fill="black" stroke="black" points="521.031,-148.347 512.349,-142.275 515.349,-152.436 521.031,-148.347"/><text xml:space="preserve" text-anchor="start" x="537" y="-214.5" font-family="Open Sans" font-weight="bold" font-size="10.00"> False </text><polyline fill="none" stroke="Black" points="568,-210.5 537.012,-210.5 "/></g><!-- process_block_10&#45;&gt;process_block_11 --><g id="edge12" class="edge"><title>process_block_10->process_block_11</title><path fill="none" stroke="black" d="M401.274,-173.951C422.081,-163.311 443.468,-152.374 460.735,-143.545"/><polygon fill="black" stroke="black" points="462.564,-146.541 469.874,-138.871 459.377,-140.308 462.564,-146.541"/></g><!-- terminator_block_12 --><g id="node12" class="node"><title>terminator_block_12</title><ellipse fill="url(#g-terminator31dw7dri2otj4i)" stroke="black" cx="497" cy="-37" rx="352.27" ry="36.5405"/><text xml:space="preserve" text-anchor="start" x="255.5" y="-51" font-family="Open Sans" font-size="10.00">$na = "   -> EXITING: System doesn't meet Assessment requirements. Logging NA and EXITING script"</text><text xml:space="preserve" text-anchor="start" x="465.5" y="-40" font-family="Open Sans" font-size="10.00">Log-Txt "$na"</text><text xml:space="preserve" text-anchor="start" x="360" y="-29" font-family="Open Sans" font-size="10.00">$na | Out-File $logpathterminator_block_12A.txt -Append</text><text xml:space="preserve" text-anchor="start" x="488" y="-18" font-family="Open Sans" font-size="10.00">Exit</text></g><!-- process_block_11&#45;&gt;terminator_block_12 --><g id="edge14" class="edge"><title>process_block_11->terminator_block_12</title><path fill="none" stroke="black" d="M497,-105.799C497,-99.3903 497,-91.775 497,-84.0023"/><polygon fill="black" stroke="black" points="500.5,-83.782 497,-73.7821 493.5,-83.7821 500.5,-83.782"/></g></g></svg>