<?xml version="1.0" encoding="UTF-8" standalone="no"?><!DOCTYPE svg PUBLIC "-//W3C//DTD SVG 1.1//EN" "http://www.w3.org/Graphics/SVG/1.1/DTD/svg11.dtd"><!-- Generated by graphviz version 2.35.0 (20140103.1005) --><!-- Title: FlowChart Pages: 1 --><svg width="447pt" height="353pt" viewBox="0.00 0.00 447 353" xmlns="http://www.w3.org/2000/svg" xmlns:xlink="http://www.w3.org/1999/xlink"><defs><linearGradient id="g-terminatorta2plhgk6s9k9" x1="0%" x2="100%" y1="0%" y2="0%" spreadMethod="pad"><stop offset="0%" stop-color="#ff8787" stop-opacity="1"/><stop offset="100%" stop-color="#ffb9b9" stop-opacity="1"/></linearGradient><linearGradient id="g-decisionta2plhgk6s9k9" x1="0%" x2="100%" y1="0%" y2="0%" spreadMethod="pad"><stop offset="0%" stop-color="#ffd287" stop-opacity="1"/><stop offset="100%" stop-color="#ffffb9" stop-opacity="1"/></linearGradient><linearGradient id="g-processta2plhgk6s9k9" x1="0%" x2="100%" y1="0%" y2="0%" spreadMethod="pad"><stop offset="0%" stop-color="#99ff99" stop-opacity="1"/><stop offset="100%" stop-color="#cbffcb" stop-opacity="1"/></linearGradient><linearGradient id="g-defaultta2plhgk6s9k9" x1="0%" x2="100%" y1="0%" y2="0%" spreadMethod="pad"><stop offset="0%" stop-color="#99ff99" stop-opacity="1"/><stop offset="100%" stop-color="#cbffcb" stop-opacity="1"/></linearGradient><linearGradient id="g-moduleta2plhgk6s9k9" x1="0%" x2="100%" y1="0%" y2="0%" spreadMethod="pad"><stop offset="0%" stop-color="#77c1e4" stop-opacity="1"/><stop offset="100%" stop-color="#a9f3ff" stop-opacity="1"/></linearGradient><linearGradient id="g-dataiota2plhgk6s9k9" x1="0%" x2="100%" y1="0%" y2="0%" spreadMethod="pad"><stop offset="0%" stop-color="#bebebe" stop-opacity="1"/><stop offset="100%" stop-color="#f0f0f0" stop-opacity="1"/></linearGradient><linearGradient id="g-preparationta2plhgk6s9k9" x1="0%" x2="100%" y1="0%" y2="0%" spreadMethod="pad"><stop offset="0%" stop-color="#bebebe" stop-opacity="1"/><stop offset="100%" stop-color="#f0f0f0" stop-opacity="1"/></linearGradient><linearGradient id="g-commentta2plhgk6s9k9" x1="0%" x2="100%" y1="0%" y2="0%" spreadMethod="pad"><stop offset="0%" stop-color="#f5f588" stop-opacity="1"/><stop offset="100%" stop-color="#ffffba" stop-opacity="1"/></linearGradient><linearGradient id="g-manualta2plhgk6s9k9" x1="0%" x2="100%" y1="0%" y2="0%" spreadMethod="pad"><stop offset="0%" stop-color="#9e78ff" stop-opacity="1"/><stop offset="100%" stop-color="#d0aaff" stop-opacity="1"/></linearGradient><filter id="dropshadowta2plhgk6s9k9" height="150%" width="150%"><feGaussianBlur in="SourceAlpha" stdDeviation="3"/><feOffset dx="2" dy="2" result="offsetblur"/><feComponentTransfer/><feMerge><feMergeNode/><feMergeNode in="SourceGraphic"/></feMerge></filter></defs><g id="flowta2plhgk6s9k9" class="graph" transform="scale(1 1) rotate(0) translate(4 344)"><title>FlowChart</title><!-- terminator_block_1 --><g id="node1" class="node"><title>terminator_block_1</title><ellipse fill="url(#g-terminatorta2plhgk6s9k9)" stroke="black" cx="217" cy="-322" rx="137.62" ry="18"/><text xml:space="preserve" text-anchor="start" x="108" y="-319.5" font-family="Open Sans" font-size="10.00">function Run-Process($appName, $appParms)</text></g><!-- process_block_2 --><g id="node2" class="node"><title>process_block_2</title><polygon fill="url(#g-processta2plhgk6s9k9)" stroke="black" points="244,-272 190,-272 190,-236 244,-236 244,-272"/><text xml:space="preserve" text-anchor="start" x="209.5" y="-251.5" font-family="Open Sans" font-size="10.00">Try</text></g><!-- terminator_block_1&#45;&gt;process_block_2 --><g id="edge1" class="edge"><title>terminator_block_1->process_block_2</title><path fill="none" stroke="black" d="M217,-303.659C217,-297.193 217,-289.682 217,-282.525"/><polygon fill="black" stroke="black" points="220.5,-282.454 217,-272.454 213.5,-282.454 220.5,-282.454"/></g><!-- process_block_3 --><g id="node3" class="node"><title>process_block_3</title><polygon fill="url(#g-processta2plhgk6s9k9)" stroke="black" points="412.5,-204 21.5,-204 21.5,-146 412.5,-146 412.5,-204"/><text xml:space="preserve" text-anchor="start" x="131.5" y="-189" font-family="Open Sans" font-size="10.00">Log-Txt "...Trying to run command:" </text><text xml:space="preserve" text-anchor="start" x="132" y="-178" font-family="Open Sans" font-size="10.00">Log-Txt "   -> Appname: $appName"</text><text xml:space="preserve" text-anchor="start" x="134.5" y="-167" font-family="Open Sans" font-size="10.00">Log-Txt "   -> Params : $appParms"</text><text xml:space="preserve" text-anchor="start" x="28" y="-156" font-family="Open Sans" font-size="10.00">$process = start-process $appName -ArgumentList $appParms -PassThru -Wait</text></g><!-- process_block_2&#45;&gt;process_block_3 --><g id="edge2" class="edge"><title>process_block_2->process_block_3</title><path fill="none" stroke="black" d="M217,-235.911C217,-229.514 217,-221.962 217,-214.413"/><polygon fill="black" stroke="black" points="220.5,-214.231 217,-204.231 213.5,-214.231 220.5,-214.231"/></g><!-- process_block_4 --><g id="node4" class="node"><title>process_block_4</title><polygon fill="url(#g-processta2plhgk6s9k9)" stroke="black" points="244,-114 190,-114 190,-78 244,-78 244,-114"/><text xml:space="preserve" text-anchor="start" x="202" y="-93.5" font-family="Open Sans" font-size="10.00">Catch </text></g><!-- process_block_3&#45;&gt;process_block_4 --><g id="edge3" class="edge"><title>process_block_3->process_block_4</title><path fill="none" stroke="black" d="M217,-145.765C217,-138.78 217,-131.308 217,-124.365"/><polygon fill="black" stroke="black" points="220.5,-124.035 217,-114.035 213.5,-124.035 220.5,-124.035"/></g><!-- terminator_block_5 --><g id="node5" class="node"><title>terminator_block_5</title><ellipse fill="url(#g-terminatorta2plhgk6s9k9)" stroke="black" cx="217" cy="-18" rx="217.208" ry="18"/><text xml:space="preserve" text-anchor="start" x="40" y="-15.5" font-family="Open Sans" font-size="10.00">Log-Txt "   -> Caught a system exception. Message: $_.Exception.Message"</text></g><!-- process_block_4&#45;&gt;terminator_block_5 --><g id="edge4" class="edge"><title>process_block_4->terminator_block_5</title><path fill="none" stroke="black" d="M217,-77.7544C217,-68.5232 217,-56.9348 217,-46.4946"/><polygon fill="black" stroke="black" points="220.5,-46.1773 217,-36.1773 213.5,-46.1774 220.5,-46.1773"/><text xml:space="preserve" text-anchor="start" x="217" y="-55.5" font-family="Open Sans" font-weight="bold" font-size="10.00"> system.exception </text><polyline fill="none" stroke="Black" points="311,-51.5 217,-51.5 "/></g></g></svg>