<?xml version="1.0" encoding="UTF-8" standalone="no"?><!DOCTYPE svg PUBLIC "-//W3C//DTD SVG 1.1//EN" "http://www.w3.org/Graphics/SVG/1.1/DTD/svg11.dtd"><!-- Generated by graphviz version 2.35.0 (20140103.1005) --><!-- Title: FlowChart Pages: 1 --><svg width="600pt" height="394pt" viewBox="0.00 0.00 600 394.13" xmlns="http://www.w3.org/2000/svg" xmlns:xlink="http://www.w3.org/1999/xlink"><defs><linearGradient id="g-terminatorabnkjncd56ogvi" x1="0%" x2="100%" y1="0%" y2="0%" spreadMethod="pad"><stop offset="0%" stop-color="#ff8787" stop-opacity="1"/><stop offset="100%" stop-color="#ffb9b9" stop-opacity="1"/></linearGradient><linearGradient id="g-decisionabnkjncd56ogvi" x1="0%" x2="100%" y1="0%" y2="0%" spreadMethod="pad"><stop offset="0%" stop-color="#ffd287" stop-opacity="1"/><stop offset="100%" stop-color="#ffffb9" stop-opacity="1"/></linearGradient><linearGradient id="g-processabnkjncd56ogvi" x1="0%" x2="100%" y1="0%" y2="0%" spreadMethod="pad"><stop offset="0%" stop-color="#99ff99" stop-opacity="1"/><stop offset="100%" stop-color="#cbffcb" stop-opacity="1"/></linearGradient><linearGradient id="g-defaultabnkjncd56ogvi" x1="0%" x2="100%" y1="0%" y2="0%" spreadMethod="pad"><stop offset="0%" stop-color="#99ff99" stop-opacity="1"/><stop offset="100%" stop-color="#cbffcb" stop-opacity="1"/></linearGradient><linearGradient id="g-moduleabnkjncd56ogvi" x1="0%" x2="100%" y1="0%" y2="0%" spreadMethod="pad"><stop offset="0%" stop-color="#77c1e4" stop-opacity="1"/><stop offset="100%" stop-color="#a9f3ff" stop-opacity="1"/></linearGradient><linearGradient id="g-dataioabnkjncd56ogvi" x1="0%" x2="100%" y1="0%" y2="0%" spreadMethod="pad"><stop offset="0%" stop-color="#bebebe" stop-opacity="1"/><stop offset="100%" stop-color="#f0f0f0" stop-opacity="1"/></linearGradient><linearGradient id="g-preparationabnkjncd56ogvi" x1="0%" x2="100%" y1="0%" y2="0%" spreadMethod="pad"><stop offset="0%" stop-color="#bebebe" stop-opacity="1"/><stop offset="100%" stop-color="#f0f0f0" stop-opacity="1"/></linearGradient><linearGradient id="g-commentabnkjncd56ogvi" x1="0%" x2="100%" y1="0%" y2="0%" spreadMethod="pad"><stop offset="0%" stop-color="#f5f588" stop-opacity="1"/><stop offset="100%" stop-color="#ffffba" stop-opacity="1"/></linearGradient><linearGradient id="g-manualabnkjncd56ogvi" x1="0%" x2="100%" y1="0%" y2="0%" spreadMethod="pad"><stop offset="0%" stop-color="#9e78ff" stop-opacity="1"/><stop offset="100%" stop-color="#d0aaff" stop-opacity="1"/></linearGradient><filter id="dropshadowabnkjncd56ogvi" height="150%" width="150%"><feGaussianBlur in="SourceAlpha" stdDeviation="3"/><feOffset dx="2" dy="2" result="offsetblur"/><feComponentTransfer/><feMerge><feMergeNode/><feMergeNode in="SourceGraphic"/></feMerge></filter></defs><g id="flowabnkjncd56ogvi" class="graph" transform="scale(0.403664 0.403664) rotate(0) translate(4 960)"><title>FlowChart</title><!-- terminator_block_1 --><g id="node1" class="node"><title>terminator_block_1</title><ellipse fill="url(#g-terminatorabnkjncd56ogvi)" stroke="black" cx="1124" cy="-938" rx="62.0979" ry="18"/><text xml:space="preserve" text-anchor="start" x="1079" y="-935.5" font-family="Open Sans" font-size="10.00">function Run-Asmt(</text></g><!-- process_block_2 --><g id="node2" class="node"><title>process_block_2</title><polygon fill="url(#g-processabnkjncd56ogvi)" stroke="black" points="1158.25,-878 1089.75,-878 1089.75,-842 1158.25,-842 1158.25,-878"/><text xml:space="preserve" text-anchor="start" x="1096.5" y="-857.5" font-family="Open Sans" font-size="10.00">$asmtPath)</text></g><!-- terminator_block_1&#45;&gt;process_block_2 --><g id="edge1" class="edge"><title>terminator_block_1->process_block_2</title><path fill="none" stroke="black" d="M1124,-919.754C1124,-910.523 1124,-898.935 1124,-888.495"/><polygon fill="black" stroke="black" points="1127.5,-888.177 1124,-878.177 1120.5,-888.177 1127.5,-888.177"/><text xml:space="preserve" text-anchor="start" x="1124" y="-897.5" font-family="Open Sans" font-weight="bold" font-size="10.00"> string </text><polyline fill="none" stroke="Black" points="1160,-893.5 1124,-893.5 "/></g><!-- ifs_block_3 --><g id="node3" class="node"><title>ifs_block_3</title><polygon fill="url(#g-decisionabnkjncd56ogvi)" stroke="black" points="1124,-810 1026.9,-792 1124,-774 1221.1,-792 1124,-810"/><text xml:space="preserve" text-anchor="start" x="1073.5" y="-789.5" font-family="Open Sans" font-size="10.00">Test-Path $asmtPath</text></g><!-- process_block_2&#45;&gt;ifs_block_3 --><g id="edge2" class="edge"><title>process_block_2->ifs_block_3</title><path fill="none" stroke="black" d="M1124,-841.659C1124,-835.193 1124,-827.682 1124,-820.525"/><polygon fill="black" stroke="black" points="1127.5,-820.454 1124,-810.454 1120.5,-820.454 1127.5,-820.454"/></g><!-- process_block_4 --><g id="node4" class="node"><title>process_block_4</title><polygon fill="url(#g-processabnkjncd56ogvi)" stroke="black" points="942,-732 754,-732 754,-696 942,-696 942,-732"/><text xml:space="preserve" text-anchor="start" x="761" y="-711.5" font-family="Open Sans" font-size="10.00">$status = Test-Path $asmtStatusFile</text></g><!-- ifs_block_3&#45;&gt;process_block_4 --><g id="edge3" class="edge"><title>ifs_block_3->process_block_4</title><path fill="none" stroke="black" d="M1087.06,-780.829C1044.4,-769.082 973.22,-749.481 919.598,-734.715"/><polygon fill="black" stroke="black" points="920.372,-731.298 909.801,-732.018 918.513,-738.047 920.372,-731.298"/><text xml:space="preserve" text-anchor="start" x="1003" y="-751.5" font-family="Open Sans" font-weight="bold" font-size="10.00"> True </text><polyline fill="none" stroke="Black" points="1033,-747.5 967.984,-747.5 "/></g><!-- terminator_block_15 --><g id="node15" class="node"><title>terminator_block_15</title><ellipse fill="url(#g-terminatorabnkjncd56ogvi)" stroke="black" cx="1216" cy="-714" rx="250.156" ry="18"/><text xml:space="preserve" text-anchor="start" x="1011" y="-711.5" font-family="Open Sans" font-size="10.00">Log-Txt "   -> Given string is NULL or EMPTY or doesn't exist. Cannot run assessment."</text></g><!-- ifs_block_3&#45;&gt;terminator_block_15 --><g id="edge14" class="edge"><title>ifs_block_3->terminator_block_15</title><path fill="none" stroke="black" d="M1140.87,-777.06C1153.83,-766.358 1172.02,-751.33 1187.26,-738.743"/><polygon fill="black" stroke="black" points="1189.89,-741.111 1195.37,-732.044 1185.43,-735.715 1189.89,-741.111"/><text xml:space="preserve" text-anchor="start" x="1176" y="-751.5" font-family="Open Sans" font-weight="bold" font-size="10.00"> False </text><polyline fill="none" stroke="Black" points="1207,-747.5 1176.92,-747.5 "/></g><!-- ifs_block_5 --><g id="node5" class="node"><title>ifs_block_5</title><polygon fill="url(#g-decisionabnkjncd56ogvi)" stroke="black" points="848,-664 800.071,-646 848,-628 895.929,-646 848,-664"/><text xml:space="preserve" text-anchor="start" x="827" y="-643.5" font-family="Open Sans" font-size="10.00">($status)</text></g><!-- process_block_4&#45;&gt;ifs_block_5 --><g id="edge4" class="edge"><title>process_block_4->ifs_block_5</title><path fill="none" stroke="black" d="M848,-695.659C848,-689.193 848,-681.682 848,-674.525"/><polygon fill="black" stroke="black" points="851.5,-674.454 848,-664.454 844.5,-674.454 851.5,-674.454"/></g><!-- process_block_6 --><g id="node6" class="node"><title>process_block_6</title><polygon fill="url(#g-processabnkjncd56ogvi)" stroke="black" points="763,-586 243,-586 243,-472 763,-472 763,-586"/><text xml:space="preserve" text-anchor="start" x="480.5" y="-572" font-family="Open Sans" font-size="10.00">Log-Txt "</text><text xml:space="preserve" text-anchor="start" x="521.5" y="-572" font-family="Open Sans" font-style="italic" font-size="10.00">"</text><text xml:space="preserve" text-anchor="start" x="393.5" y="-562" font-family="Open Sans" font-style="italic" font-size="10.00">Log-Txt "...Running target packaged assessment"</text><text xml:space="preserve" text-anchor="start" x="481.5" y="-552" font-family="Open Sans" font-style="italic" font-size="10.00">Log-Txt "</text><text xml:space="preserve" text-anchor="start" x="520.5" y="-552" font-family="Open Sans" font-style="italic" font-size="10.00">"</text><text xml:space="preserve" text-anchor="start" x="385.5" y="-542" font-family="Open Sans" font-style="italic" font-size="10.00">Log-Txt "...Checked assessment status: Not Running"</text><text xml:space="preserve" text-anchor="start" x="386.5" y="-532" font-family="Open Sans" font-style="italic" font-size="10.00">Log-Txt "...Launching assessment from: $asmtPath"</text><text xml:space="preserve" text-anchor="start" x="348" y="-522" font-family="Open Sans" font-style="italic" font-size="10.00">Log-Txt "   -> Run with RemoveRestart to ensure no pending restarts"</text><text xml:space="preserve" text-anchor="start" x="250" y="-512" font-family="Open Sans" font-style="italic" font-size="10.00">Start-Process $asmtPath\$env:PROCESSOR_ARCHITECTURE\axe.exe /RemoveRestart -Wait -PassThru                   </text><text xml:space="preserve" text-anchor="start" x="383.5" y="-502" font-family="Open Sans" font-style="italic" font-size="10.00">Log-Txt "   -> </text><text xml:space="preserve" text-anchor="start" x="443.5" y="-502" font-family="Open Sans" font-size="10.00">*</text><text xml:space="preserve" text-anchor="start" x="449.5" y="-502" font-family="Open Sans" font-weight="bold" font-size="10.00">\*Launching</text><text xml:space="preserve" text-anchor="start" x="512.5" y="-502" font-family="Open Sans" font-style="italic" font-size="10.00"> assessment for test run"</text><text xml:space="preserve" text-anchor="start" x="259.5" y="-492" font-family="Open Sans" font-style="italic" font-size="10.00">Start-Process $asmtPath\$env:PROCESSOR_ARCHITECTURE\axe.exe $asmtPath\job.xml -PassThru                </text><text xml:space="preserve" text-anchor="start" x="426.5" y="-482" font-family="Open Sans" font-style="italic" font-size="10.00">Save-StatusFile $asmtStatusFile*</text><text xml:space="preserve" text-anchor="start" x="573.5" y="-482" font-family="Open Sans" font-size="10.00">*</text></g><!-- ifs_block_5&#45;&gt;process_block_6 --><g id="edge5" class="edge"><title>ifs_block_5->process_block_6</title><path fill="none" stroke="black" d="M824.014,-637.005C793.39,-626.797 737.558,-608.186 680.943,-589.314"/><polygon fill="black" stroke="black" points="681.708,-585.88 671.114,-586.038 679.494,-592.521 681.708,-585.88"/><text xml:space="preserve" text-anchor="start" x="747" y="-605.5" font-family="Open Sans" font-weight="bold" font-size="10.00"> False </text><polyline fill="none" stroke="Black" points="778,-601.5 717.728,-601.5 "/></g><!-- terminator_block_14 --><g id="node14" class="node"><title>terminator_block_14</title><ellipse fill="url(#g-terminatorabnkjncd56ogvi)" stroke="black" cx="964" cy="-529" rx="178.286" ry="41.0244"/><text xml:space="preserve" text-anchor="start" x="941.5" y="-547" font-family="Open Sans" font-size="10.00">Log-Txt "</text><text xml:space="preserve" text-anchor="start" x="982.5" y="-547" font-family="Open Sans" font-style="italic" font-size="10.00">"</text><text xml:space="preserve" text-anchor="start" x="846" y="-537" font-family="Open Sans" font-style="italic" font-size="10.00">Log-Txt "...Assessment has already been launched. "</text><text xml:space="preserve" text-anchor="start" x="879" y="-527" font-family="Open Sans" font-style="italic" font-size="10.00">Log-Txt "   ->Ignoring Run command"</text><text xml:space="preserve" text-anchor="start" x="938" y="-517" font-family="Open Sans" font-style="italic" font-size="10.00">Log-Txt "</text><text xml:space="preserve" text-anchor="start" x="977" y="-517" font-family="Open Sans" font-style="italic" font-size="10.00">"   </text><text xml:space="preserve" text-anchor="start" x="950" y="-507" font-family="Open Sans" font-style="italic" font-size="10.00">return</text></g><!-- ifs_block_5&#45;&gt;terminator_block_14 --><g id="edge13" class="edge"><title>ifs_block_5->terminator_block_14</title><path fill="none" stroke="black" d="M860.857,-632.254C874.524,-618.705 896.942,-596.48 917.393,-576.206"/><polygon fill="black" stroke="black" points="919.889,-578.659 924.527,-569.133 914.961,-573.688 919.889,-578.659"/><text xml:space="preserve" text-anchor="start" x="893" y="-605.5" font-family="Open Sans" font-weight="bold" font-size="10.00"> True </text><polyline fill="none" stroke="Black" points="923,-601.5 892.213,-601.5 "/></g><!-- ifs_block_7 --><g id="node7" class="node"><title>ifs_block_7</title><polygon fill="url(#g-decisionabnkjncd56ogvi)" stroke="black" points="503,-440 323.771,-422 503,-404 682.229,-422 503,-440"/><text xml:space="preserve" text-anchor="start" x="403" y="-419.5" font-family="Open Sans" font-size="10.00">Check-AsmtString "&lt;MayRebootSystem />"</text></g><!-- process_block_6&#45;&gt;ifs_block_7 --><g id="edge6" class="edge"><title>process_block_6->ifs_block_7</title><path fill="none" stroke="black" d="M503,-471.811C503,-464.44 503,-457.165 503,-450.574"/><polygon fill="black" stroke="black" points="506.5,-450.228 503,-440.228 499.5,-450.228 506.5,-450.228"/></g><!-- process_block_8 --><g id="node8" class="node"><title>process_block_8</title><polygon fill="url(#g-processabnkjncd56ogvi)" stroke="black" points="739,-361.5 267,-361.5 267,-292.5 739,-292.5 739,-361.5"/><text xml:space="preserve" text-anchor="start" x="367" y="-346.5" font-family="Open Sans" font-size="10.00">Log-Txt "...Assessment Restarts. Write $exitFile and Exit"</text><text xml:space="preserve" text-anchor="start" x="462" y="-335.5" font-family="Open Sans" font-size="10.00">Out-File $exitFile</text><text xml:space="preserve" text-anchor="start" x="274" y="-324.5" font-family="Open Sans" font-size="10.00">$jobEnergy = Check-AsmtString "&lt;ProgrammaticName>EnergyEfficiency&lt;/ProgrammaticName>" </text><text xml:space="preserve" text-anchor="start" x="282" y="-313.5" font-family="Open Sans" font-size="10.00">$jobHibernate = Check-AsmtString "&lt;ProgrammaticName>Hibernate&lt;/ProgrammaticName>"</text><text xml:space="preserve" text-anchor="start" x="292" y="-302.5" font-family="Open Sans" font-size="10.00">$jobStandby = Check-AsmtString "&lt;ProgrammaticName>Standby&lt;/ProgrammaticName>"</text></g><!-- ifs_block_7&#45;&gt;process_block_8 --><g id="edge7" class="edge"><title>ifs_block_7->process_block_8</title><path fill="none" stroke="black" d="M503,-403.942C503,-394.869 503,-383.255 503,-371.853"/><polygon fill="black" stroke="black" points="506.5,-371.522 503,-361.522 499.5,-371.522 506.5,-371.522"/><text xml:space="preserve" text-anchor="start" x="503" y="-381.5" font-family="Open Sans" font-weight="bold" font-size="10.00"> True </text><polyline fill="none" stroke="Black" points="533,-377.5 503,-377.5 "/></g><!-- ifs_block_9 --><g id="node9" class="node"><title>ifs_block_9</title><polygon fill="url(#g-decisionabnkjncd56ogvi)" stroke="black" points="503,-260 292.568,-242 503,-224 713.432,-242 503,-260"/><text xml:space="preserve" text-anchor="start" x="384.5" y="-239.5" font-family="Open Sans" font-size="10.00">($jobStandby) -or ($jobHibernate) -or ($jobEnergy)</text></g><!-- process_block_8&#45;&gt;ifs_block_9 --><g id="edge8" class="edge"><title>process_block_8->ifs_block_9</title><path fill="none" stroke="black" d="M503,-292.241C503,-285.054 503,-277.547 503,-270.622"/><polygon fill="black" stroke="black" points="506.5,-270.349 503,-260.349 499.5,-270.349 506.5,-270.349"/></g><!-- process_block_10 --><g id="node10" class="node"><title>process_block_10</title><polygon fill="url(#g-processabnkjncd56ogvi)" stroke="black" points="495.5,-182 0.5,-182 0.5,-146 495.5,-146 495.5,-182"/><text xml:space="preserve" text-anchor="start" x="7" y="-161.5" font-family="Open Sans" font-size="10.00">Log-Txt "   -> Assessment is Standby, Hibernate, or Energy and doesn't require additional configuring"</text></g><!-- ifs_block_9&#45;&gt;process_block_10 --><g id="edge9" class="edge"><title>ifs_block_9->process_block_10</title><path fill="none" stroke="black" d="M458.582,-227.762C418.966,-215.955 360.396,-198.499 315.076,-184.991"/><polygon fill="black" stroke="black" points="315.909,-181.588 305.326,-182.085 313.91,-188.296 315.909,-181.588"/><text xml:space="preserve" text-anchor="start" x="391" y="-201.5" font-family="Open Sans" font-weight="bold" font-size="10.00"> True </text><polyline fill="none" stroke="Black" points="421,-197.5 355.743,-197.5 "/></g><!-- terminator_block_13 --><g id="node13" class="node"><title>terminator_block_13</title><ellipse fill="url(#g-terminatorabnkjncd56ogvi)" stroke="black" cx="588" cy="-164" rx="69.1935" ry="18"/><text xml:space="preserve" text-anchor="start" x="537" y="-161.5" font-family="Open Sans" font-size="10.00">Exit                            </text></g><!-- ifs_block_9&#45;&gt;terminator_block_13 --><g id="edge12" class="edge"><title>ifs_block_9->terminator_block_13</title><path fill="none" stroke="black" d="M520.612,-225.253C532.563,-214.567 548.568,-200.257 561.981,-188.264"/><polygon fill="black" stroke="black" points="564.407,-190.79 569.528,-181.516 559.741,-185.572 564.407,-190.79"/><text xml:space="preserve" text-anchor="start" x="551" y="-201.5" font-family="Open Sans" font-weight="bold" font-size="10.00"> False </text><polyline fill="none" stroke="Black" points="582,-197.5 551.539,-197.5 "/></g><!-- ifs_block_11 --><g id="node11" class="node"><title>ifs_block_11</title><polygon fill="url(#g-decisionabnkjncd56ogvi)" stroke="black" points="248,-114 159.633,-96 248,-78 336.367,-96 248,-114"/><text xml:space="preserve" text-anchor="start" x="203" y="-93.5" font-family="Open Sans" font-size="10.00">Test-Path $exitFile</text></g><!-- process_block_10&#45;&gt;ifs_block_11 --><g id="edge10" class="edge"><title>process_block_10->ifs_block_11</title><path fill="none" stroke="black" d="M248,-145.659C248,-139.193 248,-131.682 248,-124.525"/><polygon fill="black" stroke="black" points="251.5,-124.454 248,-114.454 244.5,-124.454 251.5,-124.454"/></g><!-- terminator_block_12 --><g id="node12" class="node"><title>terminator_block_12</title><ellipse fill="url(#g-terminatorabnkjncd56ogvi)" stroke="black" cx="248" cy="-18" rx="81.2375" ry="18"/><text xml:space="preserve" text-anchor="start" x="186.5" y="-15.5" font-family="Open Sans" font-size="10.00">CMD /c del /F /Q $exitFile</text></g><!-- ifs_block_11&#45;&gt;terminator_block_12 --><g id="edge11" class="edge"><title>ifs_block_11->terminator_block_12</title><path fill="none" stroke="black" d="M248,-77.7544C248,-68.5232 248,-56.9348 248,-46.4946"/><polygon fill="black" stroke="black" points="251.5,-46.1773 248,-36.1773 244.5,-46.1774 251.5,-46.1773"/><text xml:space="preserve" text-anchor="start" x="248" y="-55.5" font-family="Open Sans" font-weight="bold" font-size="10.00"> True </text><polyline fill="none" stroke="Black" points="278,-51.5 248,-51.5 "/></g></g></svg>