<?xml version="1.0" encoding="UTF-8" standalone="no"?><!DOCTYPE svg PUBLIC "-//W3C//DTD SVG 1.1//EN" "http://www.w3.org/Graphics/SVG/1.1/DTD/svg11.dtd"><!-- Generated by graphviz version 2.35.0 (20140103.1005) --><!-- Title: FlowChart Pages: 1 --><svg width="600pt" height="172pt" viewBox="0.00 0.00 600 171.75" xmlns="http://www.w3.org/2000/svg" xmlns:xlink="http://www.w3.org/1999/xlink"><defs><linearGradient id="g-terminatorr0ghhsq6ywrk9" x1="0%" x2="100%" y1="0%" y2="0%" spreadMethod="pad"><stop offset="0%" stop-color="#ff8787" stop-opacity="1"/><stop offset="100%" stop-color="#ffb9b9" stop-opacity="1"/></linearGradient><linearGradient id="g-decisionr0ghhsq6ywrk9" x1="0%" x2="100%" y1="0%" y2="0%" spreadMethod="pad"><stop offset="0%" stop-color="#ffd287" stop-opacity="1"/><stop offset="100%" stop-color="#ffffb9" stop-opacity="1"/></linearGradient><linearGradient id="g-processr0ghhsq6ywrk9" x1="0%" x2="100%" y1="0%" y2="0%" spreadMethod="pad"><stop offset="0%" stop-color="#99ff99" stop-opacity="1"/><stop offset="100%" stop-color="#cbffcb" stop-opacity="1"/></linearGradient><linearGradient id="g-defaultr0ghhsq6ywrk9" x1="0%" x2="100%" y1="0%" y2="0%" spreadMethod="pad"><stop offset="0%" stop-color="#99ff99" stop-opacity="1"/><stop offset="100%" stop-color="#cbffcb" stop-opacity="1"/></linearGradient><linearGradient id="g-moduler0ghhsq6ywrk9" x1="0%" x2="100%" y1="0%" y2="0%" spreadMethod="pad"><stop offset="0%" stop-color="#77c1e4" stop-opacity="1"/><stop offset="100%" stop-color="#a9f3ff" stop-opacity="1"/></linearGradient><linearGradient id="g-dataior0ghhsq6ywrk9" x1="0%" x2="100%" y1="0%" y2="0%" spreadMethod="pad"><stop offset="0%" stop-color="#bebebe" stop-opacity="1"/><stop offset="100%" stop-color="#f0f0f0" stop-opacity="1"/></linearGradient><linearGradient id="g-preparationr0ghhsq6ywrk9" x1="0%" x2="100%" y1="0%" y2="0%" spreadMethod="pad"><stop offset="0%" stop-color="#bebebe" stop-opacity="1"/><stop offset="100%" stop-color="#f0f0f0" stop-opacity="1"/></linearGradient><linearGradient id="g-commentr0ghhsq6ywrk9" x1="0%" x2="100%" y1="0%" y2="0%" spreadMethod="pad"><stop offset="0%" stop-color="#f5f588" stop-opacity="1"/><stop offset="100%" stop-color="#ffffba" stop-opacity="1"/></linearGradient><linearGradient id="g-manualr0ghhsq6ywrk9" x1="0%" x2="100%" y1="0%" y2="0%" spreadMethod="pad"><stop offset="0%" stop-color="#9e78ff" stop-opacity="1"/><stop offset="100%" stop-color="#d0aaff" stop-opacity="1"/></linearGradient><filter id="dropshadowr0ghhsq6ywrk9" height="150%" width="150%"><feGaussianBlur in="SourceAlpha" stdDeviation="3"/><feOffset dx="2" dy="2" result="offsetblur"/><feComponentTransfer/><feMerge><feMergeNode/><feMergeNode in="SourceGraphic"/></feMerge></filter></defs><g id="flowr0ghhsq6ywrk9" class="graph" transform="scale(0.631635 0.631635) rotate(0) translate(4 260)"><title>FlowChart</title><!-- terminator_block_1 --><g id="node1" class="node"><title>terminator_block_1</title><ellipse fill="url(#g-terminatorr0ghhsq6ywrk9)" stroke="black" cx="486" cy="-238" rx="125.078" ry="18"/><text xml:space="preserve" text-anchor="start" x="387.5" y="-235.5" font-family="Open Sans" font-size="10.00">function Save-StatusFile($asmtStatusFile)</text></g><!-- process_block_2 --><g id="node2" class="node"><title>process_block_2</title><polygon fill="url(#g-processr0ghhsq6ywrk9)" stroke="black" points="552,-188 420,-188 420,-152 552,-152 552,-188"/><text xml:space="preserve" text-anchor="start" x="427" y="-167.5" font-family="Open Sans" font-size="10.00">Out-File $asmtStatusFile</text></g><!-- terminator_block_1&#45;&gt;process_block_2 --><g id="edge1" class="edge"><title>terminator_block_1->process_block_2</title><path fill="none" stroke="black" d="M486,-219.659C486,-213.193 486,-205.682 486,-198.525"/><polygon fill="black" stroke="black" points="489.5,-198.454 486,-188.454 482.5,-198.454 489.5,-198.454"/></g><!-- ifs_block_3 --><g id="node3" class="node"><title>ifs_block_3</title><polygon fill="url(#g-decisionr0ghhsq6ywrk9)" stroke="black" points="486,-120 367.678,-102 486,-84 604.322,-102 486,-120"/><text xml:space="preserve" text-anchor="start" x="423" y="-99.5" font-family="Open Sans" font-size="10.00">Test-Path $asmtStatusFile</text></g><!-- process_block_2&#45;&gt;ifs_block_3 --><g id="edge2" class="edge"><title>process_block_2->ifs_block_3</title><path fill="none" stroke="black" d="M486,-151.659C486,-145.193 486,-137.682 486,-130.525"/><polygon fill="black" stroke="black" points="489.5,-130.454 486,-120.454 482.5,-130.454 489.5,-130.454"/></g><!-- terminator_block_4 --><g id="node4" class="node"><title>terminator_block_4</title><ellipse fill="url(#g-terminatorr0ghhsq6ywrk9)" stroke="black" cx="247" cy="-21" rx="247.231" ry="21.4286"/><text xml:space="preserve" text-anchor="start" x="148.5" y="-24" font-family="Open Sans" font-size="10.00">Log-Txt "...Update status: Set to Running"</text><text xml:space="preserve" text-anchor="start" x="80" y="-13" font-family="Open Sans" font-size="10.00">Log-Txt "   -> Assessment status file saved to: $asmtStatusFile"           </text></g><!-- ifs_block_3&#45;&gt;terminator_block_4 --><g id="edge3" class="edge"><title>ifs_block_3->terminator_block_4</title><path fill="none" stroke="black" d="M450.735,-89.3433C415.411,-77.6673 360.108,-59.3873 316.03,-44.8173"/><polygon fill="black" stroke="black" points="317.113,-41.4894 306.52,-41.674 314.917,-48.1357 317.113,-41.4894"/><text xml:space="preserve" text-anchor="start" x="388" y="-61.5" font-family="Open Sans" font-weight="bold" font-size="10.00"> True </text><polyline fill="none" stroke="Black" points="418,-57.5 355.19,-57.5 "/></g><!-- terminator_block_5 --><g id="node5" class="node"><title>terminator_block_5</title><ellipse fill="url(#g-terminatorr0ghhsq6ywrk9)" stroke="black" cx="726" cy="-21" rx="208.463" ry="18"/><text xml:space="preserve" text-anchor="start" x="556.5" y="-18.5" font-family="Open Sans" font-size="10.00">Log-Txt "   :( Something went wrong. No status file at: $asmtStatusFile"</text></g><!-- ifs_block_3&#45;&gt;terminator_block_5 --><g id="edge4" class="edge"><title>ifs_block_3->terminator_block_5</title><path fill="none" stroke="black" d="M521.413,-89.3433C559.435,-76.8276 620.51,-56.7238 666.045,-41.7352"/><polygon fill="black" stroke="black" points="667.398,-44.9746 675.802,-38.5234 665.209,-38.3256 667.398,-44.9746"/><text xml:space="preserve" text-anchor="start" x="614" y="-61.5" font-family="Open Sans" font-weight="bold" font-size="10.00"> False </text><polyline fill="none" stroke="Black" points="645,-57.5 619.981,-57.5 "/></g></g></svg>