<?xml version="1.0" encoding="UTF-8" standalone="no"?><!DOCTYPE svg PUBLIC "-//W3C//DTD SVG 1.1//EN" "http://www.w3.org/Graphics/SVG/1.1/DTD/svg11.dtd"><!-- Generated by graphviz version 2.35.0 (20140103.1005) --><!-- Title: FlowChart Pages: 1 --><svg width="497pt" height="349pt" viewBox="0.00 0.00 497 349" xmlns="http://www.w3.org/2000/svg" xmlns:xlink="http://www.w3.org/1999/xlink"><defs><linearGradient id="g-terminatorbz9lg896tlz0k9" x1="0%" x2="100%" y1="0%" y2="0%" spreadMethod="pad"><stop offset="0%" stop-color="#ff8787" stop-opacity="1"/><stop offset="100%" stop-color="#ffb9b9" stop-opacity="1"/></linearGradient><linearGradient id="g-decisionbz9lg896tlz0k9" x1="0%" x2="100%" y1="0%" y2="0%" spreadMethod="pad"><stop offset="0%" stop-color="#ffd287" stop-opacity="1"/><stop offset="100%" stop-color="#ffffb9" stop-opacity="1"/></linearGradient><linearGradient id="g-processbz9lg896tlz0k9" x1="0%" x2="100%" y1="0%" y2="0%" spreadMethod="pad"><stop offset="0%" stop-color="#99ff99" stop-opacity="1"/><stop offset="100%" stop-color="#cbffcb" stop-opacity="1"/></linearGradient><linearGradient id="g-defaultbz9lg896tlz0k9" x1="0%" x2="100%" y1="0%" y2="0%" spreadMethod="pad"><stop offset="0%" stop-color="#99ff99" stop-opacity="1"/><stop offset="100%" stop-color="#cbffcb" stop-opacity="1"/></linearGradient><linearGradient id="g-modulebz9lg896tlz0k9" x1="0%" x2="100%" y1="0%" y2="0%" spreadMethod="pad"><stop offset="0%" stop-color="#77c1e4" stop-opacity="1"/><stop offset="100%" stop-color="#a9f3ff" stop-opacity="1"/></linearGradient><linearGradient id="g-dataiobz9lg896tlz0k9" x1="0%" x2="100%" y1="0%" y2="0%" spreadMethod="pad"><stop offset="0%" stop-color="#bebebe" stop-opacity="1"/><stop offset="100%" stop-color="#f0f0f0" stop-opacity="1"/></linearGradient><linearGradient id="g-preparationbz9lg896tlz0k9" x1="0%" x2="100%" y1="0%" y2="0%" spreadMethod="pad"><stop offset="0%" stop-color="#bebebe" stop-opacity="1"/><stop offset="100%" stop-color="#f0f0f0" stop-opacity="1"/></linearGradient><linearGradient id="g-commentbz9lg896tlz0k9" x1="0%" x2="100%" y1="0%" y2="0%" spreadMethod="pad"><stop offset="0%" stop-color="#f5f588" stop-opacity="1"/><stop offset="100%" stop-color="#ffffba" stop-opacity="1"/></linearGradient><linearGradient id="g-manualbz9lg896tlz0k9" x1="0%" x2="100%" y1="0%" y2="0%" spreadMethod="pad"><stop offset="0%" stop-color="#9e78ff" stop-opacity="1"/><stop offset="100%" stop-color="#d0aaff" stop-opacity="1"/></linearGradient><filter id="dropshadowbz9lg896tlz0k9" height="150%" width="150%"><feGaussianBlur in="SourceAlpha" stdDeviation="3"/><feOffset dx="2" dy="2" result="offsetblur"/><feComponentTransfer/><feMerge><feMergeNode/><feMergeNode in="SourceGraphic"/></feMerge></filter></defs><g id="flowbz9lg896tlz0k9" class="graph" transform="scale(1 1) rotate(0) translate(4 340)"><title>FlowChart</title><!-- terminator_block_1 --><g id="node1" class="node"><title>terminator_block_1</title><ellipse fill="url(#g-terminatorbz9lg896tlz0k9)" stroke="black" cx="273" cy="-318" rx="211.378" ry="18"/><text xml:space="preserve" text-anchor="start" x="101" y="-315.5" font-family="Open Sans" font-size="10.00">function Update-File($file, $pathToFile, $stringToFind, $stringToReplace)</text></g><!-- process_block_2 --><g id="node2" class="node"><title>process_block_2</title><polygon fill="url(#g-processbz9lg896tlz0k9)" stroke="black" points="474,-268 72,-268 72,-232 474,-232 474,-268"/><text xml:space="preserve" text-anchor="start" x="79" y="-247.5" font-family="Open Sans" font-size="10.00">$jobString = Select-String $pathToFile -pattern $stringToFind -SimpleMatch -quiet</text></g><!-- terminator_block_1&#45;&gt;process_block_2 --><g id="edge1" class="edge"><title>terminator_block_1->process_block_2</title><path fill="none" stroke="black" d="M273,-299.659C273,-293.193 273,-285.682 273,-278.525"/><polygon fill="black" stroke="black" points="276.5,-278.454 273,-268.454 269.5,-278.454 276.5,-278.454"/></g><!-- ifs_block_3 --><g id="node3" class="node"><title>ifs_block_3</title><polygon fill="url(#g-decisionbz9lg896tlz0k9)" stroke="black" points="273,-200 197.862,-182 273,-164 348.138,-182 273,-200"/><text xml:space="preserve" text-anchor="start" x="235.5" y="-179.5" font-family="Open Sans" font-size="10.00">$jobString -eq 1</text></g><!-- process_block_2&#45;&gt;ifs_block_3 --><g id="edge2" class="edge"><title>process_block_2->ifs_block_3</title><path fill="none" stroke="black" d="M273,-231.659C273,-225.193 273,-217.682 273,-210.525"/><polygon fill="black" stroke="black" points="276.5,-210.454 273,-200.454 269.5,-210.454 276.5,-210.454"/></g><!-- process_block_4 --><g id="node4" class="node"><title>process_block_4</title><polygon fill="url(#g-processbz9lg896tlz0k9)" stroke="black" points="272.25,-121.5 -0.25,-121.5 -0.25,-74.5 272.25,-74.5 272.25,-121.5"/><text xml:space="preserve" text-anchor="start" x="6.5" y="-106.5" font-family="Open Sans" font-size="10.00">Log-Txt "   -> Found $stringToFind string and updating"</text><text xml:space="preserve" text-anchor="start" x="9" y="-95.5" font-family="Open Sans" font-size="10.00">$file = $file.Replace($stringToFind, $stringToReplace)</text><text xml:space="preserve" text-anchor="start" x="109" y="-84.5" font-family="Open Sans" font-size="10.00">return $file</text></g><!-- ifs_block_3&#45;&gt;process_block_4 --><g id="edge3" class="edge"><title>ifs_block_3->process_block_4</title><path fill="none" stroke="black" d="M252.49,-168.724C234.089,-157.71 206.404,-141.14 182.64,-126.916"/><polygon fill="black" stroke="black" points="184.13,-123.729 173.752,-121.596 180.535,-129.735 184.13,-123.729"/><text xml:space="preserve" text-anchor="start" x="217" y="-141.5" font-family="Open Sans" font-weight="bold" font-size="10.00"> True </text><polyline fill="none" stroke="Black" points="247,-137.5 200.992,-137.5 "/></g><!-- terminator_block_5 --><g id="node5" class="node"><title>terminator_block_5</title><ellipse fill="url(#g-terminatorbz9lg896tlz0k9)" stroke="black" cx="266" cy="-21" rx="132.344" ry="21.4286"/><text xml:space="preserve" text-anchor="start" x="180.5" y="-24" font-family="Open Sans" font-size="10.00">Log-Txt "...Didn't find $stringToFind"</text><text xml:space="preserve" text-anchor="start" x="239" y="-13" font-family="Open Sans" font-size="10.00">return $file</text></g><!-- ifs_block_3&#45;&gt;terminator_block_5 --><g id="edge5" class="edge"><title>ifs_block_3->terminator_block_5</title><path fill="none" stroke="black" d="M277.073,-164.603C281.726,-143.534 288.078,-105.875 283,-74 281.855,-66.8157 279.874,-59.2756 277.659,-52.2356"/><polygon fill="black" stroke="black" points="280.843,-50.7251 274.317,-42.3788 274.213,-52.9731 280.843,-50.7251"/><text xml:space="preserve" text-anchor="start" x="285" y="-96.5" font-family="Open Sans" font-weight="bold" font-size="10.00"> False </text><polyline fill="none" stroke="Black" points="316,-92.5 284.737,-92.5 "/></g><!-- process_block_4&#45;&gt;terminator_block_5 --><g id="edge4" class="edge"><title>process_block_4->terminator_block_5</title><path fill="none" stroke="black" d="M175.004,-74.4975C190.134,-65.7688 207.513,-55.7422 223.003,-46.806"/><polygon fill="black" stroke="black" points="224.96,-49.7174 231.873,-41.6885 221.462,-43.6541 224.96,-49.7174"/></g></g></svg>